Scada-Regular.ufo
<glyph name="exclam" format="1">
  <advance width="290"/>
  <unicode hex="0021"/>
  <outline>
    <contour>
      <point x="105" y="180" type="line"/>
      <point x="85" y="700" type="line"/>
      <point x="205" y="700" type="line"/>
      <point x="185" y="180" type="line"/>
    </contour>
    <contour>
      <point x="145" y="-10" type="curve" smooth="yes"/>
      <point x="110" y="-10"/>
      <point x="85" y="15"/>
      <point x="85" y="50" type="curve" smooth="yes"/>
      <point x="85" y="85"/>
      <point x="110" y="110"/>
      <point x="145" y="110" type="curve" smooth="yes"/>
      <point x="180" y="110"/>
      <point x="205" y="85"/>
      <point x="205" y="50" type="curve" smooth="yes"/>
      <point x="205" y="15"/>
      <point x="180" y="-10"/>
    </contour>
  </outline>
</glyph>
<glyph name="quotedbl" format="1">
  <advance width="340"/>
  <unicode hex="0022"/>
  <outline>
    <contour>
      <point x="60" y="460" type="line"/>
      <point x="40" y="700" type="line"/>
      <point x="145" y="700" type="line"/>
      <point x="125" y="460" type="line"/>
    </contour>
    <contour>
      <point x="215" y="460" type="line"/>
      <point x="195" y="700" type="line"/>
      <point x="300" y="700" type="line"/>
      <point x="280" y="460" type="line"/>
    </contour>
  </outline>
</glyph>
<glyph name="numbersign" format="1">
  <advance width="660"/>
  <unicode hex="0023"/>
  <outline>
    <contour>
      <point x="80" y="0" type="line"/>
      <point x="121" y="180" type="line"/>
      <point x="20" y="180" type="line"/>
      <point x="20" y="250" type="line"/>
      <point x="137" y="250" type="line"/>
      <point x="183" y="450" type="line"/>
      <point x="80" y="450" type="line"/>
      <point x="80" y="520" type="line"/>
      <point x="199" y="520" type="line"/>
      <point x="240" y="700" type="line"/>
      <point x="340" y="700" type="line"/>
      <point x="299" y="520" type="line"/>
      <point x="439" y="520" type="line"/>
      <point x="480" y="700" type="line"/>
      <point x="580" y="700" type="line"/>
      <point x="539" y="520" type="line"/>
      <point x="640" y="520" type="line"/>
      <point x="640" y="450" type="line"/>
      <point x="523" y="450" type="line"/>
      <point x="477" y="250" type="line"/>
      <point x="580" y="250" type="line"/>
      <point x="580" y="180" type="line"/>
      <point x="461" y="180" type="line"/>
      <point x="420" y="0" type="line"/>
      <point x="320" y="0" type="line"/>
      <point x="361" y="180" type="line"/>
      <point x="221" y="180" type="line"/>
      <point x="180" y="0" type="line"/>
    </contour>
    <contour>
      <point x="237" y="250" type="line"/>
      <point x="377" y="250" type="line"/>
      <point x="423" y="450" type="line"/>
      <point x="283" y="450" type="line"/>
    </contour>
  </outline>
</glyph>
<glyph name="dollar" format="1">
  <advance width="495"/>
  <unicode hex="0024"/>
  <outline>
    <contour>
      <point x="190" y="-70" type="line"/>
      <point x="190" y="-7" type="line"/>
      <point x="139" y="-2"/>
      <point x="99" y="11"/>
      <point x="72" y="23" type="curve" smooth="yes"/>
      <point x="56" y="30"/>
      <point x="42" y="38"/>
      <point x="30" y="45" type="curve"/>
      <point x="65" y="105" type="line"/>
      <point x="75" y="105" type="line"/>
      <point x="87" y="96"/>
      <point x="101" y="89"/>
      <point x="116" y="82" type="curve" smooth="yes"/>
      <point x="143" y="71"/>
      <point x="180" y="60"/>
      <point x="225" y="60" type="curve" smooth="yes"/>
      <point x="316" y="60"/>
      <point x="365" y="109"/>
      <point x="365" y="180" type="curve" smooth="yes"/>
      <point x="365" y="340"/>
      <point x="40" y="300"/>
      <point x="40" y="520" type="curve" smooth="yes"/>
      <point x="40" y="612"/>
      <point x="94" y="680"/>
      <point x="190" y="703" type="curve"/>
      <point x="190" y="770" type="line"/>
      <point x="295" y="770" type="line"/>
      <point x="295" y="708" type="line"/>
      <point x="346" y="703"/>
      <point x="384" y="690"/>
      <point x="411" y="678" type="curve" smooth="yes"/>
      <point x="426" y="671"/>
      <point x="439" y="663"/>
      <point x="450" y="655" type="curve"/>
      <point x="415" y="595" type="line"/>
      <point x="405" y="595" type="line"/>
      <point x="395" y="603"/>
      <point x="383" y="610"/>
      <point x="369" y="617" type="curve" smooth="yes"/>
      <point x="345" y="628"/>
      <point x="310" y="640"/>
      <point x="265" y="640" type="curve" smooth="yes"/>
      <point x="190" y="640"/>
      <point x="140" y="589"/>
      <point x="140" y="530" type="curve" smooth="yes"/>
      <point x="140" y="370"/>
      <point x="465" y="410"/>
      <point x="465" y="190" type="curve" smooth="yes"/>
      <point x="465" y="86"/>
      <point x="407" y="14"/>
      <point x="295" y="-5" type="curve"/>
      <point x="295" y="-70" type="line"/>
    </contour>
  </outline>
</glyph>
<glyph name="percent" format="1">
  <advance width="800"/>
  <unicode hex="0025"/>
  <outline>
    <contour>
      <point x="190" y="350" type="curve" smooth="yes"/>
      <point x="94" y="350"/>
      <point x="30" y="414"/>
      <point x="30" y="530" type="curve" smooth="yes"/>
      <point x="30" y="646"/>
      <point x="94" y="710"/>
      <point x="190" y="710" type="curve" smooth="yes"/>
      <point x="286" y="710"/>
      <point x="350" y="646"/>
      <point x="350" y="530" type="curve" smooth="yes"/>
      <point x="350" y="414"/>
      <point x="286" y="350"/>
    </contour>
    <contour>
      <point x="110" y="0" type="line"/>
      <point x="580" y="700" type="line"/>
      <point x="690" y="700" type="line"/>
      <point x="220" y="0" type="line"/>
    </contour>
    <contour>
      <point x="190" y="410" type="curve" smooth="yes"/>
      <point x="230" y="410"/>
      <point x="260" y="439"/>
      <point x="260" y="530" type="curve" smooth="yes"/>
      <point x="260" y="619"/>
      <point x="230" y="650"/>
      <point x="190" y="650" type="curve" smooth="yes"/>
      <point x="150" y="650"/>
      <point x="120" y="619"/>
      <point x="120" y="530" type="curve" smooth="yes"/>
      <point x="120" y="439"/>
      <point x="150" y="410"/>
    </contour>
    <contour>
      <point x="610" y="-10" type="curve" smooth="yes"/>
      <point x="514" y="-10"/>
      <point x="450" y="54"/>
      <point x="450" y="170" type="curve" smooth="yes"/>
      <point x="450" y="286"/>
      <point x="514" y="350"/>
      <point x="610" y="350" type="curve" smooth="yes"/>
      <point x="706" y="350"/>
      <point x="770" y="286"/>
      <point x="770" y="170" type="curve" smooth="yes"/>
      <point x="770" y="54"/>
      <point x="706" y="-10"/>
    </contour>
    <contour>
      <point x="610" y="50" type="curve" smooth="yes"/>
      <point x="650" y="50"/>
      <point x="680" y="79"/>
      <point x="680" y="170" type="curve" smooth="yes"/>
      <point x="680" y="259"/>
      <point x="650" y="290"/>
      <point x="610" y="290" type="curve" smooth="yes"/>
      <point x="570" y="290"/>
      <point x="540" y="259"/>
      <point x="540" y="170" type="curve" smooth="yes"/>
      <point x="540" y="79"/>
      <point x="570" y="50"/>
    </contour>
  </outline>
</glyph>
<glyph name="ampersand" format="1">
  <advance width="615"/>
  <unicode hex="0026"/>
  <outline>
    <contour>
      <point x="240" y="-10" type="curve" smooth="yes"/>
      <point x="109" y="-10"/>
      <point x="30" y="70"/>
      <point x="30" y="180" type="curve" smooth="yes"/>
      <point x="30" y="271"/>
      <point x="100" y="329"/>
      <point x="175" y="380" type="curve"/>
      <point x="158" y="396"/>
      <point x="144" y="413"/>
      <point x="132" y="431" type="curve" smooth="yes"/>
      <point x="111" y="462"/>
      <point x="90" y="505"/>
      <point x="90" y="550" type="curve" smooth="yes"/>
      <point x="90" y="646"/>
      <point x="154" y="710"/>
      <point x="265" y="710" type="curve" smooth="yes"/>
      <point x="369" y="710"/>
      <point x="435" y="645"/>
      <point x="435" y="560" type="curve" smooth="yes"/>
      <point x="435" y="504"/>
      <point x="402" y="459"/>
      <point x="367" y="424" type="curve" smooth="yes"/>
      <point x="347" y="404"/>
      <point x="325" y="386"/>
      <point x="300" y="370" type="curve"/>
      <point x="450" y="190" type="line"/>
      <point x="465" y="225"/>
      <point x="470" y="269"/>
      <point x="470" y="320" type="curve"/>
      <point x="560" y="320" type="line"/>
      <point x="560" y="244"/>
      <point x="540" y="181"/>
      <point x="505" y="125" type="curve"/>
      <point x="610" y="0" type="line"/>
      <point x="490" y="0" type="line"/>
      <point x="440" y="60" type="line"/>
      <point x="384" y="15"/>
      <point x="316" y="-10"/>
    </contour>
    <contour>
      <point x="250" y="435" type="curve"/>
      <point x="266" y="446"/>
      <point x="280" y="458"/>
      <point x="292" y="471" type="curve" smooth="yes"/>
      <point x="313" y="494"/>
      <point x="335" y="525"/>
      <point x="335" y="560" type="curve" smooth="yes"/>
      <point x="335" y="616"/>
      <point x="305" y="645"/>
      <point x="265" y="645" type="curve" smooth="yes"/>
      <point x="220" y="645"/>
      <point x="190" y="615"/>
      <point x="190" y="550" type="curve" smooth="yes"/>
      <point x="190" y="522"/>
      <point x="205" y="495"/>
      <point x="220" y="472" type="curve" smooth="yes"/>
      <point x="229" y="459"/>
      <point x="239" y="447"/>
    </contour>
    <contour>
      <point x="260" y="60" type="curve" smooth="yes"/>
      <point x="316" y="60"/>
      <point x="360" y="75"/>
      <point x="395" y="110" type="curve"/>
      <point x="225" y="315" type="line"/>
      <point x="170" y="275"/>
      <point x="130" y="235"/>
      <point x="130" y="180" type="curve" smooth="yes"/>
      <point x="130" y="109"/>
      <point x="180" y="60"/>
    </contour>
  </outline>
</glyph>
<glyph name="quotesingle" format="1">
  <advance width="185"/>
  <unicode hex="0027"/>
  <outline>
    <contour>
      <point x="60" y="460" type="line"/>
      <point x="40" y="700" type="line"/>
      <point x="145" y="700" type="line"/>
      <point x="125" y="460" type="line"/>
    </contour>
  </outline>
</glyph>
<glyph name="parenleft" format="1">
  <advance width="285"/>
  <unicode hex="0028"/>
  <outline>
    <contour>
      <point x="245" y="-175" type="line"/>
      <point x="120" y="-60"/>
      <point x="55" y="109"/>
      <point x="55" y="280" type="curve" smooth="yes"/>
      <point x="55" y="451"/>
      <point x="120" y="620"/>
      <point x="245" y="735" type="curve"/>
      <point x="285" y="695" type="line"/>
      <point x="205" y="579"/>
      <point x="155" y="451"/>
      <point x="155" y="280" type="curve" smooth="yes"/>
      <point x="155" y="109"/>
      <point x="205" y="-19"/>
      <point x="285" y="-135" type="curve"/>
    </contour>
  </outline>
</glyph>
<glyph name="parenright" format="1">
  <advance width="285"/>
  <unicode hex="0029"/>
  <outline>
    <contour>
      <point x="40" y="-175" type="curve"/>
      <point x="0" y="-135" type="line"/>
      <point x="80" y="-19"/>
      <point x="130" y="109"/>
      <point x="130" y="280" type="curve" smooth="yes"/>
      <point x="130" y="451"/>
      <point x="80" y="579"/>
      <point x="0" y="695" type="curve"/>
      <point x="40" y="735" type="line"/>
      <point x="165" y="620"/>
      <point x="230" y="451"/>
      <point x="230" y="280" type="curve" smooth="yes"/>
      <point x="230" y="109"/>
      <point x="165" y="-60"/>
    </contour>
  </outline>
</glyph>
<glyph name="asterisk" format="1">
  <advance width="410"/>
  <unicode hex="002A"/>
  <outline>
    <contour>
      <point x="170" y="340" type="line"/>
      <point x="170" y="460" type="line"/>
      <point x="65" y="400" type="line"/>
      <point x="30" y="460" type="line"/>
      <point x="135" y="520" type="line"/>
      <point x="30" y="580" type="line"/>
      <point x="65" y="640" type="line"/>
      <point x="170" y="580" type="line"/>
      <point x="170" y="700" type="line"/>
      <point x="240" y="700" type="line"/>
      <point x="240" y="580" type="line"/>
      <point x="345" y="640" type="line"/>
      <point x="380" y="580" type="line"/>
      <point x="275" y="520" type="line"/>
      <point x="380" y="460" type="line"/>
      <point x="345" y="400" type="line"/>
      <point x="240" y="460" type="line"/>
      <point x="240" y="340" type="line"/>
    </contour>
  </outline>
</glyph>
<glyph name="plus" format="1">
  <advance width="470"/>
  <unicode hex="002B"/>
  <outline>
    <contour>
      <point x="195" y="125" type="line"/>
      <point x="195" y="290" type="line"/>
      <point x="30" y="290" type="line"/>
      <point x="30" y="370" type="line"/>
      <point x="195" y="370" type="line"/>
      <point x="195" y="535" type="line"/>
      <point x="275" y="535" type="line"/>
      <point x="275" y="370" type="line"/>
      <point x="440" y="370" type="line"/>
      <point x="440" y="290" type="line"/>
      <point x="275" y="290" type="line"/>
      <point x="275" y="125" type="line"/>
    </contour>
  </outline>
</glyph>
<glyph name="period" format="1">
  <advance width="200"/>
  <unicode hex="002E"/>
  <outline>
    <contour>
      <point x="100" y="-10" type="curve" smooth="yes"/>
      <point x="65" y="-10"/>
      <point x="40" y="15"/>
      <point x="40" y="50" type="curve" smooth="yes"/>
      <point x="40" y="85"/>
      <point x="65" y="110"/>
      <point x="100" y="110" type="curve" smooth="yes"/>
      <point x="135" y="110"/>
      <point x="160" y="85"/>
      <point x="160" y="50" type="curve" smooth="yes"/>
      <point x="160" y="15"/>
      <point x="135" y="-10"/>
    </contour>
  </outline>
</glyph>
<glyph name="zero" format="1">
  <advance width="580"/>
  <unicode hex="0030"/>
  <outline>
    <contour>
      <point x="290" y="-10" type="curve" smooth="yes"/>
      <point x="154" y="-10"/>
      <point x="55" y="90"/>
      <point x="55" y="350" type="curve" smooth="yes"/>
      <point x="55" y="610"/>
      <point x="154" y="710"/>
      <point x="290" y="710" type="curve" smooth="yes"/>
      <point x="426" y="710"/>
      <point x="525" y="610"/>
      <point x="525" y="350" type="curve" smooth="yes"/>
      <point x="525" y="90"/>
      <point x="426" y="-10"/>
    </contour>
    <contour>
      <point x="290" y="60" type="curve" smooth="yes"/>
      <point x="365" y="60"/>
      <point x="425" y="121"/>
      <point x="425" y="350" type="curve" smooth="yes"/>
      <point x="425" y="579"/>
      <point x="365" y="640"/>
      <point x="290" y="640" type="curve" smooth="yes"/>
      <point x="215" y="640"/>
      <point x="155" y="579"/>
      <point x="155" y="350" type="curve" smooth="yes"/>
      <point x="155" y="121"/>
      <point x="215" y="60"/>
    </contour>
  </outline>
</glyph>
<glyph name="one" format="1">
  <advance width="390"/>
  <unicode hex="0031"/>
  <outline>
    <contour>
      <point x="50" y="0" type="line"/>
      <point x="50" y="70" type="line"/>
      <point x="160" y="70" type="line"/>
      <point x="160" y="590" type="line"/>
      <point x="60" y="525" type="line"/>
      <point x="20" y="580" type="line"/>
      <point x="170" y="700" type="line"/>
      <point x="260" y="700" type="line"/>
      <point x="260" y="70" type="line"/>
      <point x="370" y="70" type="line"/>
      <point x="370" y="0" type="line"/>
    </contour>
  </outline>
</glyph>
<glyph name="two" format="1">
  <advance width="500"/>
  <unicode hex="0032"/>
  <outline>
    <contour>
      <point x="30" y="0" type="line"/>
      <point x="30" y="70" type="line" smooth="yes"/>
      <point x="30" y="269"/>
      <point x="355" y="360"/>
      <point x="355" y="530" type="curve" smooth="yes"/>
      <point x="355" y="590"/>
      <point x="305" y="640"/>
      <point x="220" y="640" type="curve" smooth="yes"/>
      <point x="175" y="640"/>
      <point x="140" y="628"/>
      <point x="116" y="617" type="curve" smooth="yes"/>
      <point x="102" y="610"/>
      <point x="90" y="603"/>
      <point x="80" y="595" type="curve"/>
      <point x="70" y="595" type="line"/>
      <point x="35" y="655" type="line"/>
      <point x="48" y="665"/>
      <point x="65" y="674"/>
      <point x="84" y="682" type="curve" smooth="yes"/>
      <point x="116" y="697"/>
      <point x="165" y="710"/>
      <point x="230" y="710" type="curve" smooth="yes"/>
      <point x="374" y="710"/>
      <point x="455" y="630"/>
      <point x="455" y="520" type="curve" smooth="yes"/>
      <point x="455" y="320"/>
      <point x="130" y="210"/>
      <point x="130" y="70" type="curve"/>
      <point x="455" y="70" type="line"/>
      <point x="455" y="0" type="line"/>
    </contour>
  </outline>
</glyph>
<glyph name="three" format="1">
  <advance width="500"/>
  <unicode hex="0033"/>
  <outline>
    <contour>
      <point x="210" y="-10" type="curve" smooth="yes"/>
      <point x="145" y="-10"/>
      <point x="96" y="2"/>
      <point x="64" y="17" type="curve" smooth="yes"/>
      <point x="45" y="25"/>
      <point x="28" y="34"/>
      <point x="15" y="45" type="curve"/>
      <point x="50" y="105" type="line"/>
      <point x="60" y="105" type="line"/>
      <point x="70" y="96"/>
      <point x="82" y="89"/>
      <point x="96" y="82" type="curve" smooth="yes"/>
      <point x="120" y="71"/>
      <point x="155" y="60"/>
      <point x="200" y="60" type="curve" smooth="yes"/>
      <point x="311" y="60"/>
      <point x="360" y="109"/>
      <point x="360" y="200" type="curve" smooth="yes"/>
      <point x="360" y="291"/>
      <point x="311" y="340"/>
      <point x="200" y="340" type="curve" smooth="yes"/>
      <point x="95" y="340" type="line"/>
      <point x="95" y="410" type="line"/>
      <point x="320" y="630" type="line"/>
      <point x="30" y="630" type="line"/>
      <point x="30" y="700" type="line"/>
      <point x="440" y="700" type="line"/>
      <point x="440" y="630" type="line"/>
      <point x="215" y="410" type="line"/>
      <point x="380" y="410"/>
      <point x="460" y="329"/>
      <point x="460" y="200" type="curve" smooth="yes"/>
      <point x="460" y="69"/>
      <point x="381" y="-10"/>
    </contour>
  </outline>
</glyph>
<glyph name="four" format="1">
  <advance width="540"/>
  <unicode hex="0034"/>
  <outline>
    <contour>
      <point x="340" y="0" type="line"/>
      <point x="340" y="170" type="line"/>
      <point x="10" y="170" type="line"/>
      <point x="10" y="240" type="line"/>
      <point x="340" y="700" type="line"/>
      <point x="440" y="700" type="line"/>
      <point x="440" y="240" type="line"/>
      <point x="520" y="240" type="line"/>
      <point x="520" y="170" type="line"/>
      <point x="440" y="170" type="line"/>
      <point x="440" y="0" type="line"/>
    </contour>
    <contour>
      <point x="120" y="240" type="line"/>
      <point x="340" y="240" type="line"/>
      <point x="340" y="500" type="line" smooth="yes"/>
      <point x="340" y="512"/>
      <point x="341" y="529"/>
      <point x="344" y="544" type="curve" smooth="yes"/>
      <point x="348" y="570" type="line"/>
      <point x="344" y="570" type="line"/>
      <point x="339" y="561"/>
      <point x="335" y="552"/>
      <point x="330" y="544" type="curve" smooth="yes"/>
      <point x="322" y="529"/>
      <point x="313" y="512"/>
      <point x="305" y="500" type="curve" smooth="yes"/>
    </contour>
  </outline>
</glyph>
<glyph name="five" format="1">
  <advance width="505"/>
  <unicode hex="0035"/>
  <outline>
    <contour>
      <point x="220" y="-10" type="curve" smooth="yes"/>
      <point x="155" y="-10"/>
      <point x="106" y="2"/>
      <point x="74" y="17" type="curve" smooth="yes"/>
      <point x="55" y="25"/>
      <point x="38" y="34"/>
      <point x="25" y="45" type="curve"/>
      <point x="60" y="105" type="line"/>
      <point x="70" y="105" type="line"/>
      <point x="80" y="96"/>
      <point x="92" y="89"/>
      <point x="106" y="82" type="curve" smooth="yes"/>
      <point x="130" y="71"/>
      <point x="165" y="60"/>
      <point x="210" y="60" type="curve" smooth="yes"/>
      <point x="313" y="60"/>
      <point x="365" y="110"/>
      <point x="365" y="210" type="curve" smooth="yes"/>
      <point x="365" y="310"/>
      <point x="313" y="360"/>
      <point x="210" y="360" type="curve" smooth="yes"/>
      <point x="90" y="360" type="line"/>
      <point x="60" y="390" type="line"/>
      <point x="60" y="700" type="line"/>
      <point x="439" y="700" type="line"/>
      <point x="439" y="630" type="line"/>
      <point x="160" y="630" type="line"/>
      <point x="160" y="430" type="line"/>
      <point x="225" y="430" type="line" smooth="yes"/>
      <point x="386" y="430"/>
      <point x="465" y="351"/>
      <point x="465" y="210" type="curve" smooth="yes"/>
      <point x="465" y="69"/>
      <point x="387" y="-10"/>
    </contour>
  </outline>
</glyph>
<glyph name="six" format="1">
  <advance width="535"/>
  <unicode hex="0036"/>
  <outline>
    <contour>
      <point x="281" y="-10" type="curve" smooth="yes"/>
      <point x="134" y="-10"/>
      <point x="55" y="69"/>
      <point x="55" y="230" type="curve" smooth="yes"/>
      <point x="55" y="410" type="line" smooth="yes"/>
      <point x="55" y="619"/>
      <point x="145" y="710"/>
      <point x="290" y="710" type="curve" smooth="yes"/>
      <point x="347" y="710"/>
      <point x="392" y="697"/>
      <point x="423" y="682" type="curve" smooth="yes"/>
      <point x="441" y="674"/>
      <point x="457" y="665"/>
      <point x="470" y="655" type="curve"/>
      <point x="435" y="595" type="line"/>
      <point x="425" y="595" type="line"/>
      <point x="415" y="603"/>
      <point x="404" y="610"/>
      <point x="391" y="617" type="curve" smooth="yes"/>
      <point x="368" y="628"/>
      <point x="337" y="640"/>
      <point x="300" y="640" type="curve" smooth="yes"/>
      <point x="215" y="640"/>
      <point x="155" y="581"/>
      <point x="155" y="410" type="curve"/>
      <point x="165" y="417"/>
      <point x="177" y="424"/>
      <point x="190" y="430" type="curve" smooth="yes"/>
      <point x="213" y="441"/>
      <point x="245" y="450"/>
      <point x="285" y="450" type="curve" smooth="yes"/>
      <point x="416" y="450"/>
      <point x="495" y="371"/>
      <point x="495" y="230" type="curve" smooth="yes"/>
      <point x="495" y="69"/>
      <point x="416" y="-10"/>
    </contour>
    <contour>
      <point x="280" y="60" type="curve" smooth="yes"/>
      <point x="345" y="60"/>
      <point x="395" y="110"/>
      <point x="395" y="230" type="curve" smooth="yes"/>
      <point x="395" y="330"/>
      <point x="345" y="380"/>
      <point x="265" y="380" type="curve" smooth="yes"/>
      <point x="230" y="380"/>
      <point x="203" y="371"/>
      <point x="184" y="360" type="curve" smooth="yes"/>
      <point x="173" y="354"/>
      <point x="163" y="347"/>
      <point x="155" y="340" type="curve"/>
      <point x="155" y="230" type="line" smooth="yes"/>
      <point x="155" y="110"/>
      <point x="205" y="60"/>
    </contour>
  </outline>
</glyph>
<glyph name="seven" format="1">
  <advance width="440"/>
  <unicode hex="0037"/>
  <outline>
    <contour>
      <point x="140" y="0" type="line"/>
      <point x="140" y="90" type="line" smooth="yes"/>
      <point x="140" y="319"/>
      <point x="230" y="521"/>
      <point x="320" y="630" type="curve"/>
      <point x="0" y="630" type="line"/>
      <point x="0" y="700" type="line"/>
      <point x="430" y="700" type="line"/>
      <point x="430" y="630" type="line"/>
      <point x="339" y="520"/>
      <point x="240" y="320"/>
      <point x="240" y="90" type="curve" smooth="yes"/>
      <point x="240" y="0" type="line"/>
    </contour>
  </outline>
</glyph>
<glyph name="eight" format="1">
  <advance width="560"/>
  <unicode hex="0038"/>
  <outline>
    <contour>
      <point x="280" y="-10" type="curve" smooth="yes"/>
      <point x="131" y="-10"/>
      <point x="40" y="80"/>
      <point x="40" y="180" type="curve" smooth="yes"/>
      <point x="40" y="257"/>
      <point x="78" y="305"/>
      <point x="117" y="333" type="curve" smooth="yes"/>
      <point x="140" y="350"/>
      <point x="166" y="362"/>
      <point x="195" y="370" type="curve"/>
      <point x="171" y="378"/>
      <point x="150" y="389"/>
      <point x="132" y="404" type="curve" smooth="yes"/>
      <point x="101" y="429"/>
      <point x="70" y="470"/>
      <point x="70" y="535" type="curve" smooth="yes"/>
      <point x="70" y="630"/>
      <point x="149" y="710"/>
      <point x="280" y="710" type="curve" smooth="yes"/>
      <point x="411" y="710"/>
      <point x="490" y="630"/>
      <point x="490" y="535" type="curve" smooth="yes"/>
      <point x="490" y="470"/>
      <point x="458" y="429"/>
      <point x="427" y="404" type="curve" smooth="yes"/>
      <point x="409" y="389"/>
      <point x="388" y="378"/>
      <point x="365" y="370" type="curve"/>
      <point x="394" y="362"/>
      <point x="419" y="350"/>
      <point x="442" y="333" type="curve" smooth="yes"/>
      <point x="482" y="304"/>
      <point x="520" y="258"/>
      <point x="520" y="180" type="curve" smooth="yes"/>
      <point x="520" y="80"/>
      <point x="429" y="-10"/>
    </contour>
    <contour>
      <point x="280" y="410" type="curve"/>
      <point x="339" y="429"/>
      <point x="390" y="467"/>
      <point x="390" y="535" type="curve" smooth="yes"/>
      <point x="390" y="591"/>
      <point x="339" y="640"/>
      <point x="280" y="640" type="curve" smooth="yes"/>
      <point x="219" y="640"/>
      <point x="170" y="591"/>
      <point x="170" y="535" type="curve" smooth="yes"/>
      <point x="170" y="467"/>
      <point x="219" y="429"/>
    </contour>
    <contour>
      <point x="280" y="60" type="curve" smooth="yes"/>
      <point x="371" y="60"/>
      <point x="420" y="109"/>
      <point x="420" y="180" type="curve" smooth="yes"/>
      <point x="420" y="260"/>
      <point x="355" y="301"/>
      <point x="280" y="330" type="curve"/>
      <point x="205" y="301"/>
      <point x="140" y="260"/>
      <point x="140" y="180" type="curve" smooth="yes"/>
      <point x="140" y="109"/>
      <point x="189" y="60"/>
    </contour>
  </outline>
</glyph>
<glyph name="nine" format="1">
  <advance width="535"/>
  <unicode hex="0039"/>
  <outline>
    <contour>
      <point x="245" y="-10" type="curve" smooth="yes"/>
      <point x="186" y="-10"/>
      <point x="143" y="2"/>
      <point x="112" y="17" type="curve" smooth="yes"/>
      <point x="94" y="25"/>
      <point x="78" y="34"/>
      <point x="65" y="45" type="curve"/>
      <point x="100" y="105" type="line"/>
      <point x="110" y="105" type="line"/>
      <point x="120" y="96"/>
      <point x="131" y="89"/>
      <point x="144" y="82" type="curve" smooth="yes"/>
      <point x="167" y="71"/>
      <point x="196" y="60"/>
      <point x="235" y="60" type="curve" smooth="yes"/>
      <point x="320" y="60"/>
      <point x="380" y="119"/>
      <point x="380" y="290" type="curve"/>
      <point x="369" y="283"/>
      <point x="358" y="276"/>
      <point x="345" y="270" type="curve" smooth="yes"/>
      <point x="322" y="259"/>
      <point x="290" y="250"/>
      <point x="250" y="250" type="curve" smooth="yes"/>
      <point x="119" y="250"/>
      <point x="40" y="329"/>
      <point x="40" y="470" type="curve" smooth="yes"/>
      <point x="40" y="631"/>
      <point x="119" y="710"/>
      <point x="254" y="710" type="curve" smooth="yes"/>
      <point x="401" y="710"/>
      <point x="480" y="631"/>
      <point x="480" y="470" type="curve" smooth="yes"/>
      <point x="480" y="290" type="line" smooth="yes"/>
      <point x="480" y="80"/>
      <point x="389" y="-10"/>
    </contour>
    <contour>
      <point x="270" y="320" type="curve" smooth="yes"/>
      <point x="305" y="320"/>
      <point x="332" y="329"/>
      <point x="351" y="340" type="curve" smooth="yes"/>
      <point x="362" y="346"/>
      <point x="372" y="353"/>
      <point x="380" y="360" type="curve"/>
      <point x="380" y="470" type="line" smooth="yes"/>
      <point x="380" y="590"/>
      <point x="330" y="640"/>
      <point x="255" y="640" type="curve" smooth="yes"/>
      <point x="190" y="640"/>
      <point x="140" y="590"/>
      <point x="140" y="470" type="curve" smooth="yes"/>
      <point x="140" y="370"/>
      <point x="190" y="320"/>
    </contour>
  </outline>
</glyph>
<glyph name="colon" format="1">
  <advance width="200"/>
  <unicode hex="003A"/>
  <outline>
    <contour>
      <point x="100" y="390" type="curve" smooth="yes"/>
      <point x="65" y="390"/>
      <point x="40" y="415"/>
      <point x="40" y="450" type="curve" smooth="yes"/>
      <point x="40" y="485"/>
      <point x="65" y="510"/>
      <point x="100" y="510" type="curve" smooth="yes"/>
      <point x="135" y="510"/>
      <point x="160" y="485"/>
      <point x="160" y="450" type="curve" smooth="yes"/>
      <point x="160" y="415"/>
      <point x="135" y="390"/>
    </contour>
    <contour>
      <point x="100" y="-10" type="curve" smooth="yes"/>
      <point x="65" y="-10"/>
      <point x="40" y="15"/>
      <point x="40" y="50" type="curve" smooth="yes"/>
      <point x="40" y="85"/>
      <point x="65" y="110"/>
      <point x="100" y="110" type="curve" smooth="yes"/>
      <point x="135" y="110"/>
      <point x="160" y="85"/>
      <point x="160" y="50" type="curve" smooth="yes"/>
      <point x="160" y="15"/>
      <point x="135" y="-10"/>
    </contour>
  </outline>
</glyph>
<glyph name="less" format="1">
  <advance width="470"/>
  <unicode hex="003C"/>
  <outline>
    <contour>
      <point x="430" y="0" type="line"/>
      <point x="40" y="215" type="line"/>
      <point x="40" y="285" type="line"/>
      <point x="430" y="500" type="line"/>
      <point x="430" y="405" type="line"/>
      <point x="150" y="250" type="line"/>
      <point x="430" y="95" type="line"/>
    </contour>
  </outline>
</glyph>
<glyph name="equal" format="1">
  <advance width="470"/>
  <unicode hex="003D"/>
  <outline>
    <contour>
      <point x="35" y="380" type="line"/>
      <point x="35" y="460" type="line"/>
      <point x="435" y="460" type="line"/>
      <point x="435" y="380" type="line"/>
    </contour>
    <contour>
      <point x="35" y="200" type="line"/>
      <point x="35" y="280" type="line"/>
      <point x="435" y="280" type="line"/>
      <point x="435" y="200" type="line"/>
    </contour>
  </outline>
</glyph>
<glyph name="greater" format="1">
  <advance width="445"/>
  <unicode hex="003E"/>
  <outline>
    <contour>
      <point x="35" y="0" type="line"/>
      <point x="35" y="95" type="line"/>
      <point x="315" y="250" type="line"/>
      <point x="35" y="405" type="line"/>
      <point x="35" y="500" type="line"/>
      <point x="425" y="285" type="line"/>
      <point x="425" y="215" type="line"/>
    </contour>
  </outline>
</glyph>
<glyph name="question" format="1">
  <advance width="460"/>
  <unicode hex="003F"/>
  <outline>
    <contour>
      <point x="136" y="180" type="line"/>
      <point x="136" y="220" type="line" smooth="yes"/>
      <point x="136" y="390"/>
      <point x="320" y="390"/>
      <point x="320" y="530" type="curve" smooth="yes"/>
      <point x="320" y="590"/>
      <point x="270" y="640"/>
      <point x="185" y="640" type="curve" smooth="yes"/>
      <point x="140" y="640"/>
      <point x="105" y="628"/>
      <point x="81" y="617" type="curve" smooth="yes"/>
      <point x="67" y="610"/>
      <point x="55" y="603"/>
      <point x="45" y="595" type="curve"/>
      <point x="35" y="595" type="line"/>
      <point x="0" y="655" type="line"/>
      <point x="13" y="665"/>
      <point x="30" y="674"/>
      <point x="49" y="682" type="curve" smooth="yes"/>
      <point x="81" y="697"/>
      <point x="130" y="710"/>
      <point x="195" y="710" type="curve" smooth="yes"/>
      <point x="339" y="710"/>
      <point x="420" y="630"/>
      <point x="420" y="520" type="curve" smooth="yes"/>
      <point x="420" y="349"/>
      <point x="226" y="350"/>
      <point x="226" y="220" type="curve" smooth="yes"/>
      <point x="226" y="180" type="line"/>
    </contour>
    <contour>
      <point x="181" y="-10" type="curve" smooth="yes"/>
      <point x="146" y="-10"/>
      <point x="121" y="15"/>
      <point x="121" y="50" type="curve" smooth="yes"/>
      <point x="121" y="85"/>
      <point x="146" y="110"/>
      <point x="181" y="110" type="curve" smooth="yes"/>
      <point x="216" y="110"/>
      <point x="241" y="85"/>
      <point x="241" y="50" type="curve" smooth="yes"/>
      <point x="241" y="15"/>
      <point x="216" y="-10"/>
    </contour>
  </outline>
</glyph>
<glyph name="at" format="1">
  <advance width="930"/>
  <unicode hex="0040"/>
  <outline>
    <contour>
      <point x="455" y="-120" type="curve" smooth="yes"/>
      <point x="225" y="-120"/>
      <point x="45" y="60"/>
      <point x="45" y="300" type="curve" smooth="yes"/>
      <point x="45" y="540"/>
      <point x="225" y="720"/>
      <point x="465" y="720" type="curve" smooth="yes"/>
      <point x="705" y="720"/>
      <point x="885" y="540"/>
      <point x="885" y="300" type="curve" smooth="yes"/>
      <point x="885" y="135"/>
      <point x="805" y="55"/>
      <point x="705" y="55" type="curve" smooth="yes"/>
      <point x="654" y="55"/>
      <point x="621" y="67"/>
      <point x="600" y="82" type="curve" smooth="yes"/>
      <point x="588" y="90"/>
      <point x="578" y="99"/>
      <point x="570" y="110" type="curve"/>
      <point x="565" y="110" type="line"/>
      <point x="554" y="99"/>
      <point x="543" y="90"/>
      <point x="530" y="82" type="curve" smooth="yes"/>
      <point x="507" y="67"/>
      <point x="475" y="55"/>
      <point x="435" y="55" type="curve" smooth="yes"/>
      <point x="335" y="55"/>
      <point x="260" y="131"/>
      <point x="260" y="295" type="curve" smooth="yes"/>
      <point x="260" y="459"/>
      <point x="335" y="535"/>
      <point x="435" y="535" type="curve" smooth="yes"/>
      <point x="478" y="535"/>
      <point x="509" y="518"/>
      <point x="532" y="502" type="curve" smooth="yes"/>
      <point x="545" y="493"/>
      <point x="556" y="482"/>
      <point x="565" y="470" type="curve"/>
      <point x="570" y="470" type="line"/>
      <point x="580" y="525" type="line"/>
      <point x="650" y="525" type="line"/>
      <point x="650" y="140" type="line"/>
      <point x="654" y="136"/>
      <point x="658" y="133"/>
      <point x="663" y="130" type="curve" smooth="yes"/>
      <point x="671" y="125"/>
      <point x="682" y="120"/>
      <point x="695" y="120" type="curve" smooth="yes"/>
      <point x="739" y="120"/>
      <point x="795" y="164"/>
      <point x="795" y="300" type="curve" smooth="yes"/>
      <point x="795" y="511"/>
      <point x="654" y="650"/>
      <point x="465" y="650" type="curve" smooth="yes"/>
      <point x="276" y="650"/>
      <point x="135" y="511"/>
      <point x="135" y="300" type="curve" smooth="yes"/>
      <point x="135" y="89"/>
      <point x="276" y="-50"/>
      <point x="465" y="-50" type="curve" smooth="yes"/>
      <point x="516" y="-50"/>
      <point x="554" y="-39"/>
      <point x="582" y="-28" type="curve" smooth="yes"/>
      <point x="598" y="-21"/>
      <point x="612" y="-14"/>
      <point x="625" y="-5" type="curve"/>
      <point x="635" y="-5" type="line"/>
      <point x="670" y="-65" type="line"/>
      <point x="655" y="-76"/>
      <point x="636" y="-85"/>
      <point x="615" y="-93" type="curve" smooth="yes"/>
      <point x="579" y="-108"/>
      <point x="526" y="-120"/>
    </contour>
    <contour>
      <point x="460" y="130" type="curve" smooth="yes"/>
      <point x="485" y="130"/>
      <point x="508" y="141"/>
      <point x="524" y="152" type="curve" smooth="yes"/>
      <point x="533" y="159"/>
      <point x="542" y="166"/>
      <point x="550" y="175" type="curve"/>
      <point x="550" y="405" type="line"/>
      <point x="542" y="415"/>
      <point x="533" y="424"/>
      <point x="524" y="432" type="curve" smooth="yes"/>
      <point x="508" y="447"/>
      <point x="485" y="460"/>
      <point x="460" y="460" type="curve" smooth="yes"/>
      <point x="405" y="460"/>
      <point x="360" y="415"/>
      <point x="360" y="295" type="curve" smooth="yes"/>
      <point x="360" y="175"/>
      <point x="405" y="130"/>
    </contour>
  </outline>
</glyph>
<glyph name="A" format="1">
  <advance width="570"/>
  <unicode hex="0041"/>
  <outline>
    <contour>
      <point x="15" y="0" type="line"/>
      <point x="220" y="700" type="line"/>
      <point x="350" y="700" type="line"/>
      <point x="555" y="0" type="line"/>
      <point x="455" y="0" type="line"/>
      <point x="400" y="180" type="line"/>
      <point x="170" y="180" type="line"/>
      <point x="115" y="0" type="line"/>
    </contour>
    <contour>
      <point x="190" y="250" type="line"/>
      <point x="380" y="250" type="line"/>
      <point x="300" y="525" type="line" smooth="yes"/>
      <point x="295" y="540"/>
      <point x="293" y="557"/>
      <point x="290" y="572" type="curve" smooth="yes"/>
      <point x="287" y="595" type="line"/>
      <point x="283" y="595" type="line"/>
      <point x="280" y="571" type="line" smooth="yes"/>
      <point x="277" y="556"/>
      <point x="274" y="540"/>
      <point x="270" y="525" type="curve" smooth="yes"/>
    </contour>
  </outline>
</glyph>
<glyph name="G" format="1">
  <advance width="565"/>
  <unicode hex="0047"/>
  <outline>
    <contour>
      <point x="315" y="-10" type="curve" smooth="yes"/>
      <point x="165" y="-10"/>
      <point x="55" y="99"/>
      <point x="55" y="350" type="curve" smooth="yes"/>
      <point x="55" y="601"/>
      <point x="165" y="710"/>
      <point x="305" y="710" type="curve" smooth="yes"/>
      <point x="361" y="710"/>
      <point x="403" y="697"/>
      <point x="434" y="682" type="curve" smooth="yes"/>
      <point x="451" y="674"/>
      <point x="467" y="665"/>
      <point x="480" y="655" type="curve"/>
      <point x="445" y="595" type="line"/>
      <point x="435" y="595" type="line"/>
      <point x="424" y="603"/>
      <point x="413" y="610"/>
      <point x="401" y="617" type="curve" smooth="yes"/>
      <point x="380" y="628"/>
      <point x="350" y="640"/>
      <point x="315" y="640" type="curve" smooth="yes"/>
      <point x="225" y="640"/>
      <point x="155" y="570"/>
      <point x="155" y="350" type="curve" smooth="yes"/>
      <point x="155" y="130"/>
      <point x="225" y="60"/>
      <point x="325" y="60" type="curve" smooth="yes"/>
      <point x="365" y="61"/>
      <point x="400" y="80"/>
      <point x="400" y="80" type="curve"/>
      <point x="400" y="310" type="line"/>
      <point x="285" y="310" type="line"/>
      <point x="285" y="380" type="line"/>
      <point x="470" y="380" type="line"/>
      <point x="500" y="350" type="line"/>
      <point x="500" y="45" type="line"/>
      <point x="486" y="34"/>
      <point x="470" y="25"/>
      <point x="451" y="17" type="curve" smooth="yes"/>
      <point x="419" y="2"/>
      <point x="372" y="-10"/>
    </contour>
  </outline>
</glyph>
<glyph name="J" format="1">
  <advance width="425"/>
  <unicode hex="004A"/>
  <outline>
    <contour>
      <point x="135" y="-10" type="curve" smooth="yes"/>
      <point x="95" y="-10"/>
      <point x="61" y="1"/>
      <point x="37" y="12" type="curve" smooth="yes"/>
      <point x="23" y="19"/>
      <point x="11" y="26"/>
      <point x="0" y="35" type="curve"/>
      <point x="30" y="100" type="line"/>
      <point x="40" y="100" type="line"/>
      <point x="48" y="93"/>
      <point x="57" y="86"/>
      <point x="66" y="80" type="curve" smooth="yes"/>
      <point x="82" y="69"/>
      <point x="102" y="60"/>
      <point x="125" y="60" type="curve" smooth="yes"/>
      <point x="201" y="60"/>
      <point x="240" y="99"/>
      <point x="240" y="190" type="curve" smooth="yes"/>
      <point x="240" y="700" type="line"/>
      <point x="340" y="700" type="line"/>
      <point x="340" y="190" type="line" smooth="yes"/>
      <point x="340" y="59"/>
      <point x="271" y="-10"/>
    </contour>
  </outline>
</glyph>
<glyph name="K" format="1">
  <advance width="555"/>
  <unicode hex="004B"/>
  <outline>
    <contour>
      <point x="90" y="0" type="line"/>
      <point x="90" y="700" type="line"/>
      <point x="190" y="700" type="line"/>
      <point x="190" y="370" type="line"/>
      <point x="415" y="700" type="line"/>
      <point x="530" y="700" type="line"/>
      <point x="300" y="360" type="line"/>
      <point x="540" y="0" type="line"/>
      <point x="425" y="0" type="line"/>
      <point x="190" y="350" type="line"/>
      <point x="190" y="0" type="line"/>
    </contour>
  </outline>
</glyph>
<glyph name="L" format="1">
  <advance width="490"/>
  <unicode hex="004C"/>
  <outline>
    <contour>
      <point x="90" y="0" type="line"/>
      <point x="90" y="700" type="line"/>
      <point x="190" y="700" type="line"/>
      <point x="190" y="70" type="line"/>
      <point x="480" y="70" type="line"/>
      <point x="480" y="0" type="line"/>
    </contour>
  </outline>
</glyph>
<glyph name="N" format="1">
  <advance width="630"/>
  <unicode hex="004E"/>
  <outline>
    <contour>
      <point x="90" y="0" type="line"/>
      <point x="90" y="700" type="line"/>
      <point x="200" y="700" type="line"/>
      <point x="410" y="235" type="line" smooth="yes"/>
      <point x="417" y="220"/>
      <point x="423" y="198"/>
      <point x="430" y="181" type="curve" smooth="yes"/>
      <point x="433" y="170"/>
      <point x="437" y="160"/>
      <point x="440" y="150" type="curve"/>
      <point x="444" y="150" type="line"/>
      <point x="442" y="181" type="line" smooth="yes"/>
      <point x="441" y="198"/>
      <point x="440" y="220"/>
      <point x="440" y="235" type="curve" smooth="yes"/>
      <point x="440" y="700" type="line"/>
      <point x="540" y="700" type="line"/>
      <point x="540" y="0" type="line"/>
      <point x="430" y="0" type="line"/>
      <point x="220" y="465" type="line" smooth="yes"/>
      <point x="213" y="480"/>
      <point x="206" y="500"/>
      <point x="200" y="519" type="curve" smooth="yes"/>
      <point x="197" y="529"/>
      <point x="193" y="539"/>
      <point x="190" y="550" type="curve"/>
      <point x="186" y="550" type="line"/>
      <point x="188" y="519" type="line" smooth="yes"/>
      <point x="189" y="500"/>
      <point x="190" y="480"/>
      <point x="190" y="465" type="curve" smooth="yes"/>
      <point x="190" y="0" type="line"/>
    </contour>
  </outline>
</glyph>
<glyph name="P" format="1">
  <advance width="565"/>
  <unicode hex="0050"/>
  <outline>
    <contour>
      <point x="90" y="0" type="line"/>
      <point x="90" y="700" type="line"/>
      <point x="270" y="700" type="line" smooth="yes"/>
      <point x="441" y="700"/>
      <point x="520" y="621"/>
      <point x="520" y="470" type="curve" smooth="yes"/>
      <point x="520" y="319"/>
      <point x="441" y="240"/>
      <point x="270" y="240" type="curve" smooth="yes"/>
      <point x="190" y="240" type="line"/>
      <point x="190" y="0" type="line"/>
    </contour>
    <contour>
      <point x="190" y="310" type="line"/>
      <point x="270" y="310" type="line" smooth="yes"/>
      <point x="370" y="310"/>
      <point x="420" y="359"/>
      <point x="420" y="470" type="curve" smooth="yes"/>
      <point x="420" y="581"/>
      <point x="370" y="630"/>
      <point x="270" y="630" type="curve" smooth="yes"/>
      <point x="190" y="630" type="line"/>
    </contour>
  </outline>
</glyph>
<glyph name="Q" format="1">
  <advance width="600"/>
  <unicode hex="0051"/>
  <outline>
    <contour>
      <point x="405" y="-155" type="curve" smooth="yes"/>
      <point x="309" y="-155"/>
      <point x="250" y="-96"/>
      <point x="250" y="-5" type="curve"/>
      <point x="135" y="14"/>
      <point x="55" y="121"/>
      <point x="55" y="350" type="curve" smooth="yes"/>
      <point x="55" y="610"/>
      <point x="155" y="710"/>
      <point x="300" y="710" type="curve" smooth="yes"/>
      <point x="445" y="710"/>
      <point x="545" y="610"/>
      <point x="545" y="350" type="curve" smooth="yes"/>
      <point x="545" y="121"/>
      <point x="465" y="14"/>
      <point x="350" y="-5" type="curve"/>
      <point x="350" y="-61"/>
      <point x="375" y="-85"/>
      <point x="415" y="-85" type="curve" smooth="yes"/>
      <point x="425" y="-85"/>
      <point x="433" y="-83"/>
      <point x="440" y="-80" type="curve" smooth="yes"/>
      <point x="450" y="-75" type="line"/>
      <point x="460" y="-75" type="line"/>
      <point x="480" y="-140" type="line"/>
      <point x="473" y="-143"/>
      <point x="465" y="-145"/>
      <point x="457" y="-148" type="curve" smooth="yes"/>
      <point x="442" y="-152"/>
      <point x="425" y="-155"/>
    </contour>
    <contour>
      <point x="300" y="60" type="curve" smooth="yes"/>
      <point x="375" y="60"/>
      <point x="445" y="130"/>
      <point x="445" y="350" type="curve" smooth="yes"/>
      <point x="445" y="570"/>
      <point x="375" y="640"/>
      <point x="300" y="640" type="curve" smooth="yes"/>
      <point x="225" y="640"/>
      <point x="155" y="570"/>
      <point x="155" y="350" type="curve" smooth="yes"/>
      <point x="155" y="130"/>
      <point x="225" y="60"/>
    </contour>
  </outline>
</glyph>
<glyph name="S" format="1">
  <advance width="505"/>
  <unicode hex="0053"/>
  <outline>
    <contour>
      <point x="240" y="-10" type="curve" smooth="yes"/>
      <point x="175" y="-10"/>
      <point x="124" y="2"/>
      <point x="89" y="17" type="curve" smooth="yes"/>
      <point x="68" y="25"/>
      <point x="50" y="34"/>
      <point x="35" y="45" type="curve"/>
      <point x="70" y="105" type="line"/>
      <point x="80" y="105" type="line"/>
      <point x="92" y="96"/>
      <point x="106" y="89"/>
      <point x="121" y="82" type="curve" smooth="yes"/>
      <point x="148" y="71"/>
      <point x="185" y="60"/>
      <point x="230" y="60" type="curve" smooth="yes"/>
      <point x="321" y="60"/>
      <point x="370" y="109"/>
      <point x="370" y="180" type="curve" smooth="yes"/>
      <point x="370" y="340"/>
      <point x="45" y="300"/>
      <point x="45" y="520" type="curve" smooth="yes"/>
      <point x="45" y="630"/>
      <point x="124" y="710"/>
      <point x="255" y="710" type="curve" smooth="yes"/>
      <point x="320" y="710"/>
      <point x="368" y="697"/>
      <point x="401" y="682" type="curve" smooth="yes"/>
      <point x="420" y="674"/>
      <point x="436" y="665"/>
      <point x="450" y="655" type="curve"/>
      <point x="415" y="595" type="line"/>
      <point x="405" y="595" type="line"/>
      <point x="395" y="603"/>
      <point x="383" y="610"/>
      <point x="369" y="617" type="curve" smooth="yes"/>
      <point x="345" y="628"/>
      <point x="310" y="640"/>
      <point x="265" y="640" type="curve" smooth="yes"/>
      <point x="196" y="640"/>
      <point x="145" y="589"/>
      <point x="145" y="530" type="curve" smooth="yes"/>
      <point x="145" y="370"/>
      <point x="470" y="410"/>
      <point x="470" y="190" type="curve" smooth="yes"/>
      <point x="470" y="70"/>
      <point x="389" y="-10"/>
    </contour>
  </outline>
</glyph>
<glyph name="V" format="1">
  <advance width="523"/>
  <unicode hex="0056"/>
  <outline>
    <contour>
      <point x="210" y="0" type="line"/>
      <point x="15" y="700" type="line"/>
      <point x="105" y="700" type="line"/>
      <point x="250" y="175" type="line" smooth="yes"/>
      <point x="254" y="160"/>
      <point x="256" y="144"/>
      <point x="259" y="129" type="curve" smooth="yes"/>
      <point x="263" y="105" type="line"/>
      <point x="267" y="105" type="line"/>
      <point x="270" y="129" type="line" smooth="yes"/>
      <point x="273" y="144"/>
      <point x="276" y="160"/>
      <point x="280" y="175" type="curve" smooth="yes"/>
      <point x="425" y="700" type="line"/>
      <point x="508" y="700" type="line"/>
      <point x="313" y="0" type="line"/>
    </contour>
  </outline>
</glyph>
<glyph name="X" format="1">
  <advance width="530"/>
  <unicode hex="0058"/>
  <outline>
    <contour>
      <point x="15" y="0" type="line"/>
      <point x="200" y="355" type="line"/>
      <point x="20" y="700" type="line"/>
      <point x="130" y="700" type="line"/>
      <point x="245" y="475" type="line" smooth="yes"/>
      <point x="249" y="466"/>
      <point x="254" y="455"/>
      <point x="257" y="446" type="curve" smooth="yes"/>
      <point x="263" y="430" type="line"/>
      <point x="267" y="430" type="line"/>
      <point x="273" y="446" type="line" smooth="yes"/>
      <point x="276" y="455"/>
      <point x="280" y="466"/>
      <point x="285" y="475" type="curve" smooth="yes"/>
      <point x="400" y="700" type="line"/>
      <point x="510" y="700" type="line"/>
      <point x="330" y="355" type="line"/>
      <point x="515" y="0" type="line"/>
      <point x="405" y="0" type="line"/>
      <point x="285" y="235" type="line" smooth="yes"/>
      <point x="280" y="243"/>
      <point x="276" y="255"/>
      <point x="273" y="264" type="curve" smooth="yes"/>
      <point x="267" y="280" type="line"/>
      <point x="263" y="280" type="line"/>
      <point x="257" y="264" type="line" smooth="yes"/>
      <point x="254" y="254"/>
      <point x="250" y="244"/>
      <point x="245" y="235" type="curve" smooth="yes"/>
      <point x="125" y="0" type="line"/>
    </contour>
  </outline>
</glyph>
<glyph name="Y" format="1">
  <advance width="530"/>
  <unicode hex="0059"/>
  <outline>
    <contour>
      <point x="215" y="0" type="line"/>
      <point x="215" y="230" type="line"/>
      <point x="0" y="700" type="line"/>
      <point x="105" y="700" type="line"/>
      <point x="250" y="365" type="line" smooth="yes"/>
      <point x="255" y="352"/>
      <point x="260" y="338"/>
      <point x="263" y="326" type="curve" smooth="yes"/>
      <point x="265" y="319"/>
      <point x="267" y="312"/>
      <point x="268" y="305" type="curve"/>
      <point x="272" y="305" type="line"/>
      <point x="273" y="312"/>
      <point x="275" y="319"/>
      <point x="277" y="326" type="curve" smooth="yes"/>
      <point x="280" y="338"/>
      <point x="283" y="352"/>
      <point x="290" y="365" type="curve" smooth="yes"/>
      <point x="440" y="700" type="line"/>
      <point x="530" y="700" type="line"/>
      <point x="315" y="230" type="line"/>
      <point x="315" y="0" type="line"/>
    </contour>
  </outline>
</glyph>
<glyph name="Z" format="1">
  <advance width="485"/>
  <unicode hex="005A"/>
  <outline>
    <contour>
      <point x="25" y="0" type="line"/>
      <point x="25" y="75" type="line"/>
      <point x="335" y="630" type="line"/>
      <point x="25" y="630" type="line"/>
      <point x="25" y="700" type="line"/>
      <point x="455" y="700" type="line"/>
      <point x="455" y="625" type="line"/>
      <point x="145" y="70" type="line"/>
      <point x="460" y="70" type="line"/>
      <point x="460" y="0" type="line"/>
    </contour>
  </outline>
</glyph>
<glyph name="bracketleft" format="1">
  <advance width="310"/>
  <unicode hex="005B"/>
  <outline>
    <contour>
      <point x="90" y="-170" type="line"/>
      <point x="90" y="730" type="line"/>
      <point x="290" y="730" type="line"/>
      <point x="290" y="660" type="line"/>
      <point x="190" y="660" type="line"/>
      <point x="190" y="-100" type="line"/>
      <point x="290" y="-100" type="line"/>
      <point x="290" y="-170" type="line"/>
    </contour>
  </outline>
</glyph>
<glyph name="bracketright" format="1">
  <advance width="310"/>
  <unicode hex="005D"/>
  <outline>
    <contour>
      <point x="20" y="-170" type="line"/>
      <point x="20" y="-100" type="line"/>
      <point x="120" y="-100" type="line"/>
      <point x="120" y="660" type="line"/>
      <point x="20" y="660" type="line"/>
      <point x="20" y="730" type="line"/>
      <point x="220" y="730" type="line"/>
      <point x="220" y="-170" type="line"/>
    </contour>
  </outline>
</glyph>
<glyph name="asciicircum" format="1">
  <advance width="430"/>
  <unicode hex="005E"/>
  <outline>
    <contour>
      <point x="0" y="440" type="line"/>
      <point x="180" y="720" type="line"/>
      <point x="250" y="720" type="line"/>
      <point x="430" y="440" type="line"/>
      <point x="330" y="440" type="line"/>
      <point x="215" y="620" type="line"/>
      <point x="100" y="440" type="line"/>
    </contour>
  </outline>
</glyph>
<glyph name="underscore" format="1">
  <advance width="380"/>
  <unicode hex="005F"/>
  <outline>
    <contour>
      <point x="0" y="-130" type="line"/>
      <point x="0" y="-50" type="line"/>
      <point x="380" y="-50" type="line"/>
      <point x="380" y="-130" type="line"/>
    </contour>
  </outline>
</glyph>
<glyph name="b" format="1">
  <advance width="535"/>
  <unicode hex="0062"/>
  <outline>
    <contour>
      <point x="305" y="-10" type="curve" smooth="yes"/>
      <point x="254" y="-10"/>
      <point x="219" y="6"/>
      <point x="195" y="25" type="curve" smooth="yes"/>
      <point x="181" y="35"/>
      <point x="169" y="47"/>
      <point x="160" y="60" type="curve"/>
      <point x="155" y="60" type="line"/>
      <point x="145" y="0" type="line"/>
      <point x="75" y="0" type="line"/>
      <point x="75" y="670" type="line"/>
      <point x="105" y="700" type="line"/>
      <point x="175" y="700" type="line"/>
      <point x="175" y="480" type="line"/>
      <point x="184" y="485"/>
      <point x="195" y="490"/>
      <point x="207" y="495" type="curve" smooth="yes"/>
      <point x="227" y="502"/>
      <point x="254" y="510"/>
      <point x="285" y="510" type="curve" smooth="yes"/>
      <point x="400" y="510"/>
      <point x="485" y="425"/>
      <point x="485" y="250" type="curve" smooth="yes"/>
      <point x="485" y="75"/>
      <point x="400" y="-10"/>
    </contour>
    <contour>
      <point x="280" y="65" type="curve" smooth="yes"/>
      <point x="336" y="65"/>
      <point x="385" y="115"/>
      <point x="385" y="250" type="curve" smooth="yes"/>
      <point x="385" y="390"/>
      <point x="334" y="440"/>
      <point x="270" y="440" type="curve" smooth="yes"/>
      <point x="242" y="440"/>
      <point x="219" y="435"/>
      <point x="202" y="430" type="curve" smooth="yes"/>
      <point x="192" y="427"/>
      <point x="183" y="424"/>
      <point x="175" y="420" type="curve"/>
      <point x="175" y="125" type="line"/>
      <point x="184" y="114"/>
      <point x="194" y="104"/>
      <point x="205" y="95" type="curve" smooth="yes"/>
      <point x="224" y="80"/>
      <point x="249" y="65"/>
    </contour>
  </outline>
</glyph>
<glyph name="d" format="1">
  <advance width="535"/>
  <unicode hex="0064"/>
  <outline>
    <contour>
      <point x="230" y="-10" type="curve" smooth="yes"/>
      <point x="135" y="-10"/>
      <point x="50" y="75"/>
      <point x="50" y="250" type="curve" smooth="yes"/>
      <point x="50" y="425"/>
      <point x="135" y="510"/>
      <point x="250" y="510" type="curve" smooth="yes"/>
      <point x="281" y="510"/>
      <point x="307" y="502"/>
      <point x="327" y="495" type="curve" smooth="yes"/>
      <point x="360" y="480" type="line"/>
      <point x="360" y="670" type="line"/>
      <point x="390" y="700" type="line"/>
      <point x="460" y="700" type="line"/>
      <point x="460" y="0" type="line"/>
      <point x="390" y="0" type="line"/>
      <point x="380" y="60" type="line"/>
      <point x="375" y="60" type="line"/>
      <point x="366" y="47"/>
      <point x="354" y="35"/>
      <point x="340" y="25" type="curve" smooth="yes"/>
      <point x="316" y="6"/>
      <point x="281" y="-10"/>
    </contour>
    <contour>
      <point x="255" y="65" type="curve" smooth="yes"/>
      <point x="286" y="65"/>
      <point x="311" y="80"/>
      <point x="330" y="95" type="curve" smooth="yes"/>
      <point x="341" y="104"/>
      <point x="351" y="114"/>
      <point x="360" y="125" type="curve"/>
      <point x="360" y="420" type="line"/>
      <point x="352" y="424"/>
      <point x="343" y="427"/>
      <point x="333" y="430" type="curve" smooth="yes"/>
      <point x="316" y="435"/>
      <point x="292" y="440"/>
      <point x="265" y="440" type="curve" smooth="yes"/>
      <point x="201" y="440"/>
      <point x="150" y="390"/>
      <point x="150" y="250" type="curve" smooth="yes"/>
      <point x="150" y="115"/>
      <point x="199" y="65"/>
    </contour>
  </outline>
</glyph>
<glyph name="f" format="1">
  <advance width="340"/>
  <unicode hex="0066"/>
  <outline>
    <contour>
      <point x="85" y="0" type="line"/>
      <point x="85" y="430" type="line"/>
      <point x="20" y="430" type="line"/>
      <point x="20" y="500" type="line"/>
      <point x="85" y="500" type="line"/>
      <point x="85" y="550" type="line" smooth="yes"/>
      <point x="85" y="646"/>
      <point x="150" y="710"/>
      <point x="250" y="710" type="curve" smooth="yes"/>
      <point x="293" y="710"/>
      <point x="327" y="697"/>
      <point x="354" y="682" type="curve" smooth="yes"/>
      <point x="369" y="674"/>
      <point x="383" y="665"/>
      <point x="395" y="655" type="curve"/>
      <point x="360" y="595" type="line"/>
      <point x="350" y="595" type="line"/>
      <point x="341" y="603"/>
      <point x="332" y="610"/>
      <point x="322" y="617" type="curve" smooth="yes"/>
      <point x="305" y="628"/>
      <point x="283" y="640"/>
      <point x="260" y="640" type="curve" smooth="yes"/>
      <point x="215" y="640"/>
      <point x="185" y="610"/>
      <point x="185" y="550" type="curve" smooth="yes"/>
      <point x="185" y="500" type="line"/>
      <point x="320" y="500" type="line"/>
      <point x="320" y="430" type="line"/>
      <point x="185" y="430" type="line"/>
      <point x="185" y="0" type="line"/>
    </contour>
  </outline>
</glyph>
<glyph name="m" format="1">
  <advance width="805"/>
  <unicode hex="006D"/>
  <outline>
    <contour>
      <point x="75" y="0" type="line"/>
      <point x="75" y="500" type="line"/>
      <point x="145" y="500" type="line"/>
      <point x="155" y="440" type="line"/>
      <point x="160" y="440" type="line"/>
      <point x="171" y="453"/>
      <point x="183" y="464"/>
      <point x="196" y="475" type="curve" smooth="yes"/>
      <point x="219" y="492"/>
      <point x="252" y="510"/>
      <point x="295" y="510" type="curve" smooth="yes"/>
      <point x="342" y="510"/>
      <point x="375" y="492"/>
      <point x="396" y="475" type="curve" smooth="yes"/>
      <point x="408" y="464"/>
      <point x="418" y="453"/>
      <point x="425" y="440" type="curve"/>
      <point x="437" y="453"/>
      <point x="451" y="464"/>
      <point x="466" y="475" type="curve" smooth="yes"/>
      <point x="493" y="492"/>
      <point x="530" y="510"/>
      <point x="575" y="510" type="curve" smooth="yes"/>
      <point x="665" y="510"/>
      <point x="735" y="440"/>
      <point x="735" y="340" type="curve" smooth="yes"/>
      <point x="735" y="0" type="line"/>
      <point x="635" y="0" type="line"/>
      <point x="635" y="340" type="line" smooth="yes"/>
      <point x="635" y="396"/>
      <point x="595" y="435"/>
      <point x="550" y="435" type="curve" smooth="yes"/>
      <point x="525" y="435"/>
      <point x="501" y="422"/>
      <point x="484" y="410" type="curve" smooth="yes"/>
      <point x="473" y="403"/>
      <point x="464" y="394"/>
      <point x="455" y="385" type="curve"/>
      <point x="455" y="0" type="line"/>
      <point x="355" y="0" type="line"/>
      <point x="355" y="340" type="line" smooth="yes"/>
      <point x="355" y="396"/>
      <point x="315" y="435"/>
      <point x="270" y="435" type="curve" smooth="yes"/>
      <point x="245" y="435"/>
      <point x="221" y="420"/>
      <point x="204" y="405" type="curve" smooth="yes"/>
      <point x="193" y="396"/>
      <point x="184" y="386"/>
      <point x="175" y="375" type="curve"/>
      <point x="175" y="0" type="line"/>
    </contour>
  </outline>
</glyph>
<glyph name="n" format="1">
  <advance width="545"/>
  <unicode hex="006E"/>
  <outline>
    <contour>
      <point x="75" y="0" type="line"/>
      <point x="75" y="500" type="line"/>
      <point x="145" y="500" type="line"/>
      <point x="155" y="440" type="line"/>
      <point x="160" y="440" type="line"/>
      <point x="169" y="453"/>
      <point x="181" y="464"/>
      <point x="195" y="475" type="curve" smooth="yes"/>
      <point x="219" y="492"/>
      <point x="254" y="510"/>
      <point x="305" y="510" type="curve" smooth="yes"/>
      <point x="405" y="510"/>
      <point x="475" y="440"/>
      <point x="475" y="340" type="curve" smooth="yes"/>
      <point x="475" y="0" type="line"/>
      <point x="375" y="0" type="line"/>
      <point x="375" y="340" type="line" smooth="yes"/>
      <point x="375" y="396"/>
      <point x="336" y="435"/>
      <point x="280" y="435" type="curve" smooth="yes"/>
      <point x="249" y="435"/>
      <point x="224" y="420"/>
      <point x="205" y="405" type="curve" smooth="yes"/>
      <point x="194" y="396"/>
      <point x="184" y="386"/>
      <point x="175" y="375" type="curve"/>
      <point x="175" y="0" type="line"/>
    </contour>
  </outline>
</glyph>
<glyph name="s" format="1">
  <advance width="460"/>
  <unicode hex="0073"/>
  <outline>
    <contour>
      <point x="220" y="-10" type="curve" smooth="yes"/>
      <point x="160" y="-10"/>
      <point x="113" y="2"/>
      <point x="82" y="17" type="curve" smooth="yes"/>
      <point x="64" y="25"/>
      <point x="48" y="34"/>
      <point x="35" y="45" type="curve"/>
      <point x="70" y="105" type="line"/>
      <point x="80" y="105" type="line"/>
      <point x="90" y="96"/>
      <point x="102" y="89"/>
      <point x="115" y="82" type="curve" smooth="yes"/>
      <point x="138" y="71"/>
      <point x="170" y="60"/>
      <point x="210" y="60" type="curve" smooth="yes"/>
      <point x="295" y="60"/>
      <point x="325" y="90"/>
      <point x="325" y="130" type="curve" smooth="yes"/>
      <point x="325" y="240"/>
      <point x="45" y="195"/>
      <point x="45" y="365" type="curve" smooth="yes"/>
      <point x="45" y="450"/>
      <point x="104" y="510"/>
      <point x="235" y="510" type="curve" smooth="yes"/>
      <point x="291" y="510"/>
      <point x="333" y="497"/>
      <point x="364" y="482" type="curve" smooth="yes"/>
      <point x="381" y="474"/>
      <point x="397" y="465"/>
      <point x="410" y="455" type="curve"/>
      <point x="375" y="395" type="line"/>
      <point x="365" y="395" type="line"/>
      <point x="354" y="403"/>
      <point x="343" y="410"/>
      <point x="331" y="417" type="curve" smooth="yes"/>
      <point x="310" y="428"/>
      <point x="280" y="440"/>
      <point x="245" y="440" type="curve" smooth="yes"/>
      <point x="174" y="440"/>
      <point x="145" y="410"/>
      <point x="145" y="375" type="curve" smooth="yes"/>
      <point x="145" y="266"/>
      <point x="425" y="309"/>
      <point x="425" y="140" type="curve" smooth="yes"/>
      <point x="425" y="50"/>
      <point x="365" y="-10"/>
    </contour>
  </outline>
</glyph>
<glyph name="t" format="1">
  <advance width="400"/>
  <unicode hex="0074"/>
  <outline>
    <contour>
      <point x="260" y="-10" type="curve" smooth="yes"/>
      <point x="160" y="-10"/>
      <point x="95" y="54"/>
      <point x="95" y="150" type="curve" smooth="yes"/>
      <point x="95" y="430" type="line"/>
      <point x="20" y="430" type="line"/>
      <point x="20" y="490" type="line"/>
      <point x="150" y="620" type="line"/>
      <point x="195" y="620" type="line"/>
      <point x="195" y="500" type="line"/>
      <point x="320" y="500" type="line"/>
      <point x="320" y="430" type="line"/>
      <point x="195" y="430" type="line"/>
      <point x="195" y="150" type="line" smooth="yes"/>
      <point x="195" y="90"/>
      <point x="225" y="60"/>
      <point x="270" y="60" type="curve" smooth="yes"/>
      <point x="293" y="60"/>
      <point x="313" y="69"/>
      <point x="329" y="80" type="curve" smooth="yes"/>
      <point x="338" y="86"/>
      <point x="347" y="93"/>
      <point x="355" y="100" type="curve"/>
      <point x="365" y="100" type="line"/>
      <point x="400" y="40" type="line"/>
      <point x="388" y="31"/>
      <point x="375" y="22"/>
      <point x="360" y="15" type="curve" smooth="yes"/>
      <point x="335" y="2"/>
      <point x="300" y="-10"/>
    </contour>
  </outline>
</glyph>
<glyph name="v" format="1">
  <advance width="470"/>
  <unicode hex="0076"/>
  <outline>
    <contour>
      <point x="185" y="0" type="line"/>
      <point x="25" y="500" type="line"/>
      <point x="115" y="500" type="line"/>
      <point x="220" y="170" type="line" smooth="yes"/>
      <point x="225" y="155"/>
      <point x="227" y="139"/>
      <point x="230" y="124" type="curve" smooth="yes"/>
      <point x="233" y="100" type="line"/>
      <point x="237" y="100" type="line"/>
      <point x="240" y="124" type="line" smooth="yes"/>
      <point x="243" y="139"/>
      <point x="245" y="155"/>
      <point x="250" y="170" type="curve" smooth="yes"/>
      <point x="355" y="500" type="line"/>
      <point x="438" y="500" type="line"/>
      <point x="278" y="0" type="line"/>
    </contour>
  </outline>
</glyph>
<glyph name="y" format="1">
  <advance width="475"/>
  <unicode hex="0079"/>
  <outline>
    <contour>
      <point x="135" y="-210" type="curve" smooth="yes"/>
      <point x="104" y="-210"/>
      <point x="79" y="-203"/>
      <point x="62" y="-195" type="curve" smooth="yes"/>
      <point x="51" y="-191"/>
      <point x="42" y="-186"/>
      <point x="35" y="-180" type="curve"/>
      <point x="60" y="-115" type="line"/>
      <point x="70" y="-115" type="line"/>
      <point x="75" y="-120"/>
      <point x="80" y="-125"/>
      <point x="86" y="-128" type="curve" smooth="yes"/>
      <point x="97" y="-135"/>
      <point x="110" y="-140"/>
      <point x="125" y="-140" type="curve" smooth="yes"/>
      <point x="160" y="-140"/>
      <point x="189" y="-110"/>
      <point x="200" y="-70" type="curve" smooth="yes"/>
      <point x="220" y="0" type="line"/>
      <point x="190" y="0" type="line"/>
      <point x="19" y="500" type="line"/>
      <point x="115" y="500" type="line"/>
      <point x="225" y="170" type="line" smooth="yes"/>
      <point x="230" y="155"/>
      <point x="235" y="135"/>
      <point x="239" y="119" type="curve" smooth="yes"/>
      <point x="242" y="110"/>
      <point x="244" y="100"/>
      <point x="246" y="90" type="curve"/>
      <point x="250" y="90" type="line"/>
      <point x="251" y="100"/>
      <point x="253" y="110"/>
      <point x="256" y="119" type="curve" smooth="yes"/>
      <point x="269" y="170" type="line"/>
      <point x="360" y="500" type="line"/>
      <point x="460" y="500" type="line"/>
      <point x="300" y="-70" type="line" smooth="yes"/>
      <point x="277" y="-150"/>
      <point x="220" y="-210"/>
    </contour>
  </outline>
</glyph>
<glyph name="braceleft" format="1">
  <advance width="325"/>
  <unicode hex="007B"/>
  <outline>
    <contour>
      <point x="280" y="-170" type="line" smooth="yes"/>
      <point x="175" y="-170"/>
      <point x="115" y="-110"/>
      <point x="115" y="-30" type="curve" smooth="yes"/>
      <point x="115" y="150" type="line" smooth="yes"/>
      <point x="115" y="221"/>
      <point x="91" y="245"/>
      <point x="40" y="245" type="curve"/>
      <point x="40" y="315" type="line"/>
      <point x="91" y="315"/>
      <point x="115" y="339"/>
      <point x="115" y="410" type="curve" smooth="yes"/>
      <point x="115" y="590" type="line" smooth="yes"/>
      <point x="115" y="670"/>
      <point x="175" y="730"/>
      <point x="280" y="730" type="curve" smooth="yes"/>
      <point x="315" y="730" type="line"/>
      <point x="315" y="660" type="line"/>
      <point x="280" y="660" type="line" smooth="yes"/>
      <point x="240" y="660"/>
      <point x="215" y="635"/>
      <point x="215" y="590" type="curve" smooth="yes"/>
      <point x="215" y="410" type="line" smooth="yes"/>
      <point x="215" y="350"/>
      <point x="195" y="317"/>
      <point x="175" y="300" type="curve" smooth="yes"/>
      <point x="163" y="289"/>
      <point x="150" y="283"/>
      <point x="135" y="280" type="curve"/>
      <point x="150" y="277"/>
      <point x="163" y="270"/>
      <point x="175" y="260" type="curve" smooth="yes"/>
      <point x="195" y="241"/>
      <point x="215" y="210"/>
      <point x="215" y="150" type="curve" smooth="yes"/>
      <point x="215" y="-30" type="line" smooth="yes"/>
      <point x="215" y="-75"/>
      <point x="240" y="-100"/>
      <point x="280" y="-100" type="curve" smooth="yes"/>
      <point x="315" y="-100" type="line"/>
      <point x="315" y="-170" type="line"/>
    </contour>
  </outline>
</glyph>
<glyph name="braceright" format="1">
  <advance width="325"/>
  <unicode hex="007D"/>
  <outline>
    <contour>
      <point x="10" y="-170" type="line"/>
      <point x="10" y="-100" type="line"/>
      <point x="45" y="-100" type="line" smooth="yes"/>
      <point x="85" y="-100"/>
      <point x="110" y="-75"/>
      <point x="110" y="-30" type="curve" smooth="yes"/>
      <point x="110" y="150" type="line" smooth="yes"/>
      <point x="110" y="210"/>
      <point x="130" y="241"/>
      <point x="150" y="260" type="curve" smooth="yes"/>
      <point x="162" y="270"/>
      <point x="175" y="277"/>
      <point x="190" y="280" type="curve"/>
      <point x="175" y="283"/>
      <point x="162" y="289"/>
      <point x="150" y="300" type="curve" smooth="yes"/>
      <point x="130" y="317"/>
      <point x="110" y="350"/>
      <point x="110" y="410" type="curve" smooth="yes"/>
      <point x="110" y="590" type="line" smooth="yes"/>
      <point x="110" y="635"/>
      <point x="85" y="660"/>
      <point x="45" y="660" type="curve" smooth="yes"/>
      <point x="10" y="660" type="line"/>
      <point x="10" y="730" type="line"/>
      <point x="45" y="730" type="line" smooth="yes"/>
      <point x="150" y="730"/>
      <point x="210" y="670"/>
      <point x="210" y="590" type="curve" smooth="yes"/>
      <point x="210" y="410" type="line" smooth="yes"/>
      <point x="210" y="339"/>
      <point x="234" y="315"/>
      <point x="285" y="315" type="curve"/>
      <point x="285" y="245" type="line"/>
      <point x="234" y="245"/>
      <point x="210" y="221"/>
      <point x="210" y="150" type="curve" smooth="yes"/>
      <point x="210" y="-30" type="line" smooth="yes"/>
      <point x="210" y="-110"/>
      <point x="150" y="-170"/>
      <point x="45" y="-170" type="curve" smooth="yes"/>
    </contour>
  </outline>
</glyph>
<glyph name="asciitilde" format="1">
  <advance width="490"/>
  <unicode hex="007E"/>
  <outline>
    <contour>
      <point x="330" y="245" type="curve" smooth="yes"/>
      <point x="250" y="245"/>
      <point x="220" y="310"/>
      <point x="160" y="310" type="curve" smooth="yes"/>
      <point x="114" y="310"/>
      <point x="89" y="255"/>
      <point x="89" y="255" type="curve"/>
      <point x="80" y="255" type="line"/>
      <point x="25" y="305" type="line"/>
      <point x="41" y="350"/>
      <point x="90" y="400"/>
      <point x="160" y="400" type="curve" smooth="yes"/>
      <point x="241" y="400"/>
      <point x="269" y="335"/>
      <point x="330" y="335" type="curve" smooth="yes"/>
      <point x="376" y="335"/>
      <point x="401" y="390"/>
      <point x="401" y="390" type="curve"/>
      <point x="410" y="390" type="line"/>
      <point x="465" y="340" type="line"/>
      <point x="449" y="295"/>
      <point x="400" y="245"/>
    </contour>
  </outline>
</glyph>
<glyph name="exclamdown" format="1">
  <advance width="290"/>
  <unicode hex="00A1"/>
  <outline>
    <contour>
      <point x="145" y="390" type="curve" smooth="yes"/>
      <point x="110" y="390"/>
      <point x="85" y="415"/>
      <point x="85" y="450" type="curve" smooth="yes"/>
      <point x="85" y="485"/>
      <point x="110" y="510"/>
      <point x="145" y="510" type="curve" smooth="yes"/>
      <point x="180" y="510"/>
      <point x="205" y="485"/>
      <point x="205" y="450" type="curve" smooth="yes"/>
      <point x="205" y="415"/>
      <point x="180" y="390"/>
    </contour>
    <contour>
      <point x="85" y="-200" type="line"/>
      <point x="105" y="320" type="line"/>
      <point x="185" y="320" type="line"/>
      <point x="205" y="-200" type="line"/>
    </contour>
  </outline>
</glyph>
<glyph name="cent" format="1">
  <advance width="455"/>
  <unicode hex="00A2"/>
  <outline>
    <contour>
      <point x="210" y="-70" type="line"/>
      <point x="210" y="-3" type="line"/>
      <point x="110" y="20"/>
      <point x="50" y="101"/>
      <point x="50" y="250" type="curve" smooth="yes"/>
      <point x="50" y="401"/>
      <point x="113" y="484"/>
      <point x="210" y="505" type="curve"/>
      <point x="210" y="560" type="line"/>
      <point x="310" y="560" type="line"/>
      <point x="310" y="505" type="line"/>
      <point x="345" y="498"/>
      <point x="374" y="486"/>
      <point x="394" y="475" type="curve" smooth="yes"/>
      <point x="406" y="468"/>
      <point x="416" y="462"/>
      <point x="425" y="455" type="curve"/>
      <point x="390" y="395" type="line"/>
      <point x="380" y="395" type="line"/>
      <point x="370" y="403"/>
      <point x="359" y="410"/>
      <point x="347" y="417" type="curve" smooth="yes"/>
      <point x="327" y="428"/>
      <point x="301" y="440"/>
      <point x="270" y="440" type="curve" smooth="yes"/>
      <point x="201" y="440"/>
      <point x="150" y="390"/>
      <point x="150" y="250" type="curve" smooth="yes"/>
      <point x="150" y="110"/>
      <point x="200" y="60"/>
      <point x="280" y="60" type="curve" smooth="yes"/>
      <point x="311" y="60"/>
      <point x="337" y="71"/>
      <point x="357" y="82" type="curve" smooth="yes"/>
      <point x="369" y="89"/>
      <point x="380" y="96"/>
      <point x="390" y="105" type="curve"/>
      <point x="400" y="105" type="line"/>
      <point x="435" y="45" type="line"/>
      <point x="425" y="38"/>
      <point x="414" y="30"/>
      <point x="401" y="23" type="curve" smooth="yes"/>
      <point x="378" y="11"/>
      <point x="349" y="-2"/>
      <point x="310" y="-7" type="curve"/>
      <point x="310" y="-70" type="line"/>
    </contour>
  </outline>
</glyph>
<glyph name="sterling" format="1">
  <advance width="475"/>
  <unicode hex="00A3"/>
  <outline>
    <contour>
      <point x="25" y="0" type="line"/>
      <point x="25" y="70" type="line"/>
      <point x="38" y="75"/>
      <point x="51" y="85"/>
      <point x="62" y="100" type="curve" smooth="yes"/>
      <point x="81" y="125"/>
      <point x="100" y="170"/>
      <point x="100" y="250" type="curve" smooth="yes"/>
      <point x="100" y="330" type="line"/>
      <point x="35" y="330" type="line"/>
      <point x="35" y="400" type="line"/>
      <point x="100" y="400" type="line"/>
      <point x="100" y="540" type="line" smooth="yes"/>
      <point x="100" y="636"/>
      <point x="175" y="710"/>
      <point x="275" y="710" type="curve" smooth="yes"/>
      <point x="331" y="710"/>
      <point x="371" y="697"/>
      <point x="399" y="682" type="curve" smooth="yes"/>
      <point x="415" y="674"/>
      <point x="429" y="665"/>
      <point x="440" y="655" type="curve"/>
      <point x="405" y="595" type="line"/>
      <point x="395" y="595" type="line"/>
      <point x="387" y="603"/>
      <point x="377" y="610"/>
      <point x="366" y="617" type="curve" smooth="yes"/>
      <point x="347" y="628"/>
      <point x="320" y="640"/>
      <point x="285" y="640" type="curve" smooth="yes"/>
      <point x="240" y="640"/>
      <point x="200" y="600"/>
      <point x="200" y="540" type="curve" smooth="yes"/>
      <point x="200" y="400" type="line"/>
      <point x="335" y="400" type="line"/>
      <point x="335" y="330" type="line"/>
      <point x="200" y="330" type="line"/>
      <point x="200" y="250" type="line" smooth="yes"/>
      <point x="200" y="174"/>
      <point x="182" y="131"/>
      <point x="165" y="104" type="curve" smooth="yes"/>
      <point x="154" y="89"/>
      <point x="143" y="77"/>
      <point x="130" y="70" type="curve"/>
      <point x="465" y="70" type="line"/>
      <point x="465" y="0" type="line"/>
    </contour>
  </outline>
</glyph>
<glyph name="currency" format="1">
  <advance width="575"/>
  <unicode hex="00A4"/>
  <outline>
    <contour>
      <point x="100" y="0" type="line"/>
      <point x="100" y="170" type="line"/>
      <point x="20" y="170" type="line"/>
      <point x="20" y="230" type="line"/>
      <point x="100" y="230" type="line"/>
      <point x="100" y="270" type="line"/>
      <point x="20" y="270" type="line"/>
      <point x="20" y="330" type="line"/>
      <point x="100" y="330" type="line"/>
      <point x="100" y="700" type="line"/>
      <point x="280" y="700" type="line" smooth="yes"/>
      <point x="451" y="700"/>
      <point x="530" y="621"/>
      <point x="530" y="480" type="curve" smooth="yes"/>
      <point x="530" y="349"/>
      <point x="451" y="270"/>
      <point x="280" y="270" type="curve" smooth="yes"/>
      <point x="200" y="270" type="line"/>
      <point x="200" y="230" type="line"/>
      <point x="450" y="230" type="line"/>
      <point x="450" y="170" type="line"/>
      <point x="200" y="170" type="line"/>
      <point x="200" y="0" type="line"/>
    </contour>
    <contour>
      <point x="200" y="330" type="line"/>
      <point x="280" y="330" type="line" smooth="yes"/>
      <point x="380" y="330"/>
      <point x="430" y="380"/>
      <point x="430" y="480" type="curve" smooth="yes"/>
      <point x="430" y="580"/>
      <point x="380" y="630"/>
      <point x="280" y="630" type="curve" smooth="yes"/>
      <point x="200" y="630" type="line"/>
    </contour>
  </outline>
</glyph>
<glyph name="yen" format="1">
  <advance width="530"/>
  <unicode hex="00A5"/>
  <outline>
    <contour>
      <point x="215" y="0" type="line"/>
      <point x="215" y="180" type="line"/>
      <point x="65" y="180" type="line"/>
      <point x="65" y="250" type="line"/>
      <point x="206" y="250" type="line"/>
      <point x="181" y="305" type="line"/>
      <point x="65" y="305" type="line"/>
      <point x="65" y="375" type="line"/>
      <point x="149" y="375" type="line"/>
      <point x="0" y="700" type="line"/>
      <point x="105" y="700" type="line"/>
      <point x="245" y="395" type="line" smooth="yes"/>
      <point x="250" y="382"/>
      <point x="255" y="368"/>
      <point x="258" y="356" type="curve" smooth="yes"/>
      <point x="260" y="349"/>
      <point x="262" y="342"/>
      <point x="263" y="335" type="curve"/>
      <point x="267" y="335" type="line"/>
      <point x="268" y="342"/>
      <point x="270" y="349"/>
      <point x="272" y="356" type="curve" smooth="yes"/>
      <point x="275" y="368"/>
      <point x="278" y="382"/>
      <point x="285" y="395" type="curve" smooth="yes"/>
      <point x="425" y="700" type="line"/>
      <point x="530" y="700" type="line"/>
      <point x="381" y="375" type="line"/>
      <point x="465" y="375" type="line"/>
      <point x="465" y="305" type="line"/>
      <point x="349" y="305" type="line"/>
      <point x="324" y="250" type="line"/>
      <point x="465" y="250" type="line"/>
      <point x="465" y="180" type="line"/>
      <point x="315" y="180" type="line"/>
      <point x="315" y="0" type="line"/>
    </contour>
  </outline>
</glyph>
<glyph name="brokenbar" format="1">
  <advance width="280"/>
  <unicode hex="00A6"/>
  <outline>
    <contour>
      <point x="90" y="320" type="line"/>
      <point x="90" y="700" type="line"/>
      <point x="190" y="700" type="line"/>
      <point x="190" y="320" type="line"/>
    </contour>
    <contour>
      <point x="90" y="-200" type="line"/>
      <point x="90" y="180" type="line"/>
      <point x="190" y="180" type="line"/>
      <point x="190" y="-200" type="line"/>
    </contour>
  </outline>
</glyph>
<glyph name="section" format="1">
  <advance width="510"/>
  <unicode hex="00A7"/>
  <outline>
    <contour>
      <point x="240" y="-210" type="curve" smooth="yes"/>
      <point x="180" y="-210"/>
      <point x="133" y="-198"/>
      <point x="102" y="-183" type="curve" smooth="yes"/>
      <point x="84" y="-175"/>
      <point x="68" y="-166"/>
      <point x="55" y="-155" type="curve"/>
      <point x="90" y="-95" type="line"/>
      <point x="100" y="-95" type="line"/>
      <point x="110" y="-104"/>
      <point x="122" y="-111"/>
      <point x="135" y="-118" type="curve" smooth="yes"/>
      <point x="158" y="-129"/>
      <point x="190" y="-140"/>
      <point x="230" y="-140" type="curve" smooth="yes"/>
      <point x="315" y="-140"/>
      <point x="355" y="-100"/>
      <point x="355" y="-40" type="curve" smooth="yes"/>
      <point x="355" y="100"/>
      <point x="45" y="55"/>
      <point x="45" y="265" type="curve" smooth="yes"/>
      <point x="45" y="329"/>
      <point x="71" y="380"/>
      <point x="120" y="411" type="curve"/>
      <point x="81" y="438"/>
      <point x="55" y="475"/>
      <point x="55" y="535" type="curve" smooth="yes"/>
      <point x="55" y="640"/>
      <point x="124" y="710"/>
      <point x="265" y="710" type="curve" smooth="yes"/>
      <point x="321" y="710"/>
      <point x="363" y="697"/>
      <point x="394" y="682" type="curve" smooth="yes"/>
      <point x="411" y="674"/>
      <point x="427" y="665"/>
      <point x="440" y="655" type="curve"/>
      <point x="405" y="595" type="line"/>
      <point x="395" y="595" type="line"/>
      <point x="384" y="603"/>
      <point x="373" y="610"/>
      <point x="361" y="617" type="curve" smooth="yes"/>
      <point x="340" y="628"/>
      <point x="310" y="640"/>
      <point x="275" y="640" type="curve" smooth="yes"/>
      <point x="195" y="640"/>
      <point x="155" y="601"/>
      <point x="155" y="545" type="curve" smooth="yes"/>
      <point x="155" y="406"/>
      <point x="465" y="450"/>
      <point x="465" y="240" type="curve" smooth="yes"/>
      <point x="465" y="173"/>
      <point x="441" y="123"/>
      <point x="392" y="92" type="curve"/>
      <point x="429" y="65"/>
      <point x="455" y="29"/>
      <point x="455" y="-30" type="curve" smooth="yes"/>
      <point x="455" y="-141"/>
      <point x="385" y="-210"/>
    </contour>
    <contour>
      <point x="305" y="140" type="curve"/>
      <point x="345" y="155"/>
      <point x="370" y="190"/>
      <point x="370" y="230" type="curve" smooth="yes"/>
      <point x="370" y="304"/>
      <point x="289" y="341"/>
      <point x="210" y="365" type="curve"/>
      <point x="170" y="350"/>
      <point x="145" y="315"/>
      <point x="145" y="275" type="curve" smooth="yes"/>
      <point x="145" y="201"/>
      <point x="224" y="164"/>
    </contour>
  </outline>
</glyph>
<glyph name="dieresis" format="1">
  <advance width="305"/>
  <unicode hex="00A8"/>
  <outline>
    <contour>
      <point x="65" y="565" type="curve" smooth="yes"/>
      <point x="33" y="565"/>
      <point x="10" y="588"/>
      <point x="10" y="620" type="curve" smooth="yes"/>
      <point x="10" y="652"/>
      <point x="33" y="675"/>
      <point x="65" y="675" type="curve" smooth="yes"/>
      <point x="97" y="675"/>
      <point x="120" y="652"/>
      <point x="120" y="620" type="curve" smooth="yes"/>
      <point x="120" y="588"/>
      <point x="97" y="565"/>
    </contour>
    <contour>
      <point x="240" y="565" type="curve" smooth="yes"/>
      <point x="208" y="565"/>
      <point x="185" y="588"/>
      <point x="185" y="620" type="curve" smooth="yes"/>
      <point x="185" y="652"/>
      <point x="208" y="675"/>
      <point x="240" y="675" type="curve" smooth="yes"/>
      <point x="272" y="675"/>
      <point x="295" y="652"/>
      <point x="295" y="620" type="curve" smooth="yes"/>
      <point x="295" y="588"/>
      <point x="272" y="565"/>
    </contour>
  </outline>
</glyph>
<glyph name="copyright" format="1">
  <advance width="860"/>
  <unicode hex="00A9"/>
  <outline>
    <contour>
      <point x="430" y="-30" type="curve" smooth="yes"/>
      <point x="200" y="-30"/>
      <point x="40" y="130"/>
      <point x="40" y="350" type="curve" smooth="yes"/>
      <point x="40" y="570"/>
      <point x="200" y="730"/>
      <point x="430" y="730" type="curve" smooth="yes"/>
      <point x="660" y="730"/>
      <point x="820" y="570"/>
      <point x="820" y="350" type="curve" smooth="yes"/>
      <point x="820" y="130"/>
      <point x="660" y="-30"/>
    </contour>
    <contour>
      <point x="430" y="40" type="curve" smooth="yes"/>
      <point x="600" y="40"/>
      <point x="730" y="170"/>
      <point x="730" y="350" type="curve" smooth="yes"/>
      <point x="730" y="530"/>
      <point x="600" y="660"/>
      <point x="430" y="660" type="curve" smooth="yes"/>
      <point x="260" y="660"/>
      <point x="130" y="530"/>
      <point x="130" y="350" type="curve" smooth="yes"/>
      <point x="130" y="170"/>
      <point x="260" y="40"/>
    </contour>
    <contour>
      <point x="445" y="125" type="curve" smooth="yes"/>
      <point x="324" y="125"/>
      <point x="250" y="199"/>
      <point x="250" y="350" type="curve" smooth="yes"/>
      <point x="250" y="500"/>
      <point x="326" y="575"/>
      <point x="435" y="575" type="curve" smooth="yes"/>
      <point x="478" y="575"/>
      <point x="515" y="562"/>
      <point x="540" y="550" type="curve" smooth="yes"/>
      <point x="555" y="543"/>
      <point x="568" y="534"/>
      <point x="580" y="525" type="curve"/>
      <point x="550" y="475" type="line"/>
      <point x="541" y="475" type="line"/>
      <point x="532" y="481"/>
      <point x="523" y="487"/>
      <point x="512" y="492" type="curve" smooth="yes"/>
      <point x="493" y="501"/>
      <point x="470" y="510"/>
      <point x="445" y="510" type="curve" smooth="yes"/>
      <point x="385" y="510"/>
      <point x="340" y="465"/>
      <point x="340" y="350" type="curve" smooth="yes"/>
      <point x="340" y="235"/>
      <point x="384" y="190"/>
      <point x="455" y="190" type="curve" smooth="yes"/>
      <point x="480" y="190"/>
      <point x="503" y="198"/>
      <point x="522" y="207" type="curve" smooth="yes"/>
      <point x="533" y="212"/>
      <point x="542" y="218"/>
      <point x="551" y="225" type="curve"/>
      <point x="560" y="225" type="line"/>
      <point x="590" y="175" type="line"/>
      <point x="578" y="166"/>
      <point x="565" y="157"/>
      <point x="550" y="150" type="curve" smooth="yes"/>
      <point x="525" y="137"/>
      <point x="488" y="125"/>
    </contour>
  </outline>
</glyph>
<glyph name="ordfeminine" format="1">
  <advance width="360"/>
  <unicode hex="00AA"/>
  <outline>
    <contour>
      <point x="156" y="350" type="curve" smooth="yes"/>
      <point x="80" y="350"/>
      <point x="35" y="395"/>
      <point x="35" y="455" type="curve" smooth="yes"/>
      <point x="35" y="520"/>
      <point x="79" y="565"/>
      <point x="190" y="565" type="curve" smooth="yes"/>
      <point x="235" y="565" type="line"/>
      <point x="235" y="590" type="line" smooth="yes"/>
      <point x="235" y="625"/>
      <point x="210" y="650"/>
      <point x="170" y="650" type="curve" smooth="yes"/>
      <point x="145" y="650"/>
      <point x="126" y="642"/>
      <point x="114" y="635" type="curve" smooth="yes"/>
      <point x="107" y="630"/>
      <point x="100" y="625"/>
      <point x="95" y="620" type="curve"/>
      <point x="85" y="620" type="line"/>
      <point x="59" y="665" type="line"/>
      <point x="68" y="673"/>
      <point x="79" y="680"/>
      <point x="92" y="687" type="curve" smooth="yes"/>
      <point x="113" y="698"/>
      <point x="145" y="710"/>
      <point x="185" y="710" type="curve" smooth="yes"/>
      <point x="276" y="710"/>
      <point x="325" y="661"/>
      <point x="325" y="590" type="curve" smooth="yes"/>
      <point x="325" y="360" type="line"/>
      <point x="256" y="360" type="line"/>
      <point x="250" y="400" type="line"/>
      <point x="245" y="400" type="line"/>
      <point x="239" y="391"/>
      <point x="232" y="382"/>
      <point x="223" y="375" type="curve" smooth="yes"/>
      <point x="208" y="362"/>
      <point x="185" y="350"/>
    </contour>
    <contour>
      <point x="175" y="410" type="curve" smooth="yes"/>
      <point x="192" y="410"/>
      <point x="207" y="417"/>
      <point x="218" y="425" type="curve" smooth="yes"/>
      <point x="225" y="429"/>
      <point x="230" y="434"/>
      <point x="235" y="440" type="curve"/>
      <point x="235" y="505" type="line"/>
      <point x="190" y="505" type="line" smooth="yes"/>
      <point x="145" y="505"/>
      <point x="125" y="486"/>
      <point x="125" y="455" type="curve" smooth="yes"/>
      <point x="125" y="430"/>
      <point x="144" y="410"/>
    </contour>
  </outline>
</glyph>
<glyph name="guillemotleft" format="1">
  <advance width="475"/>
  <unicode hex="00AB"/>
  <outline>
    <contour>
      <point x="225" y="0" type="line"/>
      <point x="10" y="250" type="line"/>
      <point x="225" y="500" type="line"/>
      <point x="290" y="440" type="line"/>
      <point x="130" y="250" type="line"/>
      <point x="290" y="60" type="line"/>
    </contour>
    <contour>
      <point x="390" y="35" type="line"/>
      <point x="205" y="250" type="line"/>
      <point x="390" y="465" type="line"/>
      <point x="455" y="405" type="line"/>
      <point x="325" y="250" type="line"/>
      <point x="455" y="95" type="line"/>
    </contour>
  </outline>
</glyph>
<glyph name="logicalnot" format="1">
  <advance width="460"/>
  <unicode hex="00AC"/>
  <outline>
    <contour>
      <point x="340" y="240" type="line"/>
      <point x="340" y="330" type="line"/>
      <point x="30" y="330" type="line"/>
      <point x="30" y="410" type="line"/>
      <point x="430" y="410" type="line"/>
      <point x="430" y="240" type="line"/>
    </contour>
  </outline>
</glyph>
<glyph name="uni00AD" format="1">
  <advance width="440"/>
  <unicode hex="00AD"/>
  <outline>
    <contour>
      <point x="30" y="290" type="line"/>
      <point x="30" y="370" type="line"/>
      <point x="410" y="370" type="line"/>
      <point x="410" y="290" type="line"/>
    </contour>
  </outline>
</glyph>
<glyph name="registered" format="1">
  <advance width="860"/>
  <unicode hex="00AE"/>
  <outline>
    <contour>
      <point x="430" y="-30" type="curve" smooth="yes"/>
      <point x="200" y="-30"/>
      <point x="40" y="130"/>
      <point x="40" y="350" type="curve" smooth="yes"/>
      <point x="40" y="570"/>
      <point x="200" y="730"/>
      <point x="430" y="730" type="curve" smooth="yes"/>
      <point x="660" y="730"/>
      <point x="820" y="570"/>
      <point x="820" y="350" type="curve" smooth="yes"/>
      <point x="820" y="130"/>
      <point x="660" y="-30"/>
    </contour>
    <contour>
      <point x="430" y="40" type="curve" smooth="yes"/>
      <point x="600" y="40"/>
      <point x="730" y="170"/>
      <point x="730" y="350" type="curve" smooth="yes"/>
      <point x="730" y="530"/>
      <point x="600" y="660"/>
      <point x="430" y="660" type="curve" smooth="yes"/>
      <point x="260" y="660"/>
      <point x="130" y="530"/>
      <point x="130" y="350" type="curve" smooth="yes"/>
      <point x="130" y="170"/>
      <point x="260" y="40"/>
    </contour>
    <contour>
      <point x="280" y="135" type="line"/>
      <point x="280" y="565" type="line"/>
      <point x="426" y="565" type="line" smooth="yes"/>
      <point x="551" y="565"/>
      <point x="606" y="510"/>
      <point x="606" y="425" type="curve" smooth="yes"/>
      <point x="606" y="360"/>
      <point x="567" y="315"/>
      <point x="516" y="300" type="curve"/>
      <point x="616" y="135" type="line"/>
      <point x="521" y="135" type="line"/>
      <point x="431" y="285" type="line"/>
      <point x="370" y="285" type="line"/>
      <point x="370" y="135" type="line"/>
    </contour>
    <contour>
      <point x="370" y="350" type="line"/>
      <point x="426" y="350" type="line" smooth="yes"/>
      <point x="491" y="350"/>
      <point x="516" y="374"/>
      <point x="516" y="425" type="curve" smooth="yes"/>
      <point x="516" y="476"/>
      <point x="491" y="500"/>
      <point x="426" y="500" type="curve" smooth="yes"/>
      <point x="370" y="500" type="line"/>
    </contour>
  </outline>
</glyph>
<glyph name="macron" format="1">
  <advance width="310"/>
  <unicode hex="00AF"/>
  <outline>
    <contour>
      <point x="20" y="590" type="line"/>
      <point x="20" y="660" type="line"/>
      <point x="290" y="660" type="line"/>
      <point x="290" y="590" type="line"/>
    </contour>
  </outline>
</glyph>
<glyph name="degree" format="1">
  <advance width="380"/>
  <unicode hex="00B0"/>
  <outline>
    <contour>
      <point x="190" y="370" type="curve" smooth="yes"/>
      <point x="90" y="370"/>
      <point x="20" y="440"/>
      <point x="20" y="540" type="curve" smooth="yes"/>
      <point x="20" y="640"/>
      <point x="90" y="710"/>
      <point x="190" y="710" type="curve" smooth="yes"/>
      <point x="290" y="710"/>
      <point x="360" y="640"/>
      <point x="360" y="540" type="curve" smooth="yes"/>
      <point x="360" y="440"/>
      <point x="290" y="370"/>
    </contour>
    <contour>
      <point x="190" y="435" type="curve" smooth="yes"/>
      <point x="235" y="435"/>
      <point x="270" y="469"/>
      <point x="270" y="540" type="curve" smooth="yes"/>
      <point x="270" y="611"/>
      <point x="235" y="645"/>
      <point x="190" y="645" type="curve" smooth="yes"/>
      <point x="145" y="645"/>
      <point x="110" y="611"/>
      <point x="110" y="540" type="curve" smooth="yes"/>
      <point x="110" y="469"/>
      <point x="145" y="435"/>
    </contour>
  </outline>
</glyph>
<glyph name="plusminus" format="1">
  <advance width="490"/>
  <unicode hex="00B1"/>
  <outline>
    <contour>
      <point x="40" y="95" type="line"/>
      <point x="40" y="175" type="line"/>
      <point x="205" y="175" type="line"/>
      <point x="205" y="310" type="line"/>
      <point x="40" y="310" type="line"/>
      <point x="40" y="390" type="line"/>
      <point x="205" y="390" type="line"/>
      <point x="205" y="555" type="line"/>
      <point x="285" y="555" type="line"/>
      <point x="285" y="390" type="line"/>
      <point x="450" y="390" type="line"/>
      <point x="450" y="310" type="line"/>
      <point x="285" y="310" type="line"/>
      <point x="285" y="175" type="line"/>
      <point x="450" y="175" type="line"/>
      <point x="450" y="95" type="line"/>
    </contour>
  </outline>
</glyph>
<glyph name="uni00B2" format="1">
  <advance width="330"/>
  <unicode hex="00B2"/>
  <outline>
    <contour>
      <point x="35" y="360" type="line"/>
      <point x="35" y="400" type="line" smooth="yes"/>
      <point x="35" y="530"/>
      <point x="205" y="524"/>
      <point x="205" y="595" type="curve" smooth="yes"/>
      <point x="205" y="632"/>
      <point x="186" y="650"/>
      <point x="148" y="650" type="curve" smooth="yes"/>
      <point x="124" y="650"/>
      <point x="105" y="642"/>
      <point x="93" y="635" type="curve" smooth="yes"/>
      <point x="86" y="630"/>
      <point x="80" y="625"/>
      <point x="75" y="620" type="curve"/>
      <point x="65" y="620" type="line"/>
      <point x="39" y="665" type="line"/>
      <point x="48" y="673"/>
      <point x="59" y="680"/>
      <point x="72" y="687" type="curve" smooth="yes"/>
      <point x="93" y="698"/>
      <point x="125" y="710"/>
      <point x="165" y="710" type="curve" smooth="yes"/>
      <point x="245" y="710"/>
      <point x="295" y="660"/>
      <point x="295" y="595" type="curve" smooth="yes"/>
      <point x="295" y="479"/>
      <point x="125" y="481"/>
      <point x="125" y="420" type="curve"/>
      <point x="295" y="420" type="line"/>
      <point x="295" y="360" type="line"/>
    </contour>
  </outline>
</glyph>
<glyph name="uni00B3" format="1">
  <advance width="321"/>
  <unicode hex="00B3"/>
  <outline>
    <contour>
      <point x="146" y="350" type="curve" smooth="yes"/>
      <point x="106" y="350"/>
      <point x="74" y="361"/>
      <point x="53" y="372" type="curve" smooth="yes"/>
      <point x="40" y="379"/>
      <point x="29" y="386"/>
      <point x="20" y="395" type="curve"/>
      <point x="46" y="440" type="line"/>
      <point x="56" y="440" type="line"/>
      <point x="61" y="434"/>
      <point x="68" y="429"/>
      <point x="75" y="425" type="curve" smooth="yes"/>
      <point x="87" y="417"/>
      <point x="106" y="410"/>
      <point x="131" y="410" type="curve" smooth="yes"/>
      <point x="176" y="410"/>
      <point x="196" y="429"/>
      <point x="196" y="460" type="curve" smooth="yes"/>
      <point x="196" y="491"/>
      <point x="177" y="510"/>
      <point x="126" y="510" type="curve" smooth="yes"/>
      <point x="60" y="510" type="line"/>
      <point x="60" y="560" type="line"/>
      <point x="180" y="640" type="line"/>
      <point x="36" y="640" type="line"/>
      <point x="36" y="700" type="line"/>
      <point x="270" y="700" type="line"/>
      <point x="270" y="635" type="line"/>
      <point x="160" y="570" type="line"/>
      <point x="240" y="570"/>
      <point x="286" y="525"/>
      <point x="286" y="460" type="curve" smooth="yes"/>
      <point x="286" y="400"/>
      <point x="237" y="350"/>
    </contour>
  </outline>
</glyph>
<glyph name="acute" format="1">
  <advance width="175"/>
  <unicode hex="00B4"/>
  <outline>
    <contour>
      <point x="10" y="550" type="line"/>
      <point x="55" y="700" type="line"/>
      <point x="165" y="700" type="line"/>
      <point x="75" y="550" type="line"/>
    </contour>
  </outline>
</glyph>
<glyph name="mu" format="1">
  <advance width="550"/>
  <unicode hex="00B5"/>
  <outline>
    <contour>
      <point x="75" y="-200" type="line"/>
      <point x="75" y="500" type="line"/>
      <point x="175" y="500" type="line"/>
      <point x="175" y="160" type="line" smooth="yes"/>
      <point x="175" y="104"/>
      <point x="214" y="65"/>
      <point x="270" y="65" type="curve" smooth="yes"/>
      <point x="301" y="65"/>
      <point x="326" y="77"/>
      <point x="345" y="90" type="curve" smooth="yes"/>
      <point x="356" y="97"/>
      <point x="366" y="106"/>
      <point x="375" y="115" type="curve"/>
      <point x="375" y="500" type="line"/>
      <point x="475" y="500" type="line"/>
      <point x="475" y="0" type="line"/>
      <point x="405" y="0" type="line"/>
      <point x="395" y="50" type="line"/>
      <point x="390" y="50" type="line"/>
      <point x="379" y="39"/>
      <point x="366" y="29"/>
      <point x="353" y="20" type="curve" smooth="yes"/>
      <point x="330" y="5"/>
      <point x="297" y="-10"/>
      <point x="260" y="-10" type="curve" smooth="yes"/>
      <point x="235" y="-10"/>
      <point x="214" y="-3"/>
      <point x="199" y="5" type="curve" smooth="yes"/>
      <point x="190" y="9"/>
      <point x="182" y="14"/>
      <point x="175" y="20" type="curve"/>
      <point x="175" y="-170" type="line"/>
      <point x="145" y="-200" type="line"/>
    </contour>
  </outline>
</glyph>
<glyph name="paragraph" format="1">
  <advance width="565"/>
  <unicode hex="00B6"/>
  <outline>
    <contour>
      <point x="225" y="-200" type="line"/>
      <point x="225" y="290" type="line"/>
      <point x="116" y="290"/>
      <point x="25" y="380"/>
      <point x="25" y="495" type="curve" smooth="yes"/>
      <point x="25" y="610"/>
      <point x="116" y="700"/>
      <point x="225" y="700" type="curve" smooth="yes"/>
      <point x="555" y="700" type="line"/>
      <point x="555" y="630" type="line"/>
      <point x="475" y="630" type="line"/>
      <point x="475" y="-200" type="line"/>
      <point x="385" y="-200" type="line"/>
      <point x="385" y="630" type="line"/>
      <point x="315" y="630" type="line"/>
      <point x="315" y="-200" type="line"/>
    </contour>
  </outline>
</glyph>
<glyph name="periodcentered" format="1">
  <advance width="290"/>
  <unicode hex="00B7"/>
  <outline>
    <contour>
      <point x="145" y="290" type="curve" smooth="yes"/>
      <point x="110" y="290"/>
      <point x="85" y="315"/>
      <point x="85" y="350" type="curve" smooth="yes"/>
      <point x="85" y="385"/>
      <point x="110" y="410"/>
      <point x="145" y="410" type="curve" smooth="yes"/>
      <point x="180" y="410"/>
      <point x="205" y="385"/>
      <point x="205" y="350" type="curve" smooth="yes"/>
      <point x="205" y="315"/>
      <point x="180" y="290"/>
    </contour>
  </outline>
</glyph>
<glyph name="cedilla" format="1">
  <advance width="195"/>
  <unicode hex="00B8"/>
  <outline>
    <contour>
      <point x="90" y="-190" type="curve" smooth="yes"/>
      <point x="65" y="-190"/>
      <point x="46" y="-185"/>
      <point x="31" y="-180" type="curve" smooth="yes"/>
      <point x="23" y="-177"/>
      <point x="16" y="-174"/>
      <point x="10" y="-170" type="curve"/>
      <point x="26" y="-130" type="line"/>
      <point x="35" y="-130" type="line" smooth="yes"/>
      <point x="34" y="-130"/>
      <point x="55" y="-145"/>
      <point x="80" y="-145" type="curve" smooth="yes"/>
      <point x="105" y="-145"/>
      <point x="120" y="-130"/>
      <point x="120" y="-110" type="curve" smooth="yes"/>
      <point x="120" y="-90"/>
      <point x="106" y="-75"/>
      <point x="75" y="-75" type="curve" smooth="yes"/>
      <point x="35" y="-75" type="line"/>
      <point x="35" y="20" type="line"/>
      <point x="95" y="20" type="line"/>
      <point x="95" y="-30" type="line"/>
      <point x="151" y="-30"/>
      <point x="185" y="-65"/>
      <point x="185" y="-110" type="curve" smooth="yes"/>
      <point x="185" y="-155"/>
      <point x="150" y="-190"/>
    </contour>
  </outline>
</glyph>
<glyph name="uni00B9" format="1">
  <advance width="325"/>
  <unicode hex="00B9"/>
  <outline>
    <contour>
      <point x="50" y="360" type="line"/>
      <point x="50" y="420" type="line"/>
      <point x="125" y="420" type="line"/>
      <point x="125" y="610" type="line"/>
      <point x="65" y="575" type="line"/>
      <point x="35" y="620" type="line"/>
      <point x="130" y="700" type="line"/>
      <point x="215" y="700" type="line"/>
      <point x="215" y="420" type="line"/>
      <point x="290" y="420" type="line"/>
      <point x="290" y="360" type="line"/>
    </contour>
  </outline>
</glyph>
<glyph name="ordmasculine" format="1">
  <advance width="390"/>
  <unicode hex="00BA"/>
  <outline>
    <contour>
      <point x="195" y="350" type="curve" smooth="yes"/>
      <point x="99" y="350"/>
      <point x="35" y="414"/>
      <point x="35" y="530" type="curve" smooth="yes"/>
      <point x="35" y="646"/>
      <point x="99" y="710"/>
      <point x="195" y="710" type="curve" smooth="yes"/>
      <point x="291" y="710"/>
      <point x="355" y="646"/>
      <point x="355" y="530" type="curve" smooth="yes"/>
      <point x="355" y="414"/>
      <point x="291" y="350"/>
    </contour>
    <contour>
      <point x="195" y="410" type="curve" smooth="yes"/>
      <point x="235" y="410"/>
      <point x="265" y="439"/>
      <point x="265" y="530" type="curve" smooth="yes"/>
      <point x="265" y="619"/>
      <point x="235" y="650"/>
      <point x="195" y="650" type="curve" smooth="yes"/>
      <point x="155" y="650"/>
      <point x="125" y="619"/>
      <point x="125" y="530" type="curve" smooth="yes"/>
      <point x="125" y="439"/>
      <point x="155" y="410"/>
    </contour>
  </outline>
</glyph>
<glyph name="guillemotright" format="1">
  <advance width="475"/>
  <unicode hex="00BB"/>
  <outline>
    <contour>
      <point x="250" y="0" type="line"/>
      <point x="185" y="60" type="line"/>
      <point x="345" y="250" type="line"/>
      <point x="185" y="440" type="line"/>
      <point x="250" y="500" type="line"/>
      <point x="465" y="250" type="line"/>
    </contour>
    <contour>
      <point x="85" y="35" type="line"/>
      <point x="20" y="95" type="line"/>
      <point x="150" y="250" type="line"/>
      <point x="20" y="405" type="line"/>
      <point x="85" y="465" type="line"/>
      <point x="270" y="250" type="line"/>
    </contour>
  </outline>
</glyph>
<glyph name="onequarter" format="1">
  <advance width="760"/>
  <unicode hex="00BC"/>
  <outline>
    <contour>
      <point x="50" y="360" type="line"/>
      <point x="50" y="420" type="line"/>
      <point x="125" y="420" type="line"/>
      <point x="125" y="610" type="line"/>
      <point x="65" y="575" type="line"/>
      <point x="35" y="620" type="line"/>
      <point x="130" y="700" type="line"/>
      <point x="215" y="700" type="line"/>
      <point x="215" y="420" type="line"/>
      <point x="290" y="420" type="line"/>
      <point x="290" y="360" type="line"/>
    </contour>
    <contour>
      <point x="105" y="0" type="line"/>
      <point x="575" y="700" type="line"/>
      <point x="685" y="700" type="line"/>
      <point x="215" y="0" type="line"/>
    </contour>
    <contour>
      <point x="585" y="0" type="line"/>
      <point x="585" y="70" type="line"/>
      <point x="415" y="70" type="line"/>
      <point x="415" y="130" type="line"/>
      <point x="585" y="340" type="line"/>
      <point x="675" y="340" type="line"/>
      <point x="675" y="130" type="line"/>
      <point x="725" y="130" type="line"/>
      <point x="725" y="70" type="line"/>
      <point x="675" y="70" type="line"/>
      <point x="675" y="0" type="line"/>
    </contour>
    <contour>
      <point x="495" y="130" type="line"/>
      <point x="585" y="130" type="line"/>
      <point x="585" y="220" type="line" smooth="yes"/>
      <point x="585" y="229"/>
      <point x="586" y="238"/>
      <point x="588" y="247" type="curve" smooth="yes"/>
      <point x="591" y="263" type="line"/>
      <point x="587" y="263" type="line"/>
      <point x="586" y="257"/>
      <point x="584" y="251"/>
      <point x="581" y="246" type="curve" smooth="yes"/>
      <point x="577" y="237"/>
      <point x="572" y="225"/>
      <point x="568" y="220" type="curve" smooth="yes"/>
    </contour>
  </outline>
</glyph>
<glyph name="onehalf" format="1">
  <advance width="750"/>
  <unicode hex="00BD"/>
  <outline>
    <contour>
      <point x="50" y="360" type="line"/>
      <point x="50" y="420" type="line"/>
      <point x="125" y="420" type="line"/>
      <point x="125" y="610" type="line"/>
      <point x="65" y="575" type="line"/>
      <point x="35" y="620" type="line"/>
      <point x="130" y="700" type="line"/>
      <point x="215" y="700" type="line"/>
      <point x="215" y="420" type="line"/>
      <point x="290" y="420" type="line"/>
      <point x="290" y="360" type="line"/>
    </contour>
    <contour>
      <point x="105" y="0" type="line"/>
      <point x="575" y="700" type="line"/>
      <point x="685" y="700" type="line"/>
      <point x="215" y="0" type="line"/>
    </contour>
    <contour>
      <point x="455" y="0" type="line"/>
      <point x="455" y="40" type="line" smooth="yes"/>
      <point x="455" y="170"/>
      <point x="625" y="164"/>
      <point x="625" y="235" type="curve" smooth="yes"/>
      <point x="625" y="272"/>
      <point x="606" y="290"/>
      <point x="568" y="290" type="curve" smooth="yes"/>
      <point x="544" y="290"/>
      <point x="525" y="282"/>
      <point x="513" y="275" type="curve" smooth="yes"/>
      <point x="506" y="270"/>
      <point x="500" y="265"/>
      <point x="495" y="260" type="curve"/>
      <point x="485" y="260" type="line"/>
      <point x="459" y="305" type="line"/>
      <point x="468" y="313"/>
      <point x="479" y="320"/>
      <point x="492" y="327" type="curve" smooth="yes"/>
      <point x="513" y="338"/>
      <point x="545" y="350"/>
      <point x="585" y="350" type="curve" smooth="yes"/>
      <point x="665" y="350"/>
      <point x="715" y="300"/>
      <point x="715" y="235" type="curve" smooth="yes"/>
      <point x="715" y="119"/>
      <point x="545" y="121"/>
      <point x="545" y="60" type="curve"/>
      <point x="715" y="60" type="line"/>
      <point x="715" y="0" type="line"/>
    </contour>
  </outline>
</glyph>
<glyph name="threequarters" format="1">
  <advance width="750"/>
  <unicode hex="00BE"/>
  <outline>
    <contour>
      <point x="161" y="350" type="curve" smooth="yes"/>
      <point x="121" y="350"/>
      <point x="89" y="361"/>
      <point x="68" y="372" type="curve" smooth="yes"/>
      <point x="55" y="379"/>
      <point x="44" y="386"/>
      <point x="35" y="395" type="curve"/>
      <point x="61" y="440" type="line"/>
      <point x="71" y="440" type="line"/>
      <point x="76" y="434"/>
      <point x="83" y="429"/>
      <point x="90" y="425" type="curve" smooth="yes"/>
      <point x="102" y="417"/>
      <point x="121" y="410"/>
      <point x="146" y="410" type="curve" smooth="yes"/>
      <point x="191" y="410"/>
      <point x="211" y="429"/>
      <point x="211" y="460" type="curve" smooth="yes"/>
      <point x="211" y="491"/>
      <point x="192" y="510"/>
      <point x="141" y="510" type="curve" smooth="yes"/>
      <point x="75" y="510" type="line"/>
      <point x="75" y="560" type="line"/>
      <point x="195" y="640" type="line"/>
      <point x="51" y="640" type="line"/>
      <point x="51" y="700" type="line"/>
      <point x="285" y="700" type="line"/>
      <point x="285" y="635" type="line"/>
      <point x="175" y="570" type="line"/>
      <point x="255" y="570"/>
      <point x="301" y="525"/>
      <point x="301" y="460" type="curve" smooth="yes"/>
      <point x="301" y="400"/>
      <point x="252" y="350"/>
    </contour>
    <contour>
      <point x="95" y="0" type="line"/>
      <point x="565" y="700" type="line"/>
      <point x="675" y="700" type="line"/>
      <point x="205" y="0" type="line"/>
    </contour>
    <contour>
      <point x="575" y="0" type="line"/>
      <point x="575" y="70" type="line"/>
      <point x="405" y="70" type="line"/>
      <point x="405" y="130" type="line"/>
      <point x="575" y="340" type="line"/>
      <point x="665" y="340" type="line"/>
      <point x="665" y="130" type="line"/>
      <point x="715" y="130" type="line"/>
      <point x="715" y="70" type="line"/>
      <point x="665" y="70" type="line"/>
      <point x="665" y="0" type="line"/>
    </contour>
    <contour>
      <point x="485" y="130" type="line"/>
      <point x="575" y="130" type="line"/>
      <point x="575" y="220" type="line" smooth="yes"/>
      <point x="575" y="229"/>
      <point x="576" y="238"/>
      <point x="578" y="247" type="curve" smooth="yes"/>
      <point x="581" y="263" type="line"/>
      <point x="577" y="263" type="line"/>
      <point x="576" y="257"/>
      <point x="574" y="251"/>
      <point x="571" y="246" type="curve" smooth="yes"/>
      <point x="567" y="237"/>
      <point x="562" y="225"/>
      <point x="558" y="220" type="curve" smooth="yes"/>
    </contour>
  </outline>
</glyph>
<glyph name="questiondown" format="1">
  <advance width="460"/>
  <unicode hex="00BF"/>
  <outline>
    <contour>
      <point x="279" y="390" type="curve" smooth="yes"/>
      <point x="244" y="390"/>
      <point x="219" y="415"/>
      <point x="219" y="450" type="curve" smooth="yes"/>
      <point x="219" y="485"/>
      <point x="244" y="510"/>
      <point x="279" y="510" type="curve" smooth="yes"/>
      <point x="314" y="510"/>
      <point x="339" y="485"/>
      <point x="339" y="450" type="curve" smooth="yes"/>
      <point x="339" y="415"/>
      <point x="314" y="390"/>
    </contour>
    <contour>
      <point x="265" y="-210" type="curve" smooth="yes"/>
      <point x="121" y="-210"/>
      <point x="40" y="-130"/>
      <point x="40" y="-20" type="curve" smooth="yes"/>
      <point x="40" y="150"/>
      <point x="234" y="149"/>
      <point x="234" y="280" type="curve" smooth="yes"/>
      <point x="234" y="320" type="line"/>
      <point x="324" y="320" type="line"/>
      <point x="324" y="280" type="line" smooth="yes"/>
      <point x="324" y="110"/>
      <point x="140" y="110"/>
      <point x="140" y="-30" type="curve" smooth="yes"/>
      <point x="140" y="-90"/>
      <point x="190" y="-140"/>
      <point x="275" y="-140" type="curve" smooth="yes"/>
      <point x="320" y="-140"/>
      <point x="355" y="-129"/>
      <point x="379" y="-118" type="curve" smooth="yes"/>
      <point x="393" y="-111"/>
      <point x="405" y="-104"/>
      <point x="415" y="-95" type="curve"/>
      <point x="425" y="-95" type="line"/>
      <point x="460" y="-155" type="line"/>
      <point x="446" y="-166"/>
      <point x="430" y="-175"/>
      <point x="411" y="-183" type="curve" smooth="yes"/>
      <point x="378" y="-198"/>
      <point x="330" y="-210"/>
    </contour>
  </outline>
</glyph>
<glyph name="Atilde" format="1">
  <advance width="570"/>
  <unicode hex="00C3"/>
  <outline>
    <contour>
      <point x="190" y="755" type="curve" smooth="yes"/>
      <point x="181" y="755" type="line"/>
      <point x="141" y="780" type="line"/>
      <point x="157" y="825"/>
      <point x="180" y="865"/>
      <point x="231" y="865" type="curve" smooth="yes"/>
      <point x="281" y="865"/>
      <point x="291" y="820"/>
      <point x="321" y="820" type="curve" smooth="yes"/>
      <point x="351" y="819"/>
      <point x="368" y="859"/>
      <point x="367" y="860" type="curve" smooth="yes"/>
      <point x="376" y="860" type="line"/>
      <point x="416" y="835" type="line"/>
      <point x="401" y="790"/>
      <point x="375" y="750"/>
      <point x="326" y="750" type="curve" smooth="yes"/>
      <point x="276" y="750"/>
      <point x="266" y="795"/>
      <point x="236" y="795" type="curve" smooth="yes"/>
      <point x="207" y="794"/>
      <point x="190" y="756"/>
    </contour>
    <contour>
      <point x="350" y="700" type="line"/>
      <point x="555" y="0" type="line"/>
      <point x="455" y="0" type="line"/>
      <point x="400" y="180" type="line"/>
      <point x="170" y="180" type="line"/>
      <point x="115" y="0" type="line"/>
      <point x="15" y="0" type="line"/>
      <point x="220" y="700" type="line"/>
    </contour>
    <contour>
      <point x="190" y="250" type="line"/>
      <point x="380" y="250" type="line"/>
      <point x="300" y="525" type="line" smooth="yes"/>
      <point x="295" y="540"/>
      <point x="293" y="557"/>
      <point x="290" y="572" type="curve" smooth="yes"/>
      <point x="287" y="595" type="line"/>
      <point x="283" y="595" type="line"/>
      <point x="280" y="571" type="line" smooth="yes"/>
      <point x="277" y="556"/>
      <point x="274" y="540"/>
      <point x="270" y="525" type="curve" smooth="yes"/>
    </contour>
  </outline>
</glyph>
<glyph name="Adieresis" format="1">
  <advance width="570"/>
  <unicode hex="00C4"/>
  <outline>
    <contour>
      <point x="195" y="755" type="curve" smooth="yes"/>
      <point x="163" y="755"/>
      <point x="140" y="778"/>
      <point x="140" y="810" type="curve" smooth="yes"/>
      <point x="140" y="842"/>
      <point x="163" y="865"/>
      <point x="195" y="865" type="curve" smooth="yes"/>
      <point x="227" y="865"/>
      <point x="250" y="842"/>
      <point x="250" y="810" type="curve" smooth="yes"/>
      <point x="250" y="778"/>
      <point x="227" y="755"/>
    </contour>
    <contour>
      <point x="370" y="755" type="curve" smooth="yes"/>
      <point x="338" y="755"/>
      <point x="315" y="778"/>
      <point x="315" y="810" type="curve" smooth="yes"/>
      <point x="315" y="842"/>
      <point x="338" y="865"/>
      <point x="370" y="865" type="curve" smooth="yes"/>
      <point x="402" y="865"/>
      <point x="425" y="842"/>
      <point x="425" y="810" type="curve" smooth="yes"/>
      <point x="425" y="778"/>
      <point x="402" y="755"/>
    </contour>
    <contour>
      <point x="15" y="0" type="line"/>
      <point x="220" y="700" type="line"/>
      <point x="350" y="700" type="line"/>
      <point x="555" y="0" type="line"/>
      <point x="455" y="0" type="line"/>
      <point x="400" y="180" type="line"/>
      <point x="170" y="180" type="line"/>
      <point x="115" y="0" type="line"/>
    </contour>
    <contour>
      <point x="190" y="250" type="line"/>
      <point x="380" y="250" type="line"/>
      <point x="300" y="525" type="line" smooth="yes"/>
      <point x="295" y="540"/>
      <point x="293" y="557"/>
      <point x="290" y="572" type="curve" smooth="yes"/>
      <point x="287" y="595" type="line"/>
      <point x="283" y="595" type="line"/>
      <point x="280" y="571" type="line" smooth="yes"/>
      <point x="277" y="556"/>
      <point x="274" y="540"/>
      <point x="270" y="525" type="curve" smooth="yes"/>
    </contour>
  </outline>
</glyph>
<glyph name="AE" format="1">
  <advance width="815"/>
  <unicode hex="00C6"/>
  <outline>
    <contour>
      <point x="-20" y="0" type="line"/>
      <point x="275" y="700" type="line"/>
      <point x="785" y="700" type="line"/>
      <point x="785" y="630" type="line"/>
      <point x="495" y="630" type="line"/>
      <point x="495" y="400" type="line"/>
      <point x="725" y="400" type="line"/>
      <point x="725" y="330" type="line"/>
      <point x="495" y="330" type="line"/>
      <point x="495" y="70" type="line"/>
      <point x="785" y="70" type="line"/>
      <point x="785" y="0" type="line"/>
      <point x="395" y="0" type="line"/>
      <point x="395" y="200" type="line"/>
      <point x="165" y="200" type="line"/>
      <point x="80" y="0" type="line"/>
    </contour>
    <contour>
      <point x="195" y="270" type="line"/>
      <point x="395" y="270" type="line"/>
      <point x="395" y="630" type="line"/>
      <point x="345" y="630" type="line"/>
    </contour>
  </outline>
</glyph>
<glyph name="Ccedilla" format="1">
  <advance width="515"/>
  <unicode hex="00C7"/>
  <outline>
    <contour>
      <point x="444" y="17" type="curve" smooth="yes"/>
      <point x="413" y="2"/>
      <point x="371" y="-10"/>
      <point x="315" y="-10" type="curve"/>
      <point x="315" y="-30" type="line"/>
      <point x="371" y="-30"/>
      <point x="405" y="-65"/>
      <point x="405" y="-110" type="curve" smooth="yes"/>
      <point x="405" y="-155"/>
      <point x="370" y="-190"/>
      <point x="310" y="-190" type="curve" smooth="yes"/>
      <point x="285" y="-190"/>
      <point x="266" y="-185"/>
      <point x="251" y="-180" type="curve" smooth="yes"/>
      <point x="243" y="-177"/>
      <point x="236" y="-174"/>
      <point x="230" y="-170" type="curve"/>
      <point x="246" y="-130" type="line"/>
      <point x="255" y="-130" type="line" smooth="yes"/>
      <point x="254" y="-130"/>
      <point x="275" y="-145"/>
      <point x="300" y="-145" type="curve" smooth="yes"/>
      <point x="325" y="-145"/>
      <point x="340" y="-130"/>
      <point x="340" y="-110" type="curve" smooth="yes"/>
      <point x="340" y="-90"/>
      <point x="326" y="-75"/>
      <point x="295" y="-75" type="curve" smooth="yes"/>
      <point x="255" y="-75" type="line"/>
      <point x="255" y="-5" type="line"/>
      <point x="130" y="19"/>
      <point x="55" y="124"/>
      <point x="55" y="350" type="curve" smooth="yes"/>
      <point x="55" y="610"/>
      <point x="156" y="710"/>
      <point x="305" y="710" type="curve" smooth="yes"/>
      <point x="361" y="710"/>
      <point x="403" y="697"/>
      <point x="434" y="682" type="curve" smooth="yes"/>
      <point x="451" y="674"/>
      <point x="467" y="665"/>
      <point x="480" y="655" type="curve"/>
      <point x="445" y="595" type="line"/>
      <point x="435" y="595" type="line"/>
      <point x="424" y="603"/>
      <point x="413" y="610"/>
      <point x="401" y="617" type="curve" smooth="yes"/>
      <point x="380" y="628"/>
      <point x="350" y="640"/>
      <point x="315" y="640" type="curve" smooth="yes"/>
      <point x="225" y="640"/>
      <point x="155" y="570"/>
      <point x="155" y="350" type="curve" smooth="yes"/>
      <point x="155" y="130"/>
      <point x="225" y="60"/>
      <point x="325" y="60" type="curve" smooth="yes"/>
      <point x="360" y="60"/>
      <point x="390" y="71"/>
      <point x="411" y="82" type="curve" smooth="yes"/>
      <point x="423" y="89"/>
      <point x="434" y="96"/>
      <point x="445" y="105" type="curve"/>
      <point x="455" y="105" type="line"/>
      <point x="490" y="45" type="line"/>
      <point x="477" y="34"/>
      <point x="461" y="25"/>
    </contour>
  </outline>
</glyph>
<glyph name="Eacute" format="1">
  <advance width="510"/>
  <unicode hex="00C9"/>
  <outline>
    <contour>
      <point x="230" y="750" type="line"/>
      <point x="275" y="900" type="line"/>
      <point x="385" y="900" type="line"/>
      <point x="295" y="750" type="line"/>
    </contour>
    <contour>
      <point x="90" y="0" type="line"/>
      <point x="90" y="700" type="line"/>
      <point x="480" y="700" type="line"/>
      <point x="480" y="630" type="line"/>
      <point x="190" y="630" type="line"/>
      <point x="190" y="400" type="line"/>
      <point x="420" y="400" type="line"/>
      <point x="420" y="330" type="line"/>
      <point x="190" y="330" type="line"/>
      <point x="190" y="70" type="line"/>
      <point x="480" y="70" type="line"/>
      <point x="480" y="0" type="line"/>
    </contour>
  </outline>
</glyph>
<glyph name="Edieresis" format="1">
  <advance width="510"/>
  <unicode hex="00CB"/>
  <outline>
    <contour>
      <point x="197" y="765" type="curve" smooth="yes"/>
      <point x="165" y="765"/>
      <point x="142" y="788"/>
      <point x="142" y="820" type="curve" smooth="yes"/>
      <point x="142" y="852"/>
      <point x="165" y="875"/>
      <point x="197" y="875" type="curve" smooth="yes"/>
      <point x="229" y="875"/>
      <point x="252" y="852"/>
      <point x="252" y="820" type="curve" smooth="yes"/>
      <point x="252" y="788"/>
      <point x="229" y="765"/>
    </contour>
    <contour>
      <point x="372" y="765" type="curve" smooth="yes"/>
      <point x="340" y="765"/>
      <point x="317" y="788"/>
      <point x="317" y="820" type="curve" smooth="yes"/>
      <point x="317" y="852"/>
      <point x="340" y="875"/>
      <point x="372" y="875" type="curve" smooth="yes"/>
      <point x="404" y="875"/>
      <point x="427" y="852"/>
      <point x="427" y="820" type="curve" smooth="yes"/>
      <point x="427" y="788"/>
      <point x="404" y="765"/>
    </contour>
    <contour>
      <point x="90" y="0" type="line"/>
      <point x="90" y="700" type="line"/>
      <point x="480" y="700" type="line"/>
      <point x="480" y="630" type="line"/>
      <point x="190" y="630" type="line"/>
      <point x="190" y="400" type="line"/>
      <point x="420" y="400" type="line"/>
      <point x="420" y="330" type="line"/>
      <point x="190" y="330" type="line"/>
      <point x="190" y="70" type="line"/>
      <point x="480" y="70" type="line"/>
      <point x="480" y="0" type="line"/>
    </contour>
  </outline>
</glyph>
<glyph name="Igrave" format="1">
  <advance width="278"/>
  <unicode hex="00CC"/>
  <outline>
    <contour>
      <point x="110" y="750" type="line"/>
      <point x="20" y="900" type="line"/>
      <point x="130" y="900" type="line"/>
      <point x="175" y="750" type="line"/>
    </contour>
    <contour>
      <point x="90" y="0" type="line"/>
      <point x="90" y="700" type="line"/>
      <point x="190" y="700" type="line"/>
      <point x="190" y="0" type="line"/>
    </contour>
  </outline>
</glyph>
<glyph name="Iacute" format="1">
  <advance width="277"/>
  <unicode hex="00CD"/>
  <outline>
    <contour>
      <point x="102" y="750" type="line"/>
      <point x="147" y="900" type="line"/>
      <point x="257" y="900" type="line"/>
      <point x="167" y="750" type="line"/>
    </contour>
    <contour>
      <point x="90" y="0" type="line"/>
      <point x="90" y="700" type="line"/>
      <point x="190" y="700" type="line"/>
      <point x="190" y="0" type="line"/>
    </contour>
  </outline>
</glyph>
<glyph name="Icircumflex" format="1">
  <advance width="270"/>
  <unicode hex="00CE"/>
  <outline>
    <contour>
      <point x="-4" y="760" type="line"/>
      <point x="101" y="890" type="line"/>
      <point x="171" y="890" type="line"/>
      <point x="276" y="760" type="line"/>
      <point x="211" y="760" type="line"/>
      <point x="136" y="825" type="line"/>
      <point x="61" y="760" type="line"/>
    </contour>
    <contour>
      <point x="90" y="0" type="line"/>
      <point x="90" y="700" type="line"/>
      <point x="190" y="700" type="line"/>
      <point x="190" y="0" type="line"/>
    </contour>
  </outline>
</glyph>
<glyph name="Idieresis" format="1">
  <advance width="260"/>
  <unicode hex="00CF"/>
  <outline>
    <contour>
      <point x="41" y="765" type="curve" smooth="yes"/>
      <point x="9" y="765"/>
      <point x="-14" y="788"/>
      <point x="-14" y="820" type="curve" smooth="yes"/>
      <point x="-14" y="852"/>
      <point x="9" y="875"/>
      <point x="41" y="875" type="curve" smooth="yes"/>
      <point x="73" y="875"/>
      <point x="96" y="852"/>
      <point x="96" y="820" type="curve" smooth="yes"/>
      <point x="96" y="788"/>
      <point x="73" y="765"/>
    </contour>
    <contour>
      <point x="216" y="765" type="curve" smooth="yes"/>
      <point x="184" y="765"/>
      <point x="161" y="788"/>
      <point x="161" y="820" type="curve" smooth="yes"/>
      <point x="161" y="852"/>
      <point x="184" y="875"/>
      <point x="216" y="875" type="curve" smooth="yes"/>
      <point x="248" y="875"/>
      <point x="271" y="852"/>
      <point x="271" y="820" type="curve" smooth="yes"/>
      <point x="271" y="788"/>
      <point x="248" y="765"/>
    </contour>
    <contour>
      <point x="90" y="0" type="line"/>
      <point x="90" y="700" type="line"/>
      <point x="190" y="700" type="line"/>
      <point x="190" y="0" type="line"/>
    </contour>
  </outline>
</glyph>
<glyph name="Ntilde" format="1">
  <advance width="630"/>
  <unicode hex="00D1"/>
  <outline>
    <contour>
      <point x="220" y="755" type="curve" smooth="yes"/>
      <point x="211" y="755" type="line"/>
      <point x="171" y="780" type="line"/>
      <point x="187" y="825"/>
      <point x="210" y="865"/>
      <point x="261" y="865" type="curve" smooth="yes"/>
      <point x="311" y="865"/>
      <point x="321" y="820"/>
      <point x="351" y="820" type="curve" smooth="yes"/>
      <point x="381" y="819"/>
      <point x="398" y="859"/>
      <point x="397" y="860" type="curve" smooth="yes"/>
      <point x="406" y="860" type="line"/>
      <point x="446" y="835" type="line"/>
      <point x="431" y="790"/>
      <point x="405" y="750"/>
      <point x="356" y="750" type="curve" smooth="yes"/>
      <point x="306" y="750"/>
      <point x="296" y="795"/>
      <point x="266" y="795" type="curve" smooth="yes"/>
      <point x="237" y="794"/>
      <point x="220" y="756"/>
    </contour>
    <contour>
      <point x="440" y="700" type="line"/>
      <point x="540" y="700" type="line"/>
      <point x="540" y="0" type="line"/>
      <point x="430" y="0" type="line"/>
      <point x="220" y="465" type="line" smooth="yes"/>
      <point x="213" y="480"/>
      <point x="206" y="500"/>
      <point x="200" y="519" type="curve" smooth="yes"/>
      <point x="197" y="529"/>
      <point x="193" y="539"/>
      <point x="190" y="550" type="curve"/>
      <point x="186" y="550" type="line"/>
      <point x="188" y="519" type="line" smooth="yes"/>
      <point x="189" y="500"/>
      <point x="190" y="480"/>
      <point x="190" y="465" type="curve" smooth="yes"/>
      <point x="190" y="0" type="line"/>
      <point x="90" y="0" type="line"/>
      <point x="90" y="700" type="line"/>
      <point x="200" y="700" type="line"/>
      <point x="410" y="235" type="line" smooth="yes"/>
      <point x="417" y="220"/>
      <point x="423" y="198"/>
      <point x="430" y="181" type="curve" smooth="yes"/>
      <point x="433" y="170"/>
      <point x="437" y="160"/>
      <point x="440" y="150" type="curve"/>
      <point x="444" y="150" type="line"/>
      <point x="442" y="181" type="line" smooth="yes"/>
      <point x="441" y="198"/>
      <point x="440" y="220"/>
      <point x="440" y="235" type="curve" smooth="yes"/>
    </contour>
  </outline>
</glyph>
<glyph name="Ocircumflex" format="1">
  <advance width="600"/>
  <unicode hex="00D4"/>
  <outline>
    <contour>
      <point x="160" y="760" type="line"/>
      <point x="265" y="890" type="line"/>
      <point x="335" y="890" type="line"/>
      <point x="440" y="760" type="line"/>
      <point x="375" y="760" type="line"/>
      <point x="300" y="825" type="line"/>
      <point x="225" y="760" type="line"/>
    </contour>
    <contour>
      <point x="300" y="-10" type="curve" smooth="yes"/>
      <point x="155" y="-10"/>
      <point x="55" y="90"/>
      <point x="55" y="350" type="curve" smooth="yes"/>
      <point x="55" y="610"/>
      <point x="155" y="710"/>
      <point x="300" y="710" type="curve" smooth="yes"/>
      <point x="445" y="710"/>
      <point x="545" y="610"/>
      <point x="545" y="350" type="curve" smooth="yes"/>
      <point x="545" y="90"/>
      <point x="445" y="-10"/>
    </contour>
    <contour>
      <point x="300" y="60" type="curve" smooth="yes"/>
      <point x="375" y="60"/>
      <point x="445" y="130"/>
      <point x="445" y="350" type="curve" smooth="yes"/>
      <point x="445" y="570"/>
      <point x="375" y="640"/>
      <point x="300" y="640" type="curve" smooth="yes"/>
      <point x="225" y="640"/>
      <point x="155" y="570"/>
      <point x="155" y="350" type="curve" smooth="yes"/>
      <point x="155" y="130"/>
      <point x="225" y="60"/>
    </contour>
  </outline>
</glyph>
<glyph name="Otilde" format="1">
  <advance width="600"/>
  <unicode hex="00D5"/>
  <outline>
    <contour>
      <point x="205" y="765" type="curve" smooth="yes"/>
      <point x="196" y="765" type="line"/>
      <point x="156" y="790" type="line"/>
      <point x="172" y="835"/>
      <point x="195" y="875"/>
      <point x="246" y="875" type="curve" smooth="yes"/>
      <point x="296" y="875"/>
      <point x="306" y="830"/>
      <point x="336" y="830" type="curve" smooth="yes"/>
      <point x="366" y="829"/>
      <point x="383" y="869"/>
      <point x="382" y="870" type="curve" smooth="yes"/>
      <point x="391" y="870" type="line"/>
      <point x="431" y="845" type="line"/>
      <point x="416" y="800"/>
      <point x="390" y="760"/>
      <point x="341" y="760" type="curve" smooth="yes"/>
      <point x="291" y="760"/>
      <point x="281" y="805"/>
      <point x="251" y="805" type="curve" smooth="yes"/>
      <point x="222" y="804"/>
      <point x="205" y="766"/>
    </contour>
    <contour>
      <point x="300" y="710" type="curve" smooth="yes"/>
      <point x="445" y="710"/>
      <point x="545" y="610"/>
      <point x="545" y="350" type="curve" smooth="yes"/>
      <point x="545" y="90"/>
      <point x="445" y="-10"/>
      <point x="300" y="-10" type="curve" smooth="yes"/>
      <point x="155" y="-10"/>
      <point x="55" y="90"/>
      <point x="55" y="350" type="curve" smooth="yes"/>
      <point x="55" y="610"/>
      <point x="155" y="710"/>
    </contour>
    <contour>
      <point x="300" y="60" type="curve" smooth="yes"/>
      <point x="375" y="60"/>
      <point x="445" y="130"/>
      <point x="445" y="350" type="curve" smooth="yes"/>
      <point x="445" y="570"/>
      <point x="375" y="640"/>
      <point x="300" y="640" type="curve" smooth="yes"/>
      <point x="225" y="640"/>
      <point x="155" y="570"/>
      <point x="155" y="350" type="curve" smooth="yes"/>
      <point x="155" y="130"/>
      <point x="225" y="60"/>
    </contour>
  </outline>
</glyph>
<glyph name="Odieresis" format="1">
  <advance width="600"/>
  <unicode hex="00D6"/>
  <outline>
    <contour>
      <point x="210" y="765" type="curve" smooth="yes"/>
      <point x="178" y="765"/>
      <point x="155" y="788"/>
      <point x="155" y="820" type="curve" smooth="yes"/>
      <point x="155" y="852"/>
      <point x="178" y="875"/>
      <point x="210" y="875" type="curve" smooth="yes"/>
      <point x="242" y="875"/>
      <point x="265" y="852"/>
      <point x="265" y="820" type="curve" smooth="yes"/>
      <point x="265" y="788"/>
      <point x="242" y="765"/>
    </contour>
    <contour>
      <point x="385" y="765" type="curve" smooth="yes"/>
      <point x="353" y="765"/>
      <point x="330" y="788"/>
      <point x="330" y="820" type="curve" smooth="yes"/>
      <point x="330" y="852"/>
      <point x="353" y="875"/>
      <point x="385" y="875" type="curve" smooth="yes"/>
      <point x="417" y="875"/>
      <point x="440" y="852"/>
      <point x="440" y="820" type="curve" smooth="yes"/>
      <point x="440" y="788"/>
      <point x="417" y="765"/>
    </contour>
    <contour>
      <point x="300" y="-10" type="curve" smooth="yes"/>
      <point x="155" y="-10"/>
      <point x="55" y="90"/>
      <point x="55" y="350" type="curve" smooth="yes"/>
      <point x="55" y="610"/>
      <point x="155" y="710"/>
      <point x="300" y="710" type="curve" smooth="yes"/>
      <point x="445" y="710"/>
      <point x="545" y="610"/>
      <point x="545" y="350" type="curve" smooth="yes"/>
      <point x="545" y="90"/>
      <point x="445" y="-10"/>
    </contour>
    <contour>
      <point x="300" y="60" type="curve" smooth="yes"/>
      <point x="375" y="60"/>
      <point x="445" y="130"/>
      <point x="445" y="350" type="curve" smooth="yes"/>
      <point x="445" y="570"/>
      <point x="375" y="640"/>
      <point x="300" y="640" type="curve" smooth="yes"/>
      <point x="225" y="640"/>
      <point x="155" y="570"/>
      <point x="155" y="350" type="curve" smooth="yes"/>
      <point x="155" y="130"/>
      <point x="225" y="60"/>
    </contour>
  </outline>
</glyph>
<glyph name="multiply" format="1">
  <advance width="437"/>
  <unicode hex="00D7"/>
  <outline>
    <contour>
      <point x="102" y="157" type="line"/>
      <point x="45" y="213" type="line"/>
      <point x="162" y="330" type="line"/>
      <point x="45" y="447" type="line"/>
      <point x="102" y="503" type="line"/>
      <point x="219" y="387" type="line"/>
      <point x="335" y="503" type="line"/>
      <point x="392" y="447" type="line"/>
      <point x="275" y="330" type="line"/>
      <point x="392" y="213" type="line"/>
      <point x="335" y="157" type="line"/>
      <point x="219" y="273" type="line"/>
    </contour>
  </outline>
</glyph>
<glyph name="Oslash" format="1">
  <advance width="600"/>
  <unicode hex="00D8"/>
  <outline>
    <contour>
      <point x="300" y="-10" type="curve" smooth="yes"/>
      <point x="245" y="-10"/>
      <point x="199" y="4"/>
      <point x="160" y="35" type="curve"/>
      <point x="140" y="0" type="line"/>
      <point x="60" y="0" type="line"/>
      <point x="111" y="89" type="line"/>
      <point x="75" y="148"/>
      <point x="55" y="231"/>
      <point x="55" y="350" type="curve" smooth="yes"/>
      <point x="55" y="610"/>
      <point x="155" y="710"/>
      <point x="300" y="710" type="curve" smooth="yes"/>
      <point x="355" y="710"/>
      <point x="402" y="695"/>
      <point x="440" y="665" type="curve"/>
      <point x="460" y="700" type="line"/>
      <point x="540" y="700" type="line"/>
      <point x="489" y="610" type="line"/>
      <point x="525" y="553"/>
      <point x="545" y="467"/>
      <point x="545" y="350" type="curve" smooth="yes"/>
      <point x="545" y="90"/>
      <point x="445" y="-10"/>
    </contour>
    <contour>
      <point x="171" y="194" type="curve"/>
      <point x="395" y="586" type="line"/>
      <point x="368" y="625"/>
      <point x="335" y="640"/>
      <point x="300" y="640" type="curve" smooth="yes"/>
      <point x="225" y="640"/>
      <point x="155" y="570"/>
      <point x="155" y="350" type="curve" smooth="yes"/>
      <point x="155" y="286"/>
      <point x="160" y="235"/>
    </contour>
    <contour>
      <point x="300" y="60" type="curve" smooth="yes"/>
      <point x="375" y="60"/>
      <point x="445" y="130"/>
      <point x="445" y="350" type="curve" smooth="yes"/>
      <point x="445" y="414"/>
      <point x="440" y="465"/>
      <point x="429" y="505" type="curve"/>
      <point x="205" y="113" type="line"/>
      <point x="232" y="74"/>
      <point x="265" y="60"/>
    </contour>
  </outline>
</glyph>
<glyph name="Ucircumflex" format="1">
  <advance width="620"/>
  <unicode hex="00DB"/>
  <outline>
    <contour>
      <point x="170" y="760" type="line"/>
      <point x="275" y="890" type="line"/>
      <point x="345" y="890" type="line"/>
      <point x="450" y="760" type="line"/>
      <point x="385" y="760" type="line"/>
      <point x="310" y="825" type="line"/>
      <point x="235" y="760" type="line"/>
    </contour>
    <contour>
      <point x="310" y="-10" type="curve" smooth="yes"/>
      <point x="165" y="-10"/>
      <point x="85" y="69"/>
      <point x="85" y="220" type="curve" smooth="yes"/>
      <point x="85" y="700" type="line"/>
      <point x="185" y="700" type="line"/>
      <point x="185" y="220" type="line" smooth="yes"/>
      <point x="185" y="109"/>
      <point x="234" y="60"/>
      <point x="310" y="60" type="curve" smooth="yes"/>
      <point x="386" y="60"/>
      <point x="435" y="109"/>
      <point x="435" y="220" type="curve" smooth="yes"/>
      <point x="435" y="700" type="line"/>
      <point x="535" y="700" type="line"/>
      <point x="535" y="220" type="line" smooth="yes"/>
      <point x="535" y="69"/>
      <point x="455" y="-10"/>
    </contour>
  </outline>
</glyph>
<glyph name="Udieresis" format="1">
  <advance width="620"/>
  <unicode hex="00DC"/>
  <outline>
    <contour>
      <point x="220" y="765" type="curve" smooth="yes"/>
      <point x="188" y="765"/>
      <point x="165" y="788"/>
      <point x="165" y="820" type="curve" smooth="yes"/>
      <point x="165" y="852"/>
      <point x="188" y="875"/>
      <point x="220" y="875" type="curve" smooth="yes"/>
      <point x="252" y="875"/>
      <point x="275" y="852"/>
      <point x="275" y="820" type="curve" smooth="yes"/>
      <point x="275" y="788"/>
      <point x="252" y="765"/>
    </contour>
    <contour>
      <point x="395" y="765" type="curve" smooth="yes"/>
      <point x="363" y="765"/>
      <point x="340" y="788"/>
      <point x="340" y="820" type="curve" smooth="yes"/>
      <point x="340" y="852"/>
      <point x="363" y="875"/>
      <point x="395" y="875" type="curve" smooth="yes"/>
      <point x="427" y="875"/>
      <point x="450" y="852"/>
      <point x="450" y="820" type="curve" smooth="yes"/>
      <point x="450" y="788"/>
      <point x="427" y="765"/>
    </contour>
    <contour>
      <point x="310" y="-10" type="curve" smooth="yes"/>
      <point x="165" y="-10"/>
      <point x="85" y="69"/>
      <point x="85" y="220" type="curve" smooth="yes"/>
      <point x="85" y="700" type="line"/>
      <point x="185" y="700" type="line"/>
      <point x="185" y="220" type="line" smooth="yes"/>
      <point x="185" y="109"/>
      <point x="234" y="60"/>
      <point x="310" y="60" type="curve" smooth="yes"/>
      <point x="386" y="60"/>
      <point x="435" y="109"/>
      <point x="435" y="220" type="curve" smooth="yes"/>
      <point x="435" y="700" type="line"/>
      <point x="535" y="700" type="line"/>
      <point x="535" y="220" type="line" smooth="yes"/>
      <point x="535" y="69"/>
      <point x="455" y="-10"/>
    </contour>
  </outline>
</glyph>
<glyph name="Thorn" format="1">
  <advance width="615"/>
  <unicode hex="00DE"/>
  <outline>
    <contour>
      <point x="90" y="-20" type="line"/>
      <point x="90" y="720" type="line"/>
      <point x="190" y="720" type="line"/>
      <point x="190" y="640" type="line"/>
      <point x="280" y="640" type="line" smooth="yes"/>
      <point x="467" y="640"/>
      <point x="570" y="537"/>
      <point x="570" y="350" type="curve" smooth="yes"/>
      <point x="570" y="163"/>
      <point x="467" y="60"/>
      <point x="280" y="60" type="curve" smooth="yes"/>
      <point x="190" y="60" type="line"/>
      <point x="190" y="-20" type="line"/>
    </contour>
    <contour>
      <point x="190" y="130" type="line"/>
      <point x="280" y="130" type="line" smooth="yes"/>
      <point x="396" y="130"/>
      <point x="470" y="205"/>
      <point x="470" y="350" type="curve" smooth="yes"/>
      <point x="470" y="495"/>
      <point x="396" y="570"/>
      <point x="280" y="570" type="curve" smooth="yes"/>
      <point x="190" y="570" type="line"/>
    </contour>
  </outline>
</glyph>
<glyph name="germandbls" format="1">
  <advance width="620"/>
  <unicode hex="00DF"/>
  <outline>
    <contour>
      <point x="390" y="-10" type="curve" smooth="yes"/>
      <point x="355" y="-10"/>
      <point x="328" y="-3"/>
      <point x="309" y="5" type="curve" smooth="yes"/>
      <point x="298" y="9"/>
      <point x="288" y="14"/>
      <point x="280" y="20" type="curve"/>
      <point x="305" y="85" type="line"/>
      <point x="315" y="85" type="line"/>
      <point x="320" y="80"/>
      <point x="325" y="75"/>
      <point x="332" y="72" type="curve" smooth="yes"/>
      <point x="343" y="65"/>
      <point x="360" y="60"/>
      <point x="380" y="60" type="curve" smooth="yes"/>
      <point x="445" y="60"/>
      <point x="485" y="99"/>
      <point x="485" y="170" type="curve" smooth="yes"/>
      <point x="485" y="286"/>
      <point x="310" y="300"/>
      <point x="310" y="450" type="curve" smooth="yes"/>
      <point x="310" y="501"/>
      <point x="340" y="519"/>
      <point x="340" y="570" type="curve" smooth="yes"/>
      <point x="340" y="610"/>
      <point x="310" y="640"/>
      <point x="275" y="640" type="curve" smooth="yes"/>
      <point x="230" y="640"/>
      <point x="200" y="610"/>
      <point x="200" y="550" type="curve" smooth="yes"/>
      <point x="200" y="0" type="line"/>
      <point x="100" y="0" type="line"/>
      <point x="100" y="420" type="line"/>
      <point x="35" y="420" type="line"/>
      <point x="35" y="490" type="line"/>
      <point x="100" y="490" type="line"/>
      <point x="100" y="550" type="line" smooth="yes"/>
      <point x="100" y="646"/>
      <point x="165" y="710"/>
      <point x="265" y="710" type="curve" smooth="yes"/>
      <point x="381" y="710"/>
      <point x="440" y="650"/>
      <point x="440" y="570" type="curve" smooth="yes"/>
      <point x="440" y="509"/>
      <point x="400" y="501"/>
      <point x="400" y="450" type="curve" smooth="yes"/>
      <point x="400" y="345"/>
      <point x="585" y="330"/>
      <point x="585" y="180" type="curve" smooth="yes"/>
      <point x="585" y="64"/>
      <point x="511" y="-10"/>
    </contour>
  </outline>
</glyph>
<glyph name="agrave" format="1">
  <advance width="510"/>
  <unicode hex="00E0"/>
  <outline>
    <contour>
      <point x="227" y="550" type="line"/>
      <point x="137" y="700" type="line"/>
      <point x="247" y="700" type="line"/>
      <point x="292" y="550" type="line"/>
    </contour>
    <contour>
      <point x="210" y="-10" type="curve" smooth="yes"/>
      <point x="105" y="-10"/>
      <point x="45" y="49"/>
      <point x="45" y="145" type="curve" smooth="yes"/>
      <point x="45" y="235"/>
      <point x="105" y="295"/>
      <point x="260" y="295" type="curve" smooth="yes"/>
      <point x="340" y="295" type="line"/>
      <point x="340" y="320" type="line" smooth="yes"/>
      <point x="340" y="400"/>
      <point x="300" y="440"/>
      <point x="235" y="440" type="curve" smooth="yes"/>
      <point x="204" y="440"/>
      <point x="177" y="428"/>
      <point x="157" y="417" type="curve" smooth="yes"/>
      <point x="145" y="410"/>
      <point x="134" y="403"/>
      <point x="125" y="395" type="curve"/>
      <point x="115" y="395" type="line"/>
      <point x="80" y="455" type="line"/>
      <point x="93" y="465"/>
      <point x="108" y="474"/>
      <point x="125" y="482" type="curve" smooth="yes"/>
      <point x="154" y="497"/>
      <point x="194" y="510"/>
      <point x="245" y="510" type="curve" smooth="yes"/>
      <point x="360" y="510"/>
      <point x="440" y="430"/>
      <point x="440" y="320" type="curve" smooth="yes"/>
      <point x="440" y="0" type="line"/>
      <point x="370" y="0" type="line"/>
      <point x="360" y="60" type="line"/>
      <point x="355" y="60" type="line"/>
      <point x="346" y="47"/>
      <point x="334" y="35"/>
      <point x="320" y="25" type="curve" smooth="yes"/>
      <point x="296" y="6"/>
      <point x="261" y="-10"/>
    </contour>
    <contour>
      <point x="235" y="65" type="curve" smooth="yes"/>
      <point x="266" y="65"/>
      <point x="291" y="80"/>
      <point x="310" y="95" type="curve" smooth="yes"/>
      <point x="321" y="104"/>
      <point x="331" y="114"/>
      <point x="340" y="125" type="curve"/>
      <point x="340" y="225" type="line"/>
      <point x="260" y="225" type="line" smooth="yes"/>
      <point x="180" y="225"/>
      <point x="145" y="190"/>
      <point x="145" y="145" type="curve" smooth="yes"/>
      <point x="145" y="94"/>
      <point x="175" y="65"/>
    </contour>
  </outline>
</glyph>
<glyph name="ae" format="1">
  <advance width="785"/>
  <unicode hex="00E6"/>
  <outline>
    <contour>
      <point x="210" y="-10" type="curve" smooth="yes"/>
      <point x="105" y="-10"/>
      <point x="45" y="49"/>
      <point x="45" y="145" type="curve" smooth="yes"/>
      <point x="45" y="235"/>
      <point x="105" y="295"/>
      <point x="260" y="295" type="curve" smooth="yes"/>
      <point x="340" y="295" type="line"/>
      <point x="340" y="320" type="line" smooth="yes"/>
      <point x="340" y="400"/>
      <point x="300" y="440"/>
      <point x="235" y="440" type="curve" smooth="yes"/>
      <point x="204" y="440"/>
      <point x="177" y="428"/>
      <point x="157" y="417" type="curve" smooth="yes"/>
      <point x="145" y="410"/>
      <point x="134" y="403"/>
      <point x="125" y="395" type="curve"/>
      <point x="115" y="395" type="line"/>
      <point x="80" y="455" type="line"/>
      <point x="93" y="465"/>
      <point x="108" y="474"/>
      <point x="125" y="482" type="curve" smooth="yes"/>
      <point x="154" y="497"/>
      <point x="194" y="510"/>
      <point x="245" y="510" type="curve" smooth="yes"/>
      <point x="321" y="510"/>
      <point x="370" y="480"/>
      <point x="395" y="435" type="curve"/>
      <point x="430" y="480"/>
      <point x="480" y="510"/>
      <point x="540" y="510" type="curve" smooth="yes"/>
      <point x="655" y="510"/>
      <point x="740" y="425"/>
      <point x="740" y="250" type="curve" smooth="yes"/>
      <point x="740" y="235" type="line"/>
      <point x="720" y="215" type="line"/>
      <point x="440" y="215" type="line"/>
      <point x="440" y="110"/>
      <point x="489" y="60"/>
      <point x="560" y="60" type="curve" smooth="yes"/>
      <point x="591" y="60"/>
      <point x="617" y="71"/>
      <point x="637" y="82" type="curve" smooth="yes"/>
      <point x="649" y="89"/>
      <point x="660" y="96"/>
      <point x="670" y="105" type="curve"/>
      <point x="680" y="105" type="line"/>
      <point x="715" y="45" type="line"/>
      <point x="702" y="34"/>
      <point x="687" y="25"/>
      <point x="670" y="17" type="curve" smooth="yes"/>
      <point x="641" y="2"/>
      <point x="601" y="-10"/>
      <point x="550" y="-10" type="curve" smooth="yes"/>
      <point x="485" y="-10"/>
      <point x="426" y="15"/>
      <point x="387" y="70" type="curve"/>
      <point x="373" y="55"/>
      <point x="357" y="42"/>
      <point x="340" y="30" type="curve" smooth="yes"/>
      <point x="309" y="10"/>
      <point x="266" y="-10"/>
    </contour>
    <contour>
      <point x="440" y="285" type="curve"/>
      <point x="640" y="285" type="line"/>
      <point x="640" y="394"/>
      <point x="595" y="440"/>
      <point x="540" y="440" type="curve" smooth="yes"/>
      <point x="485" y="440"/>
      <point x="440" y="394"/>
    </contour>
    <contour>
      <point x="235" y="65" type="curve" smooth="yes"/>
      <point x="266" y="65"/>
      <point x="291" y="80"/>
      <point x="310" y="95" type="curve" smooth="yes"/>
      <point x="321" y="104"/>
      <point x="331" y="114"/>
      <point x="340" y="125" type="curve"/>
      <point x="340" y="225" type="line"/>
      <point x="260" y="225" type="line" smooth="yes"/>
      <point x="180" y="225"/>
      <point x="145" y="190"/>
      <point x="145" y="145" type="curve" smooth="yes"/>
      <point x="145" y="94"/>
      <point x="175" y="65"/>
    </contour>
  </outline>
</glyph>
<glyph name="ccedilla" format="1">
  <advance width="455"/>
  <unicode hex="00E7"/>
  <outline>
    <contour>
      <point x="390" y="17" type="curve" smooth="yes"/>
      <point x="362" y="3"/>
      <point x="325" y="-9"/>
      <point x="277" y="-10" type="curve"/>
      <point x="277" y="-30" type="line"/>
      <point x="333" y="-30"/>
      <point x="367" y="-65"/>
      <point x="367" y="-110" type="curve" smooth="yes"/>
      <point x="367" y="-155"/>
      <point x="332" y="-190"/>
      <point x="272" y="-190" type="curve" smooth="yes"/>
      <point x="247" y="-190"/>
      <point x="228" y="-185"/>
      <point x="213" y="-180" type="curve" smooth="yes"/>
      <point x="205" y="-177"/>
      <point x="198" y="-174"/>
      <point x="192" y="-170" type="curve"/>
      <point x="208" y="-130" type="line"/>
      <point x="217" y="-130" type="line" smooth="yes"/>
      <point x="216" y="-130"/>
      <point x="237" y="-145"/>
      <point x="262" y="-145" type="curve" smooth="yes"/>
      <point x="287" y="-145"/>
      <point x="302" y="-130"/>
      <point x="302" y="-110" type="curve" smooth="yes"/>
      <point x="302" y="-90"/>
      <point x="288" y="-75"/>
      <point x="257" y="-75" type="curve" smooth="yes"/>
      <point x="217" y="-75" type="line"/>
      <point x="217" y="-5" type="line"/>
      <point x="113" y="15"/>
      <point x="50" y="99"/>
      <point x="50" y="250" type="curve" smooth="yes"/>
      <point x="50" y="425"/>
      <point x="135" y="510"/>
      <point x="260" y="510" type="curve" smooth="yes"/>
      <point x="311" y="510"/>
      <point x="351" y="497"/>
      <point x="380" y="482" type="curve" smooth="yes"/>
      <point x="397" y="474"/>
      <point x="412" y="465"/>
      <point x="425" y="455" type="curve"/>
      <point x="390" y="395" type="line"/>
      <point x="380" y="395" type="line"/>
      <point x="370" y="403"/>
      <point x="359" y="410"/>
      <point x="347" y="417" type="curve" smooth="yes"/>
      <point x="327" y="428"/>
      <point x="301" y="440"/>
      <point x="270" y="440" type="curve" smooth="yes"/>
      <point x="201" y="440"/>
      <point x="150" y="390"/>
      <point x="150" y="250" type="curve" smooth="yes"/>
      <point x="150" y="110"/>
      <point x="200" y="60"/>
      <point x="280" y="60" type="curve" smooth="yes"/>
      <point x="311" y="60"/>
      <point x="337" y="71"/>
      <point x="357" y="82" type="curve" smooth="yes"/>
      <point x="369" y="89"/>
      <point x="380" y="96"/>
      <point x="390" y="105" type="curve"/>
      <point x="400" y="105" type="line"/>
      <point x="435" y="45" type="line"/>
      <point x="422" y="34"/>
      <point x="407" y="25"/>
    </contour>
  </outline>
</glyph>
<glyph name="eacute" format="1">
  <advance width="505"/>
  <unicode hex="00E9"/>
  <outline>
    <contour>
      <point x="215" y="550" type="line"/>
      <point x="260" y="700" type="line"/>
      <point x="370" y="700" type="line"/>
      <point x="280" y="550" type="line"/>
    </contour>
    <contour>
      <point x="270" y="-10" type="curve" smooth="yes"/>
      <point x="135" y="-10"/>
      <point x="50" y="75"/>
      <point x="50" y="250" type="curve" smooth="yes"/>
      <point x="50" y="425"/>
      <point x="135" y="510"/>
      <point x="255" y="510" type="curve" smooth="yes"/>
      <point x="375" y="510"/>
      <point x="460" y="425"/>
      <point x="460" y="250" type="curve" smooth="yes"/>
      <point x="460" y="235" type="line"/>
      <point x="440" y="215" type="line"/>
      <point x="150" y="215" type="line"/>
      <point x="150" y="110"/>
      <point x="200" y="60"/>
      <point x="280" y="60" type="curve" smooth="yes"/>
      <point x="311" y="60"/>
      <point x="337" y="71"/>
      <point x="357" y="82" type="curve" smooth="yes"/>
      <point x="369" y="89"/>
      <point x="380" y="96"/>
      <point x="390" y="105" type="curve"/>
      <point x="400" y="105" type="line"/>
      <point x="435" y="45" type="line"/>
      <point x="422" y="34"/>
      <point x="407" y="25"/>
      <point x="390" y="17" type="curve" smooth="yes"/>
      <point x="361" y="2"/>
      <point x="321" y="-10"/>
    </contour>
    <contour>
      <point x="150" y="285" type="curve"/>
      <point x="360" y="285" type="line"/>
      <point x="360" y="396"/>
      <point x="315" y="440"/>
      <point x="255" y="440" type="curve" smooth="yes"/>
      <point x="195" y="440"/>
      <point x="150" y="396"/>
    </contour>
  </outline>
</glyph>
<glyph name="igrave" format="1">
  <advance width="258"/>
  <unicode hex="00EC"/>
  <outline>
    <contour>
      <point x="105" y="550" type="line"/>
      <point x="15" y="700" type="line"/>
      <point x="125" y="700" type="line"/>
      <point x="170" y="550" type="line"/>
    </contour>
    <contour>
      <point x="83" y="0" type="line"/>
      <point x="83" y="500" type="line"/>
      <point x="183" y="500" type="line"/>
      <point x="183" y="0" type="line"/>
    </contour>
  </outline>
</glyph>
<glyph name="iacute" format="1">
  <advance width="257"/>
  <unicode hex="00ED"/>
  <outline>
    <contour>
      <point x="87" y="550" type="line"/>
      <point x="132" y="700" type="line"/>
      <point x="242" y="700" type="line"/>
      <point x="152" y="550" type="line"/>
    </contour>
    <contour>
      <point x="75" y="0" type="line"/>
      <point x="75" y="500" type="line"/>
      <point x="175" y="500" type="line"/>
      <point x="175" y="0" type="line"/>
    </contour>
  </outline>
</glyph>
<glyph name="icircumflex" format="1">
  <advance width="260"/>
  <unicode hex="00EE"/>
  <outline>
    <contour>
      <point x="-10" y="560" type="line"/>
      <point x="95" y="690" type="line"/>
      <point x="165" y="690" type="line"/>
      <point x="270" y="560" type="line"/>
      <point x="205" y="560" type="line"/>
      <point x="130" y="625" type="line"/>
      <point x="55" y="560" type="line"/>
    </contour>
    <contour>
      <point x="80" y="0" type="line"/>
      <point x="80" y="500" type="line"/>
      <point x="180" y="500" type="line"/>
      <point x="180" y="0" type="line"/>
    </contour>
  </outline>
</glyph>
<glyph name="idieresis" format="1">
  <advance width="260"/>
  <unicode hex="00EF"/>
  <outline>
    <contour>
      <point x="40" y="565" type="curve" smooth="yes"/>
      <point x="8" y="565"/>
      <point x="-15" y="588"/>
      <point x="-15" y="620" type="curve" smooth="yes"/>
      <point x="-15" y="652"/>
      <point x="8" y="675"/>
      <point x="40" y="675" type="curve" smooth="yes"/>
      <point x="72" y="675"/>
      <point x="95" y="652"/>
      <point x="95" y="620" type="curve" smooth="yes"/>
      <point x="95" y="588"/>
      <point x="72" y="565"/>
    </contour>
    <contour>
      <point x="215" y="565" type="curve" smooth="yes"/>
      <point x="183" y="565"/>
      <point x="160" y="588"/>
      <point x="160" y="620" type="curve" smooth="yes"/>
      <point x="160" y="652"/>
      <point x="183" y="675"/>
      <point x="215" y="675" type="curve" smooth="yes"/>
      <point x="247" y="675"/>
      <point x="270" y="652"/>
      <point x="270" y="620" type="curve" smooth="yes"/>
      <point x="270" y="588"/>
      <point x="247" y="565"/>
    </contour>
    <contour>
      <point x="80" y="0" type="line"/>
      <point x="80" y="500" type="line"/>
      <point x="180" y="500" type="line"/>
      <point x="180" y="0" type="line"/>
    </contour>
  </outline>
</glyph>
<glyph name="eth" format="1">
  <advance width="515"/>
  <unicode hex="00F0"/>
  <outline>
    <contour>
      <point x="250" y="-10" type="curve" smooth="yes"/>
      <point x="125" y="-10"/>
      <point x="40" y="75"/>
      <point x="40" y="225" type="curve" smooth="yes"/>
      <point x="40" y="375"/>
      <point x="125" y="460"/>
      <point x="225" y="460" type="curve" smooth="yes"/>
      <point x="296" y="460"/>
      <point x="344" y="441"/>
      <point x="375" y="390" type="curve"/>
      <point x="375" y="467"/>
      <point x="352" y="522"/>
      <point x="300" y="557" type="curve"/>
      <point x="270" y="494" type="line"/>
      <point x="207" y="524" type="line"/>
      <point x="237" y="587" type="line"/>
      <point x="221" y="592"/>
      <point x="204" y="596"/>
      <point x="185" y="600" type="curve" smooth="yes"/>
      <point x="130" y="610" type="line"/>
      <point x="140" y="680" type="line"/>
      <point x="200" y="670" type="line" smooth="yes"/>
      <point x="224" y="666"/>
      <point x="247" y="661"/>
      <point x="268" y="654" type="curve"/>
      <point x="296" y="713" type="line"/>
      <point x="360" y="684" type="line"/>
      <point x="332" y="625" type="line"/>
      <point x="416" y="574"/>
      <point x="460" y="482"/>
      <point x="460" y="325" type="curve" smooth="yes"/>
      <point x="460" y="225" type="line" smooth="yes"/>
      <point x="460" y="75"/>
      <point x="375" y="-10"/>
    </contour>
    <contour>
      <point x="250" y="60" type="curve" smooth="yes"/>
      <point x="310" y="60"/>
      <point x="360" y="110"/>
      <point x="360" y="225" type="curve" smooth="yes"/>
      <point x="360" y="334"/>
      <point x="310" y="385"/>
      <point x="250" y="385" type="curve" smooth="yes"/>
      <point x="190" y="385"/>
      <point x="140" y="334"/>
      <point x="140" y="225" type="curve" smooth="yes"/>
      <point x="140" y="110"/>
      <point x="190" y="60"/>
    </contour>
  </outline>
</glyph>
<glyph name="ntilde" format="1">
  <advance width="545"/>
  <unicode hex="00F1"/>
  <outline>
    <contour>
      <point x="187" y="576" type="curve" smooth="yes"/>
      <point x="178" y="576" type="line"/>
      <point x="138" y="601" type="line"/>
      <point x="154" y="646"/>
      <point x="177" y="686"/>
      <point x="228" y="686" type="curve" smooth="yes"/>
      <point x="278" y="686"/>
      <point x="288" y="641"/>
      <point x="318" y="641" type="curve" smooth="yes"/>
      <point x="348" y="640"/>
      <point x="365" y="680"/>
      <point x="364" y="681" type="curve" smooth="yes"/>
      <point x="373" y="681" type="line"/>
      <point x="413" y="656" type="line"/>
      <point x="398" y="611"/>
      <point x="372" y="571"/>
      <point x="323" y="571" type="curve" smooth="yes"/>
      <point x="273" y="571"/>
      <point x="263" y="616"/>
      <point x="233" y="616" type="curve" smooth="yes"/>
      <point x="204" y="615"/>
      <point x="187" y="577"/>
    </contour>
    <contour>
      <point x="305" y="510" type="curve" smooth="yes"/>
      <point x="405" y="510"/>
      <point x="475" y="440"/>
      <point x="475" y="340" type="curve" smooth="yes"/>
      <point x="475" y="0" type="line"/>
      <point x="375" y="0" type="line"/>
      <point x="375" y="340" type="line" smooth="yes"/>
      <point x="375" y="396"/>
      <point x="336" y="435"/>
      <point x="280" y="435" type="curve" smooth="yes"/>
      <point x="249" y="435"/>
      <point x="224" y="420"/>
      <point x="205" y="405" type="curve" smooth="yes"/>
      <point x="194" y="396"/>
      <point x="184" y="386"/>
      <point x="175" y="375" type="curve"/>
      <point x="175" y="0" type="line"/>
      <point x="75" y="0" type="line"/>
      <point x="75" y="500" type="line"/>
      <point x="145" y="500" type="line"/>
      <point x="155" y="440" type="line"/>
      <point x="160" y="440" type="line"/>
      <point x="169" y="453"/>
      <point x="181" y="464"/>
      <point x="195" y="475" type="curve" smooth="yes"/>
      <point x="219" y="492"/>
      <point x="254" y="510"/>
    </contour>
  </outline>
</glyph>
<glyph name="otilde" format="1">
  <advance width="530"/>
  <unicode hex="00F5"/>
  <outline>
    <contour>
      <point x="170" y="566" type="curve" smooth="yes"/>
      <point x="161" y="566" type="line"/>
      <point x="121" y="591" type="line"/>
      <point x="137" y="636"/>
      <point x="160" y="676"/>
      <point x="211" y="676" type="curve" smooth="yes"/>
      <point x="261" y="676"/>
      <point x="271" y="631"/>
      <point x="301" y="631" type="curve" smooth="yes"/>
      <point x="331" y="630"/>
      <point x="348" y="670"/>
      <point x="347" y="671" type="curve" smooth="yes"/>
      <point x="356" y="671" type="line"/>
      <point x="396" y="646" type="line"/>
      <point x="381" y="601"/>
      <point x="355" y="561"/>
      <point x="306" y="561" type="curve" smooth="yes"/>
      <point x="256" y="561"/>
      <point x="246" y="606"/>
      <point x="216" y="606" type="curve" smooth="yes"/>
      <point x="187" y="605"/>
      <point x="170" y="567"/>
    </contour>
    <contour>
      <point x="265" y="510" type="curve" smooth="yes"/>
      <point x="395" y="510"/>
      <point x="480" y="425"/>
      <point x="480" y="250" type="curve" smooth="yes"/>
      <point x="480" y="75"/>
      <point x="395" y="-10"/>
      <point x="265" y="-10" type="curve" smooth="yes"/>
      <point x="134" y="-10"/>
      <point x="50" y="75"/>
      <point x="50" y="250" type="curve" smooth="yes"/>
      <point x="50" y="425"/>
      <point x="134" y="510"/>
    </contour>
    <contour>
      <point x="265" y="60" type="curve" smooth="yes"/>
      <point x="329" y="60"/>
      <point x="380" y="110"/>
      <point x="380" y="250" type="curve" smooth="yes"/>
      <point x="380" y="390"/>
      <point x="329" y="440"/>
      <point x="265" y="440" type="curve" smooth="yes"/>
      <point x="201" y="440"/>
      <point x="150" y="390"/>
      <point x="150" y="250" type="curve" smooth="yes"/>
      <point x="150" y="110"/>
      <point x="201" y="60"/>
    </contour>
  </outline>
</glyph>
<glyph name="odieresis" format="1">
  <advance width="530"/>
  <unicode hex="00F6"/>
  <outline>
    <contour>
      <point x="175" y="565" type="curve" smooth="yes"/>
      <point x="143" y="565"/>
      <point x="120" y="588"/>
      <point x="120" y="620" type="curve" smooth="yes"/>
      <point x="120" y="652"/>
      <point x="143" y="675"/>
      <point x="175" y="675" type="curve" smooth="yes"/>
      <point x="207" y="675"/>
      <point x="230" y="652"/>
      <point x="230" y="620" type="curve" smooth="yes"/>
      <point x="230" y="588"/>
      <point x="207" y="565"/>
    </contour>
    <contour>
      <point x="350" y="565" type="curve" smooth="yes"/>
      <point x="318" y="565"/>
      <point x="295" y="588"/>
      <point x="295" y="620" type="curve" smooth="yes"/>
      <point x="295" y="652"/>
      <point x="318" y="675"/>
      <point x="350" y="675" type="curve" smooth="yes"/>
      <point x="382" y="675"/>
      <point x="405" y="652"/>
      <point x="405" y="620" type="curve" smooth="yes"/>
      <point x="405" y="588"/>
      <point x="382" y="565"/>
    </contour>
    <contour>
      <point x="265" y="-10" type="curve" smooth="yes"/>
      <point x="134" y="-10"/>
      <point x="50" y="75"/>
      <point x="50" y="250" type="curve" smooth="yes"/>
      <point x="50" y="425"/>
      <point x="134" y="510"/>
      <point x="265" y="510" type="curve" smooth="yes"/>
      <point x="395" y="510"/>
      <point x="480" y="425"/>
      <point x="480" y="250" type="curve" smooth="yes"/>
      <point x="480" y="75"/>
      <point x="395" y="-10"/>
    </contour>
    <contour>
      <point x="265" y="60" type="curve" smooth="yes"/>
      <point x="329" y="60"/>
      <point x="380" y="110"/>
      <point x="380" y="250" type="curve" smooth="yes"/>
      <point x="380" y="390"/>
      <point x="329" y="440"/>
      <point x="265" y="440" type="curve" smooth="yes"/>
      <point x="201" y="440"/>
      <point x="150" y="390"/>
      <point x="150" y="250" type="curve" smooth="yes"/>
      <point x="150" y="110"/>
      <point x="201" y="60"/>
    </contour>
  </outline>
</glyph>
<glyph name="divide" format="1">
  <advance width="470"/>
  <unicode hex="00F7"/>
  <outline>
    <contour>
      <point x="235" y="440" type="curve" smooth="yes"/>
      <point x="200" y="440"/>
      <point x="175" y="465"/>
      <point x="175" y="500" type="curve" smooth="yes"/>
      <point x="175" y="535"/>
      <point x="200" y="560"/>
      <point x="235" y="560" type="curve" smooth="yes"/>
      <point x="270" y="560"/>
      <point x="295" y="535"/>
      <point x="295" y="500" type="curve" smooth="yes"/>
      <point x="295" y="465"/>
      <point x="270" y="440"/>
    </contour>
    <contour>
      <point x="30" y="290" type="line"/>
      <point x="30" y="370" type="line"/>
      <point x="440" y="370" type="line"/>
      <point x="440" y="290" type="line"/>
    </contour>
    <contour>
      <point x="235" y="100" type="curve" smooth="yes"/>
      <point x="200" y="100"/>
      <point x="175" y="125"/>
      <point x="175" y="160" type="curve" smooth="yes"/>
      <point x="175" y="195"/>
      <point x="200" y="220"/>
      <point x="235" y="220" type="curve" smooth="yes"/>
      <point x="270" y="220"/>
      <point x="295" y="195"/>
      <point x="295" y="160" type="curve" smooth="yes"/>
      <point x="295" y="125"/>
      <point x="270" y="100"/>
    </contour>
  </outline>
</glyph>
<glyph name="oslash" format="1">
  <advance width="530"/>
  <unicode hex="00F8"/>
  <outline>
    <contour>
      <point x="265" y="-10" type="curve" smooth="yes"/>
      <point x="223" y="-10"/>
      <point x="185" y="-1"/>
      <point x="152" y="18" type="curve"/>
      <point x="140" y="0" type="line"/>
      <point x="60" y="0" type="line"/>
      <point x="101" y="63" type="line"/>
      <point x="67" y="107"/>
      <point x="50" y="169"/>
      <point x="50" y="250" type="curve" smooth="yes"/>
      <point x="50" y="425"/>
      <point x="134" y="510"/>
      <point x="265" y="510" type="curve" smooth="yes"/>
      <point x="309" y="510"/>
      <point x="347" y="501"/>
      <point x="378" y="482" type="curve"/>
      <point x="390" y="500" type="line"/>
      <point x="470" y="500" type="line"/>
      <point x="428" y="437" type="line"/>
      <point x="461" y="394"/>
      <point x="480" y="333"/>
      <point x="480" y="250" type="curve" smooth="yes"/>
      <point x="480" y="75"/>
      <point x="395" y="-10"/>
    </contour>
    <contour>
      <point x="161" y="153" type="curve"/>
      <point x="333" y="414" type="line"/>
      <point x="315" y="431"/>
      <point x="292" y="440"/>
      <point x="265" y="440" type="curve" smooth="yes"/>
      <point x="201" y="440"/>
      <point x="150" y="390"/>
      <point x="150" y="250" type="curve" smooth="yes"/>
      <point x="150" y="213"/>
      <point x="154" y="180"/>
    </contour>
    <contour>
      <point x="265" y="60" type="curve" smooth="yes"/>
      <point x="329" y="60"/>
      <point x="380" y="110"/>
      <point x="380" y="250" type="curve" smooth="yes"/>
      <point x="380" y="287"/>
      <point x="376" y="320"/>
      <point x="369" y="347" type="curve"/>
      <point x="196" y="86" type="line"/>
      <point x="215" y="67"/>
      <point x="238" y="60"/>
    </contour>
  </outline>
</glyph>
<glyph name="udieresis" format="1">
  <advance width="550"/>
  <unicode hex="00FC"/>
  <outline>
    <contour>
      <point x="185" y="565" type="curve" smooth="yes"/>
      <point x="153" y="565"/>
      <point x="130" y="588"/>
      <point x="130" y="620" type="curve" smooth="yes"/>
      <point x="130" y="652"/>
      <point x="153" y="675"/>
      <point x="185" y="675" type="curve" smooth="yes"/>
      <point x="217" y="675"/>
      <point x="240" y="652"/>
      <point x="240" y="620" type="curve" smooth="yes"/>
      <point x="240" y="588"/>
      <point x="217" y="565"/>
    </contour>
    <contour>
      <point x="360" y="565" type="curve" smooth="yes"/>
      <point x="328" y="565"/>
      <point x="305" y="588"/>
      <point x="305" y="620" type="curve" smooth="yes"/>
      <point x="305" y="652"/>
      <point x="328" y="675"/>
      <point x="360" y="675" type="curve" smooth="yes"/>
      <point x="392" y="675"/>
      <point x="415" y="652"/>
      <point x="415" y="620" type="curve" smooth="yes"/>
      <point x="415" y="588"/>
      <point x="392" y="565"/>
    </contour>
    <contour>
      <point x="245" y="-10" type="curve" smooth="yes"/>
      <point x="145" y="-10"/>
      <point x="75" y="60"/>
      <point x="75" y="160" type="curve" smooth="yes"/>
      <point x="75" y="500" type="line"/>
      <point x="175" y="500" type="line"/>
      <point x="175" y="160" type="line" smooth="yes"/>
      <point x="175" y="104"/>
      <point x="214" y="65"/>
      <point x="270" y="65" type="curve" smooth="yes"/>
      <point x="301" y="65"/>
      <point x="326" y="80"/>
      <point x="345" y="95" type="curve" smooth="yes"/>
      <point x="356" y="104"/>
      <point x="366" y="114"/>
      <point x="375" y="125" type="curve"/>
      <point x="375" y="500" type="line"/>
      <point x="475" y="500" type="line"/>
      <point x="475" y="0" type="line"/>
      <point x="405" y="0" type="line"/>
      <point x="395" y="60" type="line"/>
      <point x="390" y="60" type="line"/>
      <point x="381" y="47"/>
      <point x="369" y="35"/>
      <point x="355" y="25" type="curve" smooth="yes"/>
      <point x="331" y="6"/>
      <point x="296" y="-10"/>
    </contour>
  </outline>
</glyph>
<glyph name="thorn" format="1">
  <advance width="540"/>
  <unicode hex="00FE"/>
  <outline>
    <contour>
      <point x="80" y="-200" type="line"/>
      <point x="80" y="670" type="line"/>
      <point x="110" y="700" type="line"/>
      <point x="180" y="700" type="line"/>
      <point x="180" y="480" type="line"/>
      <point x="189" y="485"/>
      <point x="200" y="490"/>
      <point x="212" y="495" type="curve" smooth="yes"/>
      <point x="232" y="502"/>
      <point x="259" y="510"/>
      <point x="290" y="510" type="curve" smooth="yes"/>
      <point x="405" y="510"/>
      <point x="490" y="425"/>
      <point x="490" y="250" type="curve" smooth="yes"/>
      <point x="490" y="75"/>
      <point x="405" y="-10"/>
      <point x="290" y="-10" type="curve" smooth="yes"/>
      <point x="259" y="-10"/>
      <point x="232" y="-3"/>
      <point x="212" y="5" type="curve" smooth="yes"/>
      <point x="200" y="9"/>
      <point x="189" y="14"/>
      <point x="180" y="20" type="curve"/>
      <point x="180" y="-200" type="line"/>
    </contour>
    <contour>
      <point x="275" y="60" type="curve" smooth="yes"/>
      <point x="339" y="60"/>
      <point x="390" y="110"/>
      <point x="390" y="250" type="curve" smooth="yes"/>
      <point x="390" y="390"/>
      <point x="339" y="440"/>
      <point x="275" y="440" type="curve" smooth="yes"/>
      <point x="247" y="440"/>
      <point x="224" y="435"/>
      <point x="207" y="430" type="curve" smooth="yes"/>
      <point x="197" y="427"/>
      <point x="188" y="424"/>
      <point x="180" y="420" type="curve"/>
      <point x="180" y="80" type="line"/>
      <point x="188" y="76"/>
      <point x="197" y="73"/>
      <point x="207" y="70" type="curve" smooth="yes"/>
      <point x="224" y="65"/>
      <point x="247" y="60"/>
    </contour>
  </outline>
</glyph>
<glyph name="ydieresis" format="1">
  <advance width="475"/>
  <unicode hex="00FF"/>
  <outline>
    <contour>
      <point x="147" y="565" type="curve" smooth="yes"/>
      <point x="115" y="565"/>
      <point x="92" y="588"/>
      <point x="92" y="620" type="curve" smooth="yes"/>
      <point x="92" y="652"/>
      <point x="115" y="675"/>
      <point x="147" y="675" type="curve" smooth="yes"/>
      <point x="179" y="675"/>
      <point x="202" y="652"/>
      <point x="202" y="620" type="curve" smooth="yes"/>
      <point x="202" y="588"/>
      <point x="179" y="565"/>
    </contour>
    <contour>
      <point x="322" y="565" type="curve" smooth="yes"/>
      <point x="290" y="565"/>
      <point x="267" y="588"/>
      <point x="267" y="620" type="curve" smooth="yes"/>
      <point x="267" y="652"/>
      <point x="290" y="675"/>
      <point x="322" y="675" type="curve" smooth="yes"/>
      <point x="354" y="675"/>
      <point x="377" y="652"/>
      <point x="377" y="620" type="curve" smooth="yes"/>
      <point x="377" y="588"/>
      <point x="354" y="565"/>
    </contour>
    <contour>
      <point x="135" y="-210" type="curve" smooth="yes"/>
      <point x="104" y="-210"/>
      <point x="79" y="-203"/>
      <point x="62" y="-195" type="curve" smooth="yes"/>
      <point x="51" y="-191"/>
      <point x="42" y="-186"/>
      <point x="35" y="-180" type="curve"/>
      <point x="60" y="-115" type="line"/>
      <point x="70" y="-115" type="line"/>
      <point x="75" y="-120"/>
      <point x="80" y="-125"/>
      <point x="86" y="-128" type="curve" smooth="yes"/>
      <point x="97" y="-135"/>
      <point x="110" y="-140"/>
      <point x="125" y="-140" type="curve" smooth="yes"/>
      <point x="160" y="-140"/>
      <point x="189" y="-110"/>
      <point x="200" y="-70" type="curve" smooth="yes"/>
      <point x="220" y="0" type="line"/>
      <point x="190" y="0" type="line"/>
      <point x="19" y="500" type="line"/>
      <point x="115" y="500" type="line"/>
      <point x="225" y="170" type="line" smooth="yes"/>
      <point x="230" y="155"/>
      <point x="235" y="135"/>
      <point x="239" y="119" type="curve" smooth="yes"/>
      <point x="242" y="110"/>
      <point x="244" y="100"/>
      <point x="246" y="90" type="curve"/>
      <point x="250" y="90" type="line"/>
      <point x="251" y="100"/>
      <point x="253" y="110"/>
      <point x="256" y="119" type="curve" smooth="yes"/>
      <point x="269" y="170" type="line"/>
      <point x="360" y="500" type="line"/>
      <point x="460" y="500" type="line"/>
      <point x="300" y="-70" type="line" smooth="yes"/>
      <point x="277" y="-150"/>
      <point x="220" y="-210"/>
    </contour>
  </outline>
</glyph>
<glyph name="Abreve" format="1">
  <advance width="570"/>
  <unicode hex="0102"/>
  <outline>
    <contour>
      <point x="285" y="760" type="curve" smooth="yes"/>
      <point x="185" y="760"/>
      <point x="135" y="810"/>
      <point x="135" y="890" type="curve"/>
      <point x="225" y="890" type="line"/>
      <point x="225" y="839"/>
      <point x="245" y="820"/>
      <point x="285" y="820" type="curve" smooth="yes"/>
      <point x="325" y="820"/>
      <point x="345" y="839"/>
      <point x="345" y="890" type="curve"/>
      <point x="435" y="890" type="line"/>
      <point x="435" y="810"/>
      <point x="385" y="760"/>
    </contour>
    <contour>
      <point x="15" y="0" type="line"/>
      <point x="220" y="700" type="line"/>
      <point x="350" y="700" type="line"/>
      <point x="555" y="0" type="line"/>
      <point x="455" y="0" type="line"/>
      <point x="400" y="180" type="line"/>
      <point x="170" y="180" type="line"/>
      <point x="115" y="0" type="line"/>
    </contour>
    <contour>
      <point x="190" y="250" type="line"/>
      <point x="380" y="250" type="line"/>
      <point x="300" y="525" type="line" smooth="yes"/>
      <point x="295" y="540"/>
      <point x="293" y="557"/>
      <point x="290" y="572" type="curve" smooth="yes"/>
      <point x="287" y="595" type="line"/>
      <point x="283" y="595" type="line"/>
      <point x="280" y="571" type="line" smooth="yes"/>
      <point x="277" y="556"/>
      <point x="274" y="540"/>
      <point x="270" y="525" type="curve" smooth="yes"/>
    </contour>
  </outline>
</glyph>
<glyph name="Aogonek" format="1">
  <advance width="575"/>
  <unicode hex="0104"/>
  <outline>
    <contour>
      <point x="596" y="-78" type="curve"/>
      <point x="605" y="-78" type="line"/>
      <point x="605" y="-130" type="line"/>
      <point x="599" y="-135"/>
      <point x="592" y="-140"/>
      <point x="584" y="-143" type="curve" smooth="yes"/>
      <point x="569" y="-150"/>
      <point x="550" y="-155"/>
      <point x="525" y="-155" type="curve" smooth="yes"/>
      <point x="465" y="-155"/>
      <point x="435" y="-125"/>
      <point x="435" y="-80" type="curve" smooth="yes"/>
      <point x="435" y="-57"/>
      <point x="447" y="-38"/>
      <point x="460" y="-23" type="curve" smooth="yes"/>
      <point x="467" y="-15"/>
      <point x="476" y="-7"/>
      <point x="485" y="0" type="curve"/>
      <point x="455" y="0" type="line"/>
      <point x="400" y="180" type="line"/>
      <point x="170" y="180" type="line"/>
      <point x="115" y="0" type="line"/>
      <point x="15" y="0" type="line"/>
      <point x="220" y="700" type="line"/>
      <point x="350" y="700" type="line"/>
      <point x="555" y="0" type="line"/>
      <point x="546" y="-5"/>
      <point x="537" y="-12"/>
      <point x="530" y="-19" type="curve" smooth="yes"/>
      <point x="517" y="-31"/>
      <point x="505" y="-48"/>
      <point x="505" y="-65" type="curve" smooth="yes"/>
      <point x="505" y="-85"/>
      <point x="520" y="-100"/>
      <point x="540" y="-100" type="curve" smooth="yes"/>
      <point x="570" y="-100"/>
      <point x="596" y="-78"/>
    </contour>
    <contour>
      <point x="190" y="250" type="line"/>
      <point x="380" y="250" type="line"/>
      <point x="300" y="525" type="line" smooth="yes"/>
      <point x="295" y="540"/>
      <point x="293" y="557"/>
      <point x="290" y="572" type="curve" smooth="yes"/>
      <point x="287" y="595" type="line"/>
      <point x="283" y="595" type="line"/>
      <point x="280" y="571" type="line" smooth="yes"/>
      <point x="277" y="556"/>
      <point x="274" y="540"/>
      <point x="270" y="525" type="curve" smooth="yes"/>
    </contour>
  </outline>
</glyph>
<glyph name="cacute" format="1">
  <advance width="455"/>
  <unicode hex="0107"/>
  <outline>
    <contour>
      <point x="212" y="550" type="line"/>
      <point x="257" y="700" type="line"/>
      <point x="367" y="700" type="line"/>
      <point x="277" y="550" type="line"/>
    </contour>
    <contour>
      <point x="270" y="-10" type="curve" smooth="yes"/>
      <point x="135" y="-10"/>
      <point x="50" y="75"/>
      <point x="50" y="250" type="curve" smooth="yes"/>
      <point x="50" y="425"/>
      <point x="135" y="510"/>
      <point x="260" y="510" type="curve" smooth="yes"/>
      <point x="311" y="510"/>
      <point x="351" y="497"/>
      <point x="380" y="482" type="curve" smooth="yes"/>
      <point x="397" y="474"/>
      <point x="412" y="465"/>
      <point x="425" y="455" type="curve"/>
      <point x="390" y="395" type="line"/>
      <point x="380" y="395" type="line"/>
      <point x="370" y="403"/>
      <point x="359" y="410"/>
      <point x="347" y="417" type="curve" smooth="yes"/>
      <point x="327" y="428"/>
      <point x="301" y="440"/>
      <point x="270" y="440" type="curve" smooth="yes"/>
      <point x="201" y="440"/>
      <point x="150" y="390"/>
      <point x="150" y="250" type="curve" smooth="yes"/>
      <point x="150" y="110"/>
      <point x="200" y="60"/>
      <point x="280" y="60" type="curve" smooth="yes"/>
      <point x="311" y="60"/>
      <point x="337" y="71"/>
      <point x="357" y="82" type="curve" smooth="yes"/>
      <point x="369" y="89"/>
      <point x="380" y="96"/>
      <point x="390" y="105" type="curve"/>
      <point x="400" y="105" type="line"/>
      <point x="435" y="45" type="line"/>
      <point x="422" y="34"/>
      <point x="407" y="25"/>
      <point x="390" y="17" type="curve" smooth="yes"/>
      <point x="361" y="2"/>
      <point x="321" y="-10"/>
    </contour>
  </outline>
</glyph>
<glyph name="Dcaron" format="1">
  <advance width="585"/>
  <unicode hex="010E"/>
  <outline>
    <contour>
      <point x="232" y="760" type="line"/>
      <point x="127" y="890" type="line"/>
      <point x="192" y="890" type="line"/>
      <point x="267" y="825" type="line"/>
      <point x="342" y="890" type="line"/>
      <point x="407" y="890" type="line"/>
      <point x="302" y="760" type="line"/>
    </contour>
    <contour>
      <point x="90" y="0" type="line"/>
      <point x="90" y="700" type="line"/>
      <point x="240" y="700" type="line" smooth="yes"/>
      <point x="430" y="700"/>
      <point x="530" y="601"/>
      <point x="530" y="350" type="curve" smooth="yes"/>
      <point x="530" y="99"/>
      <point x="430" y="0"/>
      <point x="240" y="0" type="curve" smooth="yes"/>
    </contour>
    <contour>
      <point x="190" y="70" type="line"/>
      <point x="240" y="70" type="line" smooth="yes"/>
      <point x="360" y="70"/>
      <point x="430" y="139"/>
      <point x="430" y="350" type="curve" smooth="yes"/>
      <point x="430" y="561"/>
      <point x="360" y="630"/>
      <point x="240" y="630" type="curve" smooth="yes"/>
      <point x="190" y="630" type="line"/>
    </contour>
  </outline>
</glyph>
<glyph name="dcaron" format="1">
  <advance width="645"/>
  <unicode hex="010F"/>
  <outline>
    <contour>
      <point x="230" y="-10" type="curve" smooth="yes"/>
      <point x="135" y="-10"/>
      <point x="50" y="75"/>
      <point x="50" y="250" type="curve" smooth="yes"/>
      <point x="50" y="425"/>
      <point x="135" y="510"/>
      <point x="250" y="510" type="curve" smooth="yes"/>
      <point x="281" y="510"/>
      <point x="307" y="502"/>
      <point x="327" y="495" type="curve" smooth="yes"/>
      <point x="360" y="480" type="line"/>
      <point x="360" y="670" type="line"/>
      <point x="390" y="700" type="line"/>
      <point x="460" y="700" type="line"/>
      <point x="460" y="0" type="line"/>
      <point x="390" y="0" type="line"/>
      <point x="380" y="60" type="line"/>
      <point x="375" y="60" type="line"/>
      <point x="366" y="47"/>
      <point x="354" y="35"/>
      <point x="340" y="25" type="curve" smooth="yes"/>
      <point x="316" y="6"/>
      <point x="281" y="-10"/>
    </contour>
    <contour>
      <point x="555" y="484" type="curve"/>
      <point x="525" y="515" type="line"/>
      <point x="534" y="522"/>
      <point x="543" y="529"/>
      <point x="550" y="537" type="curve" smooth="yes"/>
      <point x="562" y="552"/>
      <point x="575" y="570"/>
      <point x="575" y="590" type="curve"/>
      <point x="550" y="590"/>
      <point x="525" y="614"/>
      <point x="525" y="645" type="curve" smooth="yes"/>
      <point x="525" y="676"/>
      <point x="550" y="700"/>
      <point x="575" y="700" type="curve" smooth="yes"/>
      <point x="610" y="700"/>
      <point x="635" y="675"/>
      <point x="635" y="636" type="curve" smooth="yes"/>
      <point x="635" y="583"/>
      <point x="615" y="545"/>
      <point x="595" y="520" type="curve" smooth="yes"/>
      <point x="583" y="505"/>
      <point x="570" y="493"/>
    </contour>
    <contour>
      <point x="255" y="65" type="curve" smooth="yes"/>
      <point x="286" y="65"/>
      <point x="311" y="80"/>
      <point x="330" y="95" type="curve" smooth="yes"/>
      <point x="341" y="104"/>
      <point x="351" y="114"/>
      <point x="360" y="125" type="curve"/>
      <point x="360" y="420" type="line"/>
      <point x="352" y="424"/>
      <point x="343" y="427"/>
      <point x="333" y="430" type="curve" smooth="yes"/>
      <point x="316" y="435"/>
      <point x="292" y="440"/>
      <point x="265" y="440" type="curve" smooth="yes"/>
      <point x="201" y="440"/>
      <point x="150" y="390"/>
      <point x="150" y="250" type="curve" smooth="yes"/>
      <point x="150" y="115"/>
      <point x="199" y="65"/>
    </contour>
  </outline>
</glyph>
<glyph name="Dcroat" format="1">
  <advance width="585"/>
  <unicode hex="0110"/>
  <outline>
    <contour>
      <point x="90" y="0" type="line"/>
      <point x="90" y="320" type="line"/>
      <point x="35" y="320" type="line"/>
      <point x="35" y="400" type="line"/>
      <point x="90" y="400" type="line"/>
      <point x="90" y="700" type="line"/>
      <point x="240" y="700" type="line" smooth="yes"/>
      <point x="430" y="700"/>
      <point x="530" y="601"/>
      <point x="530" y="350" type="curve" smooth="yes"/>
      <point x="530" y="99"/>
      <point x="430" y="0"/>
      <point x="240" y="0" type="curve" smooth="yes"/>
    </contour>
    <contour>
      <point x="190" y="70" type="line"/>
      <point x="240" y="70" type="line" smooth="yes"/>
      <point x="360" y="70"/>
      <point x="430" y="139"/>
      <point x="430" y="350" type="curve" smooth="yes"/>
      <point x="430" y="561"/>
      <point x="360" y="630"/>
      <point x="240" y="630" type="curve" smooth="yes"/>
      <point x="190" y="630" type="line"/>
      <point x="190" y="400" type="line"/>
      <point x="305" y="400" type="line"/>
      <point x="305" y="320" type="line"/>
      <point x="190" y="320" type="line"/>
    </contour>
  </outline>
</glyph>
<glyph name="dcroat" format="1">
  <advance width="545"/>
  <unicode hex="0111"/>
  <outline>
    <contour>
      <point x="230" y="-10" type="curve" smooth="yes"/>
      <point x="135" y="-10"/>
      <point x="50" y="74"/>
      <point x="50" y="230" type="curve" smooth="yes"/>
      <point x="50" y="386"/>
      <point x="135" y="470"/>
      <point x="250" y="470" type="curve" smooth="yes"/>
      <point x="281" y="470"/>
      <point x="307" y="462"/>
      <point x="327" y="455" type="curve" smooth="yes"/>
      <point x="360" y="440" type="line"/>
      <point x="360" y="530" type="line"/>
      <point x="255" y="530" type="line"/>
      <point x="255" y="600" type="line"/>
      <point x="360" y="600" type="line"/>
      <point x="360" y="670" type="line"/>
      <point x="390" y="700" type="line"/>
      <point x="460" y="700" type="line"/>
      <point x="460" y="600" type="line"/>
      <point x="525" y="600" type="line"/>
      <point x="525" y="530" type="line"/>
      <point x="460" y="530" type="line"/>
      <point x="460" y="0" type="line"/>
      <point x="390" y="0" type="line"/>
      <point x="380" y="60" type="line"/>
      <point x="375" y="60" type="line"/>
      <point x="366" y="47"/>
      <point x="354" y="35"/>
      <point x="340" y="25" type="curve" smooth="yes"/>
      <point x="316" y="6"/>
      <point x="281" y="-10"/>
    </contour>
    <contour>
      <point x="255" y="65" type="curve" smooth="yes"/>
      <point x="286" y="65"/>
      <point x="311" y="80"/>
      <point x="330" y="95" type="curve" smooth="yes"/>
      <point x="341" y="104"/>
      <point x="351" y="114"/>
      <point x="360" y="125" type="curve"/>
      <point x="360" y="380" type="line"/>
      <point x="352" y="384"/>
      <point x="343" y="387"/>
      <point x="333" y="390" type="curve" smooth="yes"/>
      <point x="316" y="395"/>
      <point x="292" y="400"/>
      <point x="265" y="400" type="curve" smooth="yes"/>
      <point x="200" y="400"/>
      <point x="150" y="350"/>
      <point x="150" y="230" type="curve" smooth="yes"/>
      <point x="150" y="115"/>
      <point x="199" y="65"/>
    </contour>
  </outline>
</glyph>
<glyph name="Emacron" format="1">
  <advance width="510"/>
  <unicode hex="0112"/>
  <outline>
    <contour>
      <point x="152" y="790" type="line"/>
      <point x="152" y="860" type="line"/>
      <point x="422" y="860" type="line"/>
      <point x="422" y="790" type="line"/>
    </contour>
    <contour>
      <point x="90" y="0" type="line"/>
      <point x="90" y="700" type="line"/>
      <point x="480" y="700" type="line"/>
      <point x="480" y="630" type="line"/>
      <point x="190" y="630" type="line"/>
      <point x="190" y="400" type="line"/>
      <point x="420" y="400" type="line"/>
      <point x="420" y="330" type="line"/>
      <point x="190" y="330" type="line"/>
      <point x="190" y="70" type="line"/>
      <point x="480" y="70" type="line"/>
      <point x="480" y="0" type="line"/>
    </contour>
  </outline>
</glyph>
<glyph name="Eogonek" format="1">
  <advance width="510"/>
  <unicode hex="0118"/>
  <outline>
    <contour>
      <point x="480" y="630" type="line"/>
      <point x="190" y="630" type="line"/>
      <point x="190" y="400" type="line"/>
      <point x="420" y="400" type="line"/>
      <point x="420" y="330" type="line"/>
      <point x="190" y="330" type="line"/>
      <point x="190" y="70" type="line"/>
      <point x="480" y="70" type="line"/>
      <point x="480" y="0" type="line"/>
      <point x="340" y="0" type="line"/>
      <point x="331" y="-5"/>
      <point x="322" y="-12"/>
      <point x="315" y="-19" type="curve" smooth="yes"/>
      <point x="302" y="-31"/>
      <point x="290" y="-48"/>
      <point x="290" y="-65" type="curve" smooth="yes"/>
      <point x="290" y="-85"/>
      <point x="305" y="-100"/>
      <point x="325" y="-100" type="curve" smooth="yes"/>
      <point x="355" y="-100"/>
      <point x="381" y="-78"/>
      <point x="381" y="-78" type="curve"/>
      <point x="390" y="-78" type="line"/>
      <point x="390" y="-130" type="line"/>
      <point x="384" y="-135"/>
      <point x="377" y="-140"/>
      <point x="369" y="-143" type="curve" smooth="yes"/>
      <point x="354" y="-150"/>
      <point x="335" y="-155"/>
      <point x="310" y="-155" type="curve" smooth="yes"/>
      <point x="250" y="-155"/>
      <point x="220" y="-125"/>
      <point x="220" y="-80" type="curve" smooth="yes"/>
      <point x="220" y="-57"/>
      <point x="232" y="-38"/>
      <point x="245" y="-23" type="curve" smooth="yes"/>
      <point x="252" y="-15"/>
      <point x="261" y="-7"/>
      <point x="270" y="0" type="curve"/>
      <point x="90" y="0" type="line"/>
      <point x="90" y="700" type="line"/>
      <point x="480" y="700" type="line"/>
    </contour>
  </outline>
</glyph>
<glyph name="eogonek" format="1">
  <advance width="505"/>
  <unicode hex="0119"/>
  <outline>
    <contour>
      <point x="255" y="510" type="curve" smooth="yes"/>
      <point x="375" y="510"/>
      <point x="460" y="425"/>
      <point x="460" y="250" type="curve" smooth="yes"/>
      <point x="460" y="235" type="line"/>
      <point x="440" y="215" type="line"/>
      <point x="150" y="215" type="line"/>
      <point x="150" y="110"/>
      <point x="200" y="60"/>
      <point x="280" y="60" type="curve" smooth="yes"/>
      <point x="311" y="60"/>
      <point x="337" y="71"/>
      <point x="357" y="82" type="curve" smooth="yes"/>
      <point x="369" y="89"/>
      <point x="380" y="96"/>
      <point x="390" y="105" type="curve"/>
      <point x="400" y="105" type="line"/>
      <point x="435" y="45" type="line"/>
      <point x="422" y="34"/>
      <point x="407" y="25"/>
      <point x="390" y="17" type="curve" smooth="yes"/>
      <point x="366" y="5"/>
      <point x="335" y="-6"/>
      <point x="297" y="-9" type="curve" smooth="yes"/>
      <point x="292" y="-12"/>
      <point x="288" y="-16"/>
      <point x="285" y="-19" type="curve" smooth="yes"/>
      <point x="272" y="-31"/>
      <point x="260" y="-48"/>
      <point x="260" y="-65" type="curve" smooth="yes"/>
      <point x="260" y="-85"/>
      <point x="275" y="-100"/>
      <point x="295" y="-100" type="curve" smooth="yes"/>
      <point x="325" y="-100"/>
      <point x="351" y="-78"/>
      <point x="351" y="-78" type="curve"/>
      <point x="360" y="-78" type="line"/>
      <point x="360" y="-130" type="line"/>
      <point x="354" y="-135"/>
      <point x="347" y="-140"/>
      <point x="339" y="-143" type="curve" smooth="yes"/>
      <point x="324" y="-150"/>
      <point x="305" y="-155"/>
      <point x="280" y="-155" type="curve" smooth="yes"/>
      <point x="220" y="-155"/>
      <point x="190" y="-125"/>
      <point x="190" y="-80" type="curve" smooth="yes"/>
      <point x="190" y="-57"/>
      <point x="202" y="-38"/>
      <point x="215" y="-23" type="curve" smooth="yes"/>
      <point x="220" y="-18"/>
      <point x="225" y="-12"/>
      <point x="231" y="-7" type="curve"/>
      <point x="119" y="8"/>
      <point x="50" y="93"/>
      <point x="50" y="250" type="curve" smooth="yes"/>
      <point x="50" y="425"/>
      <point x="135" y="510"/>
    </contour>
    <contour>
      <point x="150" y="285" type="curve"/>
      <point x="360" y="285" type="line"/>
      <point x="360" y="396"/>
      <point x="315" y="440"/>
      <point x="255" y="440" type="curve" smooth="yes"/>
      <point x="195" y="440"/>
      <point x="150" y="396"/>
    </contour>
  </outline>
</glyph>
<glyph name="gcommaaccent" format="1">
  <advance width="535"/>
  <unicode hex="0123"/>
  <outline>
    <contour>
      <point x="280" y="786" type="curve"/>
      <point x="310" y="755" type="line"/>
      <point x="301" y="748"/>
      <point x="292" y="741"/>
      <point x="285" y="733" type="curve" smooth="yes"/>
      <point x="273" y="718"/>
      <point x="260" y="700"/>
      <point x="260" y="680" type="curve"/>
      <point x="285" y="680"/>
      <point x="310" y="656"/>
      <point x="310" y="625" type="curve" smooth="yes"/>
      <point x="310" y="594"/>
      <point x="285" y="570"/>
      <point x="260" y="570" type="curve" smooth="yes"/>
      <point x="225" y="570"/>
      <point x="200" y="595"/>
      <point x="200" y="634" type="curve" smooth="yes"/>
      <point x="200" y="687"/>
      <point x="220" y="725"/>
      <point x="240" y="750" type="curve" smooth="yes"/>
      <point x="252" y="765"/>
      <point x="265" y="777"/>
    </contour>
    <contour>
      <point x="245" y="-210" type="curve" smooth="yes"/>
      <point x="194" y="-210"/>
      <point x="154" y="-198"/>
      <point x="125" y="-183" type="curve" smooth="yes"/>
      <point x="108" y="-175"/>
      <point x="93" y="-166"/>
      <point x="80" y="-155" type="curve"/>
      <point x="115" y="-95" type="line"/>
      <point x="125" y="-95" type="line"/>
      <point x="134" y="-104"/>
      <point x="145" y="-111"/>
      <point x="157" y="-118" type="curve" smooth="yes"/>
      <point x="177" y="-129"/>
      <point x="204" y="-140"/>
      <point x="235" y="-140" type="curve" smooth="yes"/>
      <point x="320" y="-140"/>
      <point x="360" y="-101"/>
      <point x="360" y="-10" type="curve" smooth="yes"/>
      <point x="360" y="20" type="line"/>
      <point x="350" y="14"/>
      <point x="339" y="9"/>
      <point x="327" y="5" type="curve" smooth="yes"/>
      <point x="307" y="-3"/>
      <point x="281" y="-10"/>
      <point x="250" y="-10" type="curve" smooth="yes"/>
      <point x="135" y="-10"/>
      <point x="50" y="75"/>
      <point x="50" y="250" type="curve" smooth="yes"/>
      <point x="50" y="425"/>
      <point x="135" y="510"/>
      <point x="230" y="510" type="curve" smooth="yes"/>
      <point x="281" y="510"/>
      <point x="316" y="492"/>
      <point x="340" y="475" type="curve" smooth="yes"/>
      <point x="354" y="464"/>
      <point x="366" y="453"/>
      <point x="375" y="440" type="curve"/>
      <point x="380" y="440" type="line"/>
      <point x="390" y="500" type="line"/>
      <point x="460" y="500" type="line"/>
      <point x="460" y="-10" type="line" smooth="yes"/>
      <point x="460" y="-130"/>
      <point x="380" y="-210"/>
    </contour>
    <contour>
      <point x="265" y="60" type="curve" smooth="yes"/>
      <point x="292" y="60"/>
      <point x="316" y="65"/>
      <point x="333" y="70" type="curve" smooth="yes"/>
      <point x="343" y="73"/>
      <point x="352" y="76"/>
      <point x="360" y="80" type="curve"/>
      <point x="360" y="375" type="line"/>
      <point x="351" y="386"/>
      <point x="341" y="396"/>
      <point x="330" y="405" type="curve" smooth="yes"/>
      <point x="311" y="420"/>
      <point x="286" y="435"/>
      <point x="255" y="435" type="curve" smooth="yes"/>
      <point x="199" y="435"/>
      <point x="150" y="385"/>
      <point x="150" y="250" type="curve" smooth="yes"/>
      <point x="150" y="110"/>
      <point x="201" y="60"/>
    </contour>
  </outline>
</glyph>
<glyph name="Itilde" format="1">
  <advance width="250"/>
  <unicode hex="0128"/>
  <outline>
    <contour>
      <point x="217" y="890" type="line"/>
      <point x="257" y="865" type="line"/>
      <point x="242" y="820"/>
      <point x="216" y="780"/>
      <point x="167" y="780" type="curve" smooth="yes"/>
      <point x="117" y="780"/>
      <point x="107" y="825"/>
      <point x="77" y="825" type="curve" smooth="yes"/>
      <point x="48" y="824"/>
      <point x="31" y="786"/>
      <point x="31" y="785" type="curve" smooth="yes"/>
      <point x="22" y="785" type="line"/>
      <point x="-18" y="810" type="line"/>
      <point x="-2" y="855"/>
      <point x="21" y="895"/>
      <point x="72" y="895" type="curve" smooth="yes"/>
      <point x="122" y="895"/>
      <point x="132" y="850"/>
      <point x="162" y="850" type="curve" smooth="yes"/>
      <point x="192" y="849"/>
      <point x="209" y="889"/>
      <point x="208" y="890" type="curve" smooth="yes"/>
    </contour>
    <contour>
      <point x="90" y="0" type="line"/>
      <point x="90" y="700" type="line"/>
      <point x="190" y="700" type="line"/>
      <point x="190" y="0" type="line"/>
    </contour>
  </outline>
</glyph>
